<?xml version="1.0" standalone="no"?>
<!DOCTYPE svg PUBLIC "-//W3C//DTD SVG 1.1//EN" "http://www.w3.org/Graphics/SVG/1.1/DTD/svg11.dtd" >
<svg xmlns="http://www.w3.org/2000/svg" xmlns:xlink="http://www.w3.org/1999/xlink" version="1.1">
<metadata>
Created by FontForge 20161116 at Sat Jul  1 19:23:35 2017
 By Jimmy Wärting
Stea (c) 7NTyes. 2017. All Rights Reserved
</metadata>
<defs>
<font id="Stea" horiz-adv-x="1088" >
  <font-face 
    font-family="Stea"
    font-weight="400"
    font-stretch="normal"
    units-per-em="2048"
    panose-1="2 0 5 0 0 0 0 0 0 0"
    ascent="1638"
    descent="-410"
    x-height="675"
    cap-height="1044"
    bbox="-793 -1135 7029 1933"
    underline-thickness="150"
    underline-position="-292"
    unicode-range="U+001D-E048"
  />
<missing-glyph horiz-adv-x="2066" 
d="M1153 1433q-127 -32 -208 -119q-27 -30 -73 -97q-50 -76 -72 -102q-68 -82 -111 -116q-68 -54 -145 -54q-61 0 -104 31q-49 34 -58 95q-2 14 -2 30q0 54 27 100q37 63 104 75q17 3 31 3q22 0 41 -7q34 -15 35 -56q-9 10 -23 10q-11 0 -20 -8q-11 -10 -11 -22
q0 -28 31 -28h2q31 0 48 34q9 18 9 35q0 18 -8 36q-15 37 -48 54q-38 20 -91 20q-13 0 -26 -1q-112 -10 -181 -91v178h853zM300 913q66 -67 176 -67q16 0 33 2q91 7 214 128q33 33 94 98q54 59 75 78q55 51 113 51q31 0 62 -15q93 -42 187 -42q63 0 127 19q125 37 234 135
q-14 -165 -125 -306q-21 -26 -231 -240h-57q-42 0 -70 33l-90 -88h163q-198 -214 -233 -382q-9 -45 -9 -86q0 -67 24 -118q40 -81 140 -113h-202v701l38 20v33h-663v159zM542 699q80 0 112 -31q34 -33 34 -110v-558h-388v699h242zM747 701h37v-701h-37v701zM1415 0
q212 47 351 167v-167h-351zM1766 183q-134 -74 -253 -88q-24 -2 -47 -2q-83 0 -131 39q-46 37 -46 105q0 26 6 56q27 120 161 288q64 78 92 118h156v-48h62v-468zM1585 755q105 166 105 358q0 43 -6 88q-15 131 -18 131q7 50 100 79v-656h-181zM926 1047q-75 0 -126 -42
q-44 -38 -53 -94q-3 -15 -3 -28q0 -37 21 -63q27 -35 76 -35h18q60 7 78 61q5 16 5 28q0 37 -36 62q-31 22 -31 47q0 5 1 10q8 32 50 42v12z" />
    <glyph glyph-name="uniE045" unicode="tt" horiz-adv-x="1937" 
d="M-293 1095q156 0 348 21q11 65 23 134q43 235 77 354q9 26 45 31q10 1 19 1q24 0 46 -9q26 -11 26 -33q0 -4 -1 -8q-22 -81 -58 -309q-11 -71 -20 -141q212 31 462 84q202 43 368 71q17 134 47 372q8 46 43 60q19 8 37 8q15 0 30 -6q29 -12 29 -51q0 -7 -2 -25
q-26 -207 -42 -336q224 32 372 32q130 0 201.5 -43.5t71.5 -150.5q0 -12 -8.5 -21t-21.5 -9t-21.5 8.5t-8.5 21.5q0 79 -46 116.5t-167 37.5q-150 0 -377 -33q-10 -79 -15 -122q-32 -263 -50 -529q-13 -193 -13 -387q0 -36 3 -109t11.5 -164.5t23.5 -185.5t39 -173.5
t58.5 -129t81.5 -49.5q46 0 93.5 47.5t92.5 120t83.5 152t67 147t42.5 104.5q78 198 148 400q7 21 16 47q16 50 36 102.5t40 89.5q6 10 17 10q5 0 10 -3q10 -6 10 -17q0 -5 -3 -10q-19 -35 -38 -86t-35 -99l-16 -48q-70 -202 -148 -401q-12 -29 -25 -63q-24 -65 -56 -141.5
t-71.5 -152.5t-87 -139.5t-104 -102t-122.5 -38.5q-69 0 -119 52t-83.5 136.5t-54 186t-31 202t-14 184.5t-3.5 131q0 195 13 390q16 243 49 525q4 34 12 101q-165 -28 -363 -70q-253 -54 -468 -85q-12 -91 -21 -178q-20 -173 -31 -354q-10 -144 -10 -279q0 -34 1 -67
q2 -167 24 -299t68.5 -210t124.5 -78q56 0 114 55t110.5 133t92.5 153t61 120q31 63 60 127q10 22 23 22q4 0 8 -2q10 -5 10 -16q0 -8 -5 -19q-29 -65 -60 -129l-4 -8q-21 -43 -52.5 -104.5t-72 -128t-87 -124.5t-97 -95t-102.5 -37q-103 0 -173 57t-113.5 157.5t-64 232
t-22.5 282.5v50q0 126 8 258q11 157 31 309q10 73 22 152q-188 -21 -342 -21q-274 9 -388 107q-111 83 -112 153q1 40 42 42q35 -1 68 -61q42 -81 132 -136q89 -55 258 -64z" />
    <glyph glyph-name="uniE048" unicode="Stea" horiz-adv-x="7029" 
d="M5834 604q-12 -46 -29 -125q-7 -37 -23 -101t-38 -118q-22 -55 -47 -55q-23 0 -37 27q-15 26 -23 63q-9 37 -12 72q-3 34 -3 49q0 48 9 101q8 52 29 96q8 16 21 38q13 21 30 38q17 16 37 16q24 0 41 -17q17 -18 28 -41t17 -43zM1115 397q65 -93 148 -165q82 -72 188 -113
q105 -42 242 -42q185 0 332 71q146 71 261 192q96 100 173 223q7 -42 25 -78q30 -61 77 -113q46 -53 98 -103q41 -40 80 -82q-109 -43 -234 -152q-125 -110 -125 -274q0 -133 82 -231q81 -98 209 -98q140 0 250 125t110 307q-2 127 -45 209q-43 81 -88 134q8 2 15 5
q84 31 167 65q109 44 214 107q104 62 182 153q8 9 15 19q-9 -162 -9 -323q0 -47 4 -131q3 -84 14 -184q10 -101 31 -202q20 -102 54 -186q33 -85 83 -137t119 -52q66 0 123 39q56 38 104 102q47 63 87 139q39 76 71 153q32 76 81 204q78 199 148 401l16 48q11 32 23 66
q4 -180 107 -286q107 -110 304 -110q218 0 429 199q134 126 211 220q-8 -52 -8 -100q0 -127 49 -198q49 -72 131 -72q59 0 100 67q40 66 70 208q0 -197 65 -309q66 -112 205 -112q201 0 345 239q80 134 115 296q36 -3 74 -3q175 0 284 98q108 97 108 236q0 98 -59 161
q-59 62 -144 62q-94 0 -148 -62q-49 -56 -54 -139q0 -24 19 -24t20 24q4 74 40 115q41 46 123 46q63 0 114 -46q50 -47 50 -137q0 -128 -99 -211q-100 -83 -254 -83q-34 0 -66 3q20 111 20 236q0 275 -142 381q-66 44 -145 44q-102 0 -172 -62q-71 -62 -71 -161
q0 -189 166 -335q120 -107 284 -135q-30 -167 -100 -283q-122 -203 -256 -203q-142 0 -171 138q-11 76 -12 164q0 56 4 111q4 70 11 124q6 54 11 79q2 10 4 18q1 6 1 11q0 36 -56 36q-11 0 -23 -3q-32 -8 -51 -22q-19 -16 -22 -47q-26 50 -62 75t-76 25q-53 0 -104 -35
t-84 -100l-4 -8q-69 -110 -260 -294q-199 -192 -410 -192q-116 0 -195 99q-78 98 -78 276q0 48 4 88q64 -49 168 -49q74 0 135 47t61 123q0 89 -61 133q-61 43 -137 43q-149 0 -228 -120q-45 -68 -65 -147q-19 -36 -39 -87q-20 -53 -36 -103q-6 -17 -16 -47
q-70 -202 -148 -400q-14 -37 -42 -104q-29 -68 -67 -147q-39 -80 -84 -152q-45 -73 -92 -120q-48 -48 -94 -48q-47 0 -81 50q-35 49 -59 129q-24 79 -39 173t-23 186q-9 91 -12 164t-3 109q0 194 13 387q16 235 43 468q174 38 331 121q279 148 279 381q0 19 -6 29
q-7 10 -22 10t-23 -9q-9 -9 -9 -30q0 -199 -260 -346q-136 -77 -285 -113q5 43 9 73q10 86 16 137q2 18 2 25q0 39 -29 51q-15 6 -30 6q-18 0 -37 -8q-35 -14 -43 -60q-12 -95 -30 -250q-70 -8 -143 -8q-317 13 -429 197q-33 60 -68 60q-40 -1 -41 -41q0 -70 111 -153
q140 -103 427 -103q70 1 139 8q-24 -215 -39 -431q-64 -102 -159 -173q-97 -70 -214 -121q-116 -51 -234 -94q-9 -4 -18 -7q-40 43 -83 84q-50 48 -94 98q-44 49 -72 105q-28 55 -28 123t41 121q40 52 113 52q43 0 71 -22q28 -23 38 -59q6 -21 6 -43q0 -11 -1 -22
q-2 -12 -2 -17q0 -8 5 -13t14 -5q17 0 20 16q3 21 3 41q0 78 -53 128q-70 58 -144 58q-114 0 -182 -75q-66 -72 -69 -178q-84 -145 -193 -261q-110 -116 -250 -185t-318 -69q-127 0 -226 39q-99 38 -176 105q-78 67 -140 155q107 56 192 137q85 80 135 185q50 104 50 229
q0 87 -43 153q-42 65 -113 102q-71 36 -155 36q-97 0 -190 -31q-94 -31 -180 -75q-7 -4 -10 -11q-1 -3 -1 -5q0 -5 3 -10q4 -8 11 -10q3 -1 7 -1t8 2q81 41 171 71q89 30 181 30q73 0 135 -31t99 -87q37 -57 37 -133q0 -118 -48 -216t-129 -174t-183 -129q-59 88 -108 186
q-50 98 -96 197q-54 118 -111 227q-57 108 -125 194q-69 85 -156 136q-88 50 -205 50q-99 0 -172 -57q-74 -58 -114 -146q-41 -88 -41 -180q0 -304 222 -540q92 -94 213 -155t253 -61q208 0 427 99zM6517 582q-155 25 -265 122q-152 131 -152 309q0 86 59 135q59 48 145 48
q99 -4 158 -83q71 -88 71 -295q0 -128 -16 -236zM4772 845q54 0 84 -36q31 -36 31 -88q0 -59 -39 -94q-40 -36 -98 -36q-101 2 -162 50q11 62 35 105q52 96 149 99zM2766 156q42 -50 84 -122q41 -72 41 -201q0 -142 -62 -238q-62 -97 -168 -97q-112 0 -161 84
q-50 84 -50 199q0 136 92 227q91 91 224 148zM1092 430q-208 -92 -404 -92q-123 0 -237 58q-115 57 -201 146q-210 224 -210 512q0 81 35 160t100 131q64 52 152 52q107 0 189 -48t146 -130t119 -186q55 -105 107 -219q46 -99 96 -197q49 -98 108 -187z" />
    <glyph glyph-name=".notdef" horiz-adv-x="2066" 
d="M1153 1433q-127 -32 -208 -119q-27 -30 -73 -97q-50 -76 -72 -102q-68 -82 -111 -116q-68 -54 -145 -54q-61 0 -104 31q-49 34 -58 95q-2 14 -2 30q0 54 27 100q37 63 104 75q17 3 31 3q22 0 41 -7q34 -15 35 -56q-9 10 -23 10q-11 0 -20 -8q-11 -10 -11 -22
q0 -28 31 -28h2q31 0 48 34q9 18 9 35q0 18 -8 36q-15 37 -48 54q-38 20 -91 20q-13 0 -26 -1q-112 -10 -181 -91v178h853zM300 913q66 -67 176 -67q16 0 33 2q91 7 214 128q33 33 94 98q54 59 75 78q55 51 113 51q31 0 62 -15q93 -42 187 -42q63 0 127 19q125 37 234 135
q-14 -165 -125 -306q-21 -26 -231 -240h-57q-42 0 -70 33l-90 -88h163q-198 -214 -233 -382q-9 -45 -9 -86q0 -67 24 -118q40 -81 140 -113h-202v701l38 20v33h-663v159zM542 699q80 0 112 -31q34 -33 34 -110v-558h-388v699h242zM747 701h37v-701h-37v701zM1415 0
q212 47 351 167v-167h-351zM1766 183q-134 -74 -253 -88q-24 -2 -47 -2q-83 0 -131 39q-46 37 -46 105q0 26 6 56q27 120 161 288q64 78 92 118h156v-48h62v-468zM1585 755q105 166 105 358q0 43 -6 88q-15 131 -18 131q7 50 100 79v-656h-181zM926 1047q-75 0 -126 -42
q-44 -38 -53 -94q-3 -15 -3 -28q0 -37 21 -63q27 -35 76 -35h18q60 7 78 61q5 16 5 28q0 37 -36 62q-31 22 -31 47q0 5 1 10q8 32 50 42v12z" />
    <glyph glyph-name=".null" horiz-adv-x="0" 
 />
    <glyph glyph-name=".null" horiz-adv-x="0" 
 />
    <glyph glyph-name="nonmarkingreturn" horiz-adv-x="508" 
 />
    <glyph glyph-name="space" unicode=" " horiz-adv-x="508" 
 />
    <glyph glyph-name="space" unicode="&#xa0;" horiz-adv-x="508" 
 />
    <glyph glyph-name="exclam" unicode="!" horiz-adv-x="621" 
d="M420 64q0 -53 -29 -92.5t-86 -39.5q-37 0 -60 16t-34 41t-11 51q0 53 30 91t85 38q53 0 79 -33t26 -72zM194 1176q4 452 138 452q36 0 62.5 -32.5t26.5 -83.5q0 -332 -42 -715t-42 -527q0 -26 -25 -26q-23 1 -23 28q0 76 -47.5 388t-47.5 516z" />
    <glyph glyph-name="quotedbl" unicode="&#x22;" horiz-adv-x="932" 
d="M200 1423q4 205 118 205q89 -2 89 -178q0 -65 -42 -272.5t-42 -285.5q0 -24 -25 -24q-23 1 -23 25q0 111 -37.5 274.5t-37.5 255.5zM525 1423q4 205 118 205q89 -2 89 -177q0 -65 -42 -272.5t-42 -286.5q0 -24 -25 -24q-23 1 -23 26q0 111 -37.5 274t-37.5 255z" />
    <glyph glyph-name="numbersign" unicode="#" horiz-adv-x="1197" 
d="M771 714q-28 -64 -57 -125l-24 -50h158q28 0 28 -28q0 -20 -24 -20h-184q-46 -102 -87 -202q-10 -23 -21 -49q-33 -87 -72 -159q-6 -10 -17 -10q-5 0 -10 3q-10 6 -10 17q0 5 3 10q38 70 70 154q10 26 20 49q39 96 80 187h-171q-44 -98 -81 -190q-10 -23 -21 -49
q-33 -87 -72 -159q-15 -22 -45 -22q-33 1 -34 25q0 8 4 17q38 70 70 154q10 26 20 49q37 89 75 175h-116q-25 0 -25 24q1 24 30 24h133q16 36 33 72q25 52 48 103h-164q-25 0 -25 24q1 24 30 24h180q37 81 68 159q10 23 21 49q33 87 72 159q15 22 45 22q33 -1 34 -25
q0 -8 -4 -17q-38 -70 -70 -154q-10 -26 -20 -49q-30 -73 -61 -144h171q35 80 68 159q10 23 21 49q33 87 72 159q6 10 17 10q5 0 10 -3q10 -6 10 -17q0 -5 -3 -10q-38 -70 -70 -154q-10 -26 -20 -49q-30 -73 -61 -144h110q28 0 28 -28q0 -20 -24 -20h-136zM646 539h-171
l34 72q24 51 47 103h171q-21 -46 -43 -93z" />
    <glyph glyph-name="dollar" unicode="$" horiz-adv-x="1040" 
d="M472 1260v467q0 32 25 32q23 0 23 -31v-467q66 -5 128 -57q53 -50 53 -128q0 -20 -3 -41q-3 -16 -20 -16q-9 0 -14 5t-5 13q0 5 1.5 16.5t1.5 22.5q0 22 -6 43q-10 36 -38 58.5t-71 22.5q-73 0 -113.5 -52.5t-40.5 -120.5t28 -123.5t72 -105t94 -97.5q43 -41 83 -84
l27 -32q45 -53 73 -114.5t30 -138.5q0 -97 -39 -174t-113 -122q-56 -34 -127 -43v-465q0 -31 -23 -31q-25 0 -25 32v461h-3q-69 0 -128.5 32t-96 89t-36.5 131q0 19 19 19q21 0 21 -19q0 -64 31 -105.5t79 -61t101 -19.5q69 0 113.5 37.5t65.5 94t21 113.5q0 69 -26.5 126
t-68.5 107l-27 31q-39 42 -80 82q-52 50 -98.5 102.5t-76.5 113.5t-30 137q0 112 69 187q58 64 150 73z" />
    <glyph glyph-name="percent" unicode="%" horiz-adv-x="1134" 
d="M431 935q-42 -47 -78 -47q-26 0 -67 47q-186 191 -186 342q0 130 129 132q103 0 148 -95q38 59 123 59q115 -1 115 -131q0 -125 -184 -307zM914 1456q7 11 19 11q5 0 11 -3q11 -7 11 -18q0 -5 -4 -10q-41 -73 -389.5 -843.5t-391.5 -845.5q-6 -10 -18 -10q-6 0 -11 3
q-11 6 -11 18q0 5 3 10q42 73 390 843t391 845zM632 -228q-168 155 -168 261q0 110 105 112q78 0 112 -51q41 81 135 81q118 -2 118 -112q0 -129 -169 -291q-38 -40 -62 -40q-33 0 -71 40z" />
    <glyph glyph-name="ampersand" unicode="&#x26;" horiz-adv-x="3807" 
d="M2127 1125q113 -216 149 -295q46 -99 96 -197q49 -98 108 -186q102 53 186 132t129 181t45 206q0 76 -37 132.5t-99 87.5t-135 31q-233 0 -442 -92zM1353 1156q0 191 99 286.5t228 95.5q229 0 391 -305q20 -39 38 -74q219 98 460 98q84 0 155 -36.5t113.5 -102
t42.5 -152.5q0 -111 -47 -219.5t-135 -192t-195 -139.5q62 -88 139.5 -155t176.5 -105.5t226 -38.5q178 0 318 69t249.5 185t194.5 262q7 11 16 11q6 0 11 -4q10 -8 10 -17q0 -5 -3 -10q-88 -152 -203 -272.5t-261.5 -191.5t-331.5 -71q-137 0 -242.5 41.5t-188 113.5
t-147.5 165q-203 -101 -397 -151q-17 -5 -30 -5q-15 0 -31 4q-248 70 -452 371q-46 68 -82 133q-177 -109 -339 -187q-173 -83 -356.5 -132.5t-380.5 -49.5q-145 0 -264 60t-190 170.5t-71 259.5q0 40 11 89.5t39.5 86t78.5 36.5q45 0 72 -30.5t39.5 -73t12.5 -79.5
q0 -70 -29.5 -147.5t-63.5 -139.5q-6 -10 -17 -10t-17 7q-4 5 -4 12q0 4 3 9q31 58 59.5 131t28.5 138q0 24 -8 58t-26 59.5t-50 25.5q-36 0 -55.5 -32t-27 -72.5t-7.5 -67.5q0 -138 66 -239.5t176 -156.5t244 -55q193 0 373 49.5t350 131.5q160 77 335 184
q-104 202 -104 372zM1491 806q62 39 124 80q209 131 448 251q6 3 13 6q-15 29 -31 61q-153 294 -365 294q-118 0 -202.5 -81t-84.5 -261q0 -161 98 -350zM1510 771q35 -63 80 -128q197 -286 419 -358q16 -5 31 -5q12 0 30 5q182 50 374 145q-58 89 -108 187t-95 197
q-36 79 -148 295q-9 -4 -17 -9q-232 -117 -440 -247q-61 -40 -126 -82z" />
    <glyph glyph-name="quotesingle" unicode="'" horiz-adv-x="607" 
d="M200 1423q4 205 118 205q89 -2 89 -178q0 -65 -42 -272.5t-42 -285.5q0 -24 -25 -24q-23 1 -23 25q0 111 -37.5 274.5t-37.5 255.5z" />
    <glyph glyph-name="parenleft" unicode="(" horiz-adv-x="3934" 
d="M2594 397q-218 -99 -426 -99q-132 0 -253.5 61t-212.5 155q-59 61 -104 132q-163 -102 -335.5 -185t-356 -133t-380.5 -50q-145 0 -264 60.5t-190.5 170.5t-71.5 260q0 111 45 204t128.5 148t200.5 55q97 0 176 -47t126.5 -126.5t47.5 -175.5q0 -158 -128 -270
q-5 -5 -12 -5h-2q-8 1 -13 7t-5 13v2q1 8 7 13q113 100 113 240q0 128 -90.5 219t-219.5 91q-106 0 -180.5 -50t-114 -134t-39.5 -184q0 -139 66 -240t176 -156t244 -55q193 0 373 49t349.5 131t329.5 182q-98 175 -98 374q0 92 40.5 180t113.5 145.5t172 57.5
q106 0 188 -42t146.5 -114t118.5 -165q114 62 225.5 101.5t211.5 39.5q85 0 155.5 -36.5t113.5 -102t43 -152.5q0 -125 -50.5 -229.5t-135.5 -185t-192 -136.5q62 -88 140 -155t177 -105.5t225 -38.5q178 0 318.5 69t250 185t193.5 262q6 11 16 11q8 0 14 -5q7 -6 7 -14
q0 -6 -3 -12q-88 -152 -202.5 -272.5t-261 -191.5t-332.5 -71q-136 0 -241.5 41.5t-188.5 113.5t-148 165zM2571 430q-58 89 -107.5 187t-95.5 197q-60 131 -124 248q-199 -116 -366 -233q-62 -43 -115 -78q-65 -43 -131 -84q42 -67 98 -125q86 -89 200 -146.5t238 -57.5
q196 0 403 92zM2224 1097q-51 87 -111 154.5t-135 106.5t-172 39q-87 0 -151.5 -52t-100 -131t-35.5 -160q0 -188 93 -353q65 41 129 83q55 36 118 79q168 118 365 234zM2607 447q103 53 184 129t129 174t48 216q0 76 -37.5 132.5t-99 87.5t-135.5 31q-94 0 -200.5 -38
t-216.5 -98q64 -119 124 -251q47 -99 96.5 -197t107.5 -186z" />
    <glyph glyph-name="parenright" unicode=")" horiz-adv-x="4120" 
d="M3635 -323q-227 5 -419.5 128.5t-358.5 320t-313 419.5q-117 -71 -248.5 -108.5t-253.5 -37.5q-132 0 -253.5 61t-212.5 156q-59 61 -104 131q-163 -102 -335.5 -185t-356 -132.5t-380.5 -49.5q-145 0 -264 60t-190.5 170.5t-71.5 259.5q0 40 11.5 89.5t39.5 86t79 36.5
q44 0 71.5 -30.5t39.5 -73t12 -79.5q0 -70 -29.5 -147.5t-63.5 -139.5q-4 -8 -11 -10q-3 -1 -5 -1q-6 0 -11 3q-7 4 -9 11q-1 3 -1 7t2 8q32 58 60.5 131t28.5 138q0 24 -8 58t-26.5 59.5t-49.5 25.5q-36 0 -55.5 -32t-27 -72.5t-7.5 -67.5q0 -138 66 -239.5t176 -156.5
t244 -55q193 0 373 49.5t349.5 131t329.5 181.5q-98 176 -98 375q0 91 40.5 179t113.5 145.5t172 57.5q80 0 156 -40.5t150.5 -112t149.5 -167.5q113 62 223.5 101t210.5 39q85 0 155.5 -36.5t113.5 -102t43 -152.5q0 -106 -39.5 -198t-108 -168t-156.5 -135
q143 -220 304.5 -411.5t347.5 -312t405 -126.5q191 4 318.5 132.5t127.5 319.5q-8 133 -97 219.5t-221 91.5q-133 -3 -221.5 -90.5t-91.5 -220.5q0 -72 33 -138q2 -5 2 -9q0 -3 -1 -6q-3 -8 -10 -12q-5 -2 -9 -2q-3 0 -6 1q-8 3 -12 10q-37 75 -37 156q4 149 103.5 248.5
t249.5 101.5q149 -4 249 -102t108 -248q0 -208 -138 -347.5t-347 -143.5zM2556 599q83 55 147 126.5t101.5 157.5t37.5 184q0 76 -37.5 132.5t-99 88t-135.5 31.5q-92 0 -197 -37t-213 -95q137 -186 280 -411q57 -88 116 -177zM1528.5 1446q-64.5 -52 -100 -131t-35.5 -159
q0 -188 93 -354q65 41 129 84q55 36 118 79q169 119 368 234q-70 90 -139.5 157t-139.5 104.5t-142 37.5q-87 0 -151.5 -52zM2125 1167q-203 -117 -373 -237q-62 -43 -115 -78q-65 -42 -131 -84q42 -67 98 -125q86 -89 200 -146.5t238 -57.5q116 0 241.5 36t238.5 103
q-62 94 -122 186q-141 223 -275 403z" />
    <glyph glyph-name="asterisk" unicode="*" horiz-adv-x="1038" 
d="M575 934q-61 -71 -112 -72q-38 0 -97 72q-266 292 -266 523q0 199 185 201q148 0 212 -144q54 90 176 90q165 -2 165 -200q0 -191 -263 -470z" />
    <glyph glyph-name="plus" unicode="+" horiz-adv-x="3807" 
d="M1353 1156q0 191 99 286.5t228 95.5q229 0 391 -305q20 -39 38 -74q219 98 460 98q84 0 155 -36.5t113.5 -102t42.5 -152.5q0 -111 -47 -219.5t-135 -192t-195 -139.5q62 -88 139.5 -155t176.5 -105.5t226 -38.5q178 0 318 69t249.5 185t194.5 262q7 11 16 11q6 0 11 -4
q10 -8 10 -17q0 -5 -3 -10q-88 -152 -203 -272.5t-261.5 -191.5t-331.5 -71q-137 0 -242.5 41.5t-188 113.5t-147.5 165q-203 -101 -397 -151q-17 -5 -30 -5q-15 0 -31 4q-248 70 -452 371q-46 68 -82 133q-177 -109 -339 -187q-173 -83 -356.5 -132.5t-380.5 -49.5
q-145 0 -264 60t-190 170.5t-71 259.5q0 40 11 89.5t39.5 86t78.5 36.5q45 0 72 -30.5t39.5 -73t12.5 -79.5q0 -70 -29.5 -147.5t-63.5 -139.5q-6 -10 -17 -10t-17 7q-4 5 -4 12q0 4 3 9q31 58 59.5 131t28.5 138q0 24 -8 58t-26 59.5t-50 25.5q-36 0 -55.5 -32t-27 -72.5
t-7.5 -67.5q0 -138 66 -239.5t176 -156.5t244 -55q193 0 373 49.5t350 131.5q160 77 335 184q-104 202 -104 372zM1510 771q35 -63 80 -128q197 -286 419 -358q16 -5 31 -5q12 0 30 5q182 50 374 145l36 17q102 53 186 132t129 181t45 206q0 76 -37 132.5t-99 87.5t-135 31
q-233 0 -442 -92q-19 -9 -26 -9q-11 0 -25 27q-15 29 -31 61q-153 294 -365 294q-118 0 -202.5 -81t-84.5 -261q0 -161 98 -350zM2034 747h-153q-46 1 -46 39q0 41 50 41h149v149q0 50 41 50q38 0 39 -46v-153h149q50 0 50 -41q0 -38 -46 -39h-153v-153q-1 -46 -39 -46
q-41 0 -41 50v149z" />
    <glyph glyph-name="comma" unicode="," horiz-adv-x="596" 
d="M200 -22q-4 0 -9 -6q-29 -40 -86 -40q-37 0 -60 16t-34 41t-11 51q0 53 35 90.5t90 37.5q79 0 125 -79t46 -209q0 -178 -71 -328t-178.5 -275.5t-225.5 -196.5q-5 -3 -10 -3q-11 1 -17 10q-3 5 -3 10q0 11 10 17q111 67 214.5 187.5t162.5 254t59 264.5q0 93 -29 152
q-3 6 -8 6z" />
    <glyph glyph-name="hyphen" unicode="-" horiz-adv-x="1197" 
d="M308 474q-25 0 -25 24q1 24 30 24h590q28 0 28 -28q0 -20 -24 -20h-599z" />
    <glyph glyph-name="hyphen" unicode="&#xad;" horiz-adv-x="1197" 
d="M308 474q-25 0 -25 24q1 24 30 24h590q28 0 28 -28q0 -20 -24 -20h-599z" />
    <glyph glyph-name="period" unicode="." horiz-adv-x="520" 
d="M220 64q0 -53 -29 -92.5t-86 -39.5q-37 0 -60 16t-34 41t-11 51q0 53 30 90.5t85 37.5q53 0 79 -32.5t26 -71.5z" />
    <glyph glyph-name="slash" unicode="/" horiz-adv-x="946" 
d="M774 1399q6 10 17 10q5 0 10 -3q10 -6 10 -17q0 -5 -3 -10q-38 -70 -355 -810t-356 -812q-6 -10 -17 -10q-5 0 -10 3q-10 6 -10 17q0 5 3 10q38 70 355 810t356 812z" />
    <glyph glyph-name="zero" unicode="0" horiz-adv-x="3574" 
d="M2046 661q156 -96 320.5 -173t339.5 -123.5t362 -46.5q50 0 97 8q-80 68 -143.5 147.5t-101 171.5t-37.5 197q0 147 96 240.5t240 93.5q118 0 201.5 -55t128 -148t44.5 -204q0 -116 -43.5 -209t-120 -157t-176.5 -97q168 -122 330 -205q10 -5 10 -19q0 -8 -5.5 -13.5
t-13.5 -5.5q-5 0 -10 3q-179 92 -359 227q-66 -15 -137 -15q-193 0 -372 47.5t-347.5 127t-328.5 178.5q-106 -115 -221 -198q-5 -4 -12 -4q-6 0 -12 4q-114 83 -221 198q-160 -99 -328.5 -178.5t-347.5 -127t-372 -47.5q-71 0 -137 15q-179 -135 -359 -227q-5 -3 -10 -3
q-19 1 -19 21q0 11 11 17q162 83 330 205q-100 33 -176.5 97t-120.5 157t-44 209q0 111 44.5 204t128.5 148t201 55q145 0 241 -93.5t96 -240.5q0 -105 -37.5 -197t-101 -171.5t-144.5 -147.5q47 -8 97 -8q188 0 362.5 46.5t339 123.5t320.5 173q-73 86 -120 185t-47 208
q0 63 21 118.5t65 90t113 34.5q68 0 130 -34t97 -94q35 60 97.5 94t130.5 34t112 -34.5t65 -90t21 -118.5q0 -109 -46.5 -208t-120.5 -185zM1986 652q-101 62 -199 128q-98 -66 -198 -128q96 -103 198 -179q102 76 199 179zM2012 682q71 82 116 176t45 196q0 51 -15.5 97.5
t-50.5 76t-92 29.5q-67 0 -127 -38.5t-82 -105.5q-6 -14 -19 -14t-19 14q-22 67 -82 105.5t-126 38.5q-57 0 -92 -29.5t-51 -76t-16 -97.5q0 -102 45 -196t116 -176q109 67 214 138q6 4 11 4q6 0 11 -4q106 -71 214 -138zM360 337q82 66 148 143.5t105 168t39 193.5
q0 131 -84.5 213t-212.5 82q-106 0 -181 -50t-114 -134t-39 -184q0 -112 44 -200t120 -147t175 -85zM3215 337q98 26 174.5 85t120 147t43.5 200q0 100 -39 184t-113.5 134t-181.5 50q-128 0 -212.5 -82t-84.5 -213q0 -103 39.5 -193.5t105 -168t148.5 -143.5z" />
    <glyph glyph-name="one" unicode="1" horiz-adv-x="3325" 
d="M2337 456q-16 -27 -34 -53q-45 -70 -116.5 -155t-159 -164t-181.5 -131t-184 -52q-89 0 -183 52t-181.5 131t-159 164t-116.5 155q-18 26 -34 53q-129 -89 -267 -154t-291.5 -101t-327.5 -36q-110 0 -218 33.5t-195.5 97.5t-140.5 158t-53 216q0 124 87.5 211.5
t211.5 87.5q127 0 222 -99q5 -5 5 -13t-7 -15q-5 -5 -12 -5h-2q-8 0 -14 6q-82 86 -192 86q-107 0 -183 -76t-76 -183q0 -113 50 -199.5t132 -145.5t183 -89.5t202 -30.5q174 0 326 37.5t286 102t253 147.5q-63 109 -103.5 231t-40.5 243q0 72 18 141.5t56 125.5t97 89.5
t140 33.5q93 0 181 -33.5t174 -91.5t173 -134q88 76 174 134t174 91.5t181 33.5q81 0 140 -33.5t97 -89.5t56 -125.5t18 -141.5q0 -121 -40.5 -243t-103.5 -231q119 -83 253 -147.5t286 -102t326 -37.5q101 0 202 30.5t183 89.5t132 145.5t50 199.5q0 107 -76 183t-183 76
q-110 0 -192 -86q-6 -6 -14 -6h-2q-6 0 -12 5q-7 6 -7 14q0 9 5 14q95 99 222 99q124 0 211.5 -87.5t87.5 -211.5q0 -122 -53 -216t-140.5 -158t-195.5 -97.5t-218 -33.5q-174 0 -327.5 36t-292 101t-266.5 154zM2305 479q-165 119 -323 267q-51 47 -109 103
q-98 97 -211 197q-113 -100 -210 -197q-58 -56 -109 -103q-158 -148 -323 -267q17 -28 35 -55q42 -64 110 -145.5t152 -158.5t173.5 -128t171.5 -51q83 0 172.5 51t173.5 128t152 158.5t110 145.5q18 27 35 55zM1633 1071q-106 91 -216.5 157t-218.5 84q-32 4 -64 4
q-72 0 -124 -30.5t-84.5 -81t-48 -113t-15.5 -125.5q0 -115 39 -231t98 -220q124 90 235.5 189t214.5 197q94 90 184 170zM2325 515q60 104 99 220t39 231q0 63 -15.5 125.5t-48.5 113t-84.5 81t-123.5 30.5q-32 0 -64 -4q-108 -18 -218.5 -84t-216.5 -157q90 -80 184 -170
q103 -98 214.5 -197t234.5 -189z" />
    <glyph glyph-name="two" unicode="2" horiz-adv-x="2792" 
d="M1396 837q-12 -21 -30.5 -35t-45.5 -14q-32 0 -51.5 19.5t-28 48t-8.5 55.5q0 88 36.5 172.5t99.5 151.5q-52 47 -115.5 75t-133.5 28q-90 0 -136.5 -59t-46.5 -145q0 -137 61.5 -266t165 -242.5t233.5 -202.5q130 89 234 202.5t165 242.5t61 266q0 86 -46.5 145
t-136.5 59q-70 0 -133 -28t-116 -75q63 -67 99.5 -151.5t36.5 -172.5q0 -27 -8.5 -55.5t-28 -48t-51.5 -19.5q-27 0 -45.5 14t-30.5 35zM1396 1263q58 53 128.5 83.5t148.5 30.5q71 0 121 -32t76 -87.5t26 -123.5q0 -141 -61.5 -274.5t-166 -250.5t-236.5 -209
q147 -95 304.5 -149t298.5 -54q94 0 195 36t195 89.5t169 109.5q56 41 127.5 104.5t139 140.5t112.5 158.5t45 155.5q0 43 -30.5 73t-72.5 30q-44 0 -66 -22.5t-39 -58.5q-6 -11 -18 -11q-14 0 -19 13q-1 3 -1 6q0 5 2 10q22 47 53.5 75t87.5 28q59 0 100.5 -42t41.5 -101
q0 -80 -45.5 -166t-114.5 -166.5t-143.5 -147.5t-135.5 -111q-79 -59 -176.5 -114t-203 -92t-203.5 -37q-151 0 -317.5 58t-321.5 160q-155 -102 -321.5 -160t-316.5 -58q-99 0 -204.5 37t-203 92t-175.5 114q-61 44 -136 111t-144 147.5t-114.5 166.5t-45.5 166
q0 59 41.5 101t100.5 42q56 0 87.5 -28t53.5 -75q2 -5 2 -10q0 -3 -1 -6q-2 -7 -10 -11q-4 -2 -9 -2q-12 0 -18 11q-16 36 -38.5 58.5t-66.5 22.5q-42 0 -72.5 -30t-30.5 -73q0 -74 45 -155.5t112.5 -158.5t139 -140.5t127.5 -104.5q75 -56 169 -109.5t195 -89.5t196 -36
q140 0 297.5 54t304.5 149q-132 92 -236.5 209t-166 250.5t-61.5 274.5q0 68 26 123.5t76 87.5t121 32q78 0 148.5 -30.5t128.5 -83.5zM1396 1207q-124 -137 -124 -296q0 -15 4 -34.5t14.5 -34.5t29.5 -15t31 13.5t18 32t7 33.5q1 8 6.5 13t13.5 5t13.5 -5t6.5 -13
q1 -15 7.5 -33.5t18 -32t30.5 -13.5t29.5 15t14.5 34.5t4 34.5q0 159 -124 296z" />
    <glyph glyph-name="three" unicode="3" horiz-adv-x="960" 
d="M480 424q128 87 232 199t166 241.5t62 269.5q0 86 -46.5 145t-136.5 59q-70 0 -133.5 -28t-115.5 -75q63 -67 99.5 -151.5t36.5 -172.5q0 -27 -8.5 -55.5t-28 -48t-51.5 -19.5q-27 0 -46 14t-30 35q-11 -21 -30 -35t-46 -14q-32 0 -51.5 19.5t-28 48t-8.5 55.5
q0 88 36.5 172.5t99.5 151.5q-52 47 -115.5 75t-133.5 28q-90 0 -136.5 -59t-46.5 -145q0 -140 62 -269.5t166 -241.5t232 -199zM480 924q7 0 13 -5t7 -13q1 -15 7 -33.5t18 -32t31 -13.5t29.5 15t14.5 34.5t4 34.5q0 159 -124 296q-124 -137 -124 -296q0 -15 4 -34.5
t14.5 -34.5t29.5 -15t31 13.5t18 32t7 33.5q1 8 7 13t13 5zM480 1263q57 53 128 83.5t148 30.5q72 0 121.5 -32t76 -87.5t26.5 -123.5q0 -144 -62.5 -278t-167 -249.5t-235.5 -206.5q227 -144 448 -188q17 -4 17 -21q0 -7 -5.5 -12.5t-14.5 -5.5q-11 0 -40 8
q-219 51 -440 195q-221 -144 -440 -195q-29 -8 -40 -8q-10 0 -15 5.5t-5 12.5q0 17 17 21q221 44 448 188q-131 91 -235.5 206.5t-167 249.5t-62.5 278q0 68 26.5 123.5t76 87.5t121.5 32q77 0 148 -30.5t128 -83.5z" />
    <glyph glyph-name="four" unicode="4" horiz-adv-x="1482" 
d="M741 423q97 66 186.5 154t157.5 193l20 32q45 77 71 160.5t26 171.5q0 86 -47 145t-137 59q-70 0 -133.5 -28t-114.5 -75q61 -66 98 -150.5t37 -173.5q0 -27 -8.5 -55.5t-27.5 -48t-52 -19.5q-26 0 -45 14t-31 35q-12 -21 -31 -35t-45 -14q-33 0 -52 19.5t-27.5 48
t-8.5 55.5q0 89 37 173.5t98 150.5q-51 47 -114.5 75t-133.5 28q-90 0 -137 -59t-47 -145q0 -88 26 -171.5t71 -160.5l20 -32q68 -105 157.5 -193t186.5 -154zM741 924q8 0 13.5 -5t6.5 -13q2 -15 8 -33.5t17.5 -32t30.5 -13.5q20 0 30.5 15t14 34.5t3.5 34.5
q0 81 -34 158.5t-90 137.5q-56 -60 -90 -137.5t-34 -158.5q0 -15 3.5 -34.5t14 -34.5t30.5 -15q19 0 30.5 13.5t17.5 32t8 33.5q1 8 6.5 13t13.5 5zM741 1263q58 53 128.5 83.5t148.5 30.5q71 0 121 -32t76 -87.5t26 -123.5q0 -100 -31 -193q121 133 261 227q4 3 11 3
q20 -1 20 -20q0 -9 -9 -16q-99 -67 -192 -156.5t-162 -197.5l-20 -32q-45 -77 -71 -160.5t-26 -171.5q0 -87 46.5 -145.5t137.5 -58.5q70 0 133.5 27.5t114.5 74.5q-61 66 -98 150.5t-37 173.5q0 28 8.5 56.5t27.5 48t51 19.5q31 0 51 -18t31 -44t14 -52q0 -10 -5.5 -16
t-14.5 -6q-7 0 -12 4q-6 5 -7 13q-2 16 -8 34t-18 31.5t-31 13.5t-29.5 -14.5t-14.5 -34.5t-4 -35q0 -86 38.5 -167.5t99.5 -142.5q6 -6 6 -14q0 -9 -6 -14q-59 -59 -133 -93.5t-157 -34.5q-72 0 -121.5 32.5t-75.5 87.5t-26 124q0 99 30 193q-121 -134 -261 -227
q-6 -4 -11 -4t-11 4q-140 93 -261 227q30 -94 30 -193q0 -69 -26 -124t-75.5 -87.5t-121.5 -32.5q-83 0 -157 34.5t-133 93.5q-6 5 -6 14q0 8 6 14q61 61 99.5 142.5t38.5 167.5q0 15 -4 35t-14.5 34.5t-29.5 14.5t-31 -13.5t-18 -31.5t-8 -34q-1 -8 -7 -13q-5 -4 -12 -4
q-9 0 -14.5 6t-5.5 16q3 26 14 52t31 44t51 18q32 0 51 -19.5t27.5 -48t8.5 -56.5q0 -89 -37 -173.5t-98 -150.5q51 -47 114.5 -74.5t133.5 -27.5q91 0 137.5 58.5t46.5 145.5q0 88 -26 171.5t-71 160.5l-20 32q-69 108 -162 197.5t-192 156.5q-9 7 -9 16q0 19 20 20
q7 0 11 -3q140 -94 261 -227q-31 93 -31 193q0 68 26 123.5t76 87.5t121 32q78 0 148.5 -30.5t128.5 -83.5z" />
    <glyph glyph-name="five" unicode="5" horiz-adv-x="1128" 
d="M564 213q78 15 155 43q-83 68 -155 151q-72 -83 -154 -151q76 -28 154 -43zM564 469q33 41 60 85q-32 42 -60 87q-28 -45 -60 -87q28 -44 60 -85zM564 721q31 59 51 123q-33 67 -51 139q-18 -72 -50 -139q19 -64 50 -123zM0 879q43 0 73.5 -30.5t30.5 -73.5t-30.5 -73.5
t-73.5 -30.5v40q27 0 45.5 19t18.5 45q0 27 -18.5 46t-45.5 19v39zM264 318q50 -26 103 -46q92 74 171 166q-32 40 -60 83q-98 -115 -214 -203zM541 680q-31 55 -53 115q-27 -48 -59 -93q22 -58 53 -112q32 44 59 90zM455 557q-31 52 -54 107q-125 -156 -281 -264
q51 -33 105 -62q126 93 230 219zM1128 879v-39q-27 0 -45.5 -19t-18.5 -46q0 -26 18.5 -45t45.5 -19v-40q-43 0 -73.5 30.5t-30.5 73.5t30.5 73.5t73.5 30.5zM864 318q-116 88 -214 203q-28 -43 -60 -83q79 -92 172 -166q52 20 102 46zM587 680q27 -46 59 -90q31 54 53 112
q-32 45 -59 93q-22 -60 -53 -115zM673 557q104 -126 230 -219q55 29 105 62q-156 108 -281 264q-23 -55 -54 -107zM586 177q-18 -4 -22 -4t-22 4q-253 57 -468 206q-9 6 -9 17q0 10 9 16q88 59 171 136.5t150.5 170t107.5 196t40 215.5q0 86 -46 145t-136 59
q-70 0 -133.5 -28t-115.5 -75q62 -66 99 -150.5t37 -173.5q0 -36 -15 -72t-50 -48v-16q0 -76 -53.5 -129.5t-129.5 -53.5v39q60 0 102 42.5t42 101.5q0 60 -42 102t-102 42v40q62 0 109 -36t66 -93q19 11 26 36.5t7 44.5q0 86 -38 167.5t-100 143.5q-6 5 -6 14q0 8 6 14
q59 58 133.5 92.5t157.5 34.5q76 0 127.5 -37t75.5 -99q24 62 75.5 99t127.5 37q83 0 157.5 -34.5t133.5 -92.5q6 -6 6 -14q0 -9 -6 -14q-62 -62 -100 -143.5t-38 -167.5q0 -19 7 -44.5t26 -36.5q19 57 66 93t109 36v-40q-60 0 -102 -42t-42 -102q0 -59 42 -101.5t102 -42.5
v-39q-76 0 -129.5 53.5t-53.5 129.5v16q-35 12 -50 48t-15 72q0 89 37 173.5t99 150.5q-52 47 -115 75t-134 28q-90 0 -136 -59t-46 -145q0 -112 40.5 -215.5t107.5 -196t150.5 -170t170.5 -136.5q9 -6 9 -16q0 -11 -9 -17q-215 -149 -468 -206z" />
    <glyph glyph-name="six" unicode="6" horiz-adv-x="2256" 
d="M1128 631q60 0 102 42.5t42 101.5q0 60 -42 102t-102 42q-59 0 -101 -42t-42 -102q0 -59 42 -101.5t101 -42.5zM1847 256q-83 68 -155 151q-71 -83 -154 -151q76 -28 154 -43q78 15 155 43zM1753 554q-33 42 -61 87q-27 -45 -60 -87q28 -44 60 -85q33 41 61 85zM1743 844
q-33 67 -51 139q-18 -72 -50 -139q19 -64 50 -123q31 59 51 123zM1128 840q-26 0 -45 -19t-19 -46q0 -26 19 -45t45 -19q27 0 46 19t19 45q0 27 -19 46t-46 19zM1128 671q-43 0 -73.5 30.5t-30.5 73.5t30.5 73.5t73.5 30.5q44 0 74.5 -30.5t30.5 -73.5t-30.5 -73.5
t-74.5 -30.5zM1392 318q51 -26 103 -46q92 74 172 166q-33 40 -61 83q-97 -115 -214 -203zM1670 680q-32 55 -53 115q-27 -48 -60 -93q22 -58 53 -112q32 44 60 90zM1584 557q-31 52 -54 107q-126 -156 -282 -264q51 -33 105 -62q126 93 231 219zM2256 879v-39
q-26 0 -45 -19t-19 -46q0 -26 19 -45t45 -19v-40q-43 0 -73.5 30.5t-30.5 73.5t30.5 73.5t73.5 30.5zM1779 521q-28 -43 -61 -83q80 -92 172 -166q52 20 103 46q-117 88 -214 203zM1775 590q31 54 52 112q-32 45 -59 93q-22 -60 -53 -115q27 -46 60 -90zM2032 338
q54 29 104 62q-155 108 -281 264q-23 -55 -54 -107q104 -126 231 -219zM564 1337q-78 -15 -154 -42q83 -69 154 -152q72 83 155 152q-77 27 -155 42zM564 1081q-32 -41 -60 -85q33 -42 60 -86q28 44 61 86q-28 44 -61 85zM564 830q-30 -60 -50 -123q32 -68 50 -140
q19 72 51 140q-20 63 -51 123zM0 671v40q27 0 46 19t19 45q0 27 -19 46t-46 19v39q44 0 74.5 -30.5t30.5 -73.5t-30.5 -73.5t-74.5 -30.5zM478 1029q28 43 61 84q-80 92 -172 166q-52 -21 -103 -46q117 -88 214 -204zM482 960q-31 -54 -53 -111q33 -45 60 -93q22 59 53 115
q-27 46 -60 89zM225 1213q-54 -29 -105 -62q156 -109 282 -265q23 55 54 108q-105 126 -231 219zM865 1233q-51 25 -103 46q-92 -74 -172 -166q33 -41 61 -84q97 116 214 204zM587 871q31 -56 53 -115q27 48 59 93q-21 57 -52 111q-33 -43 -60 -89zM673 994q31 -53 54 -108
q126 156 281 265q-50 33 -104 62q-127 -93 -231 -219zM1751 186q-45 -13 -58 -13q-14 0 -59 13q-232 59 -432 197q-9 6 -9 17q1 10 9 16q88 59 171 136.5t150.5 170t107.5 196t40 215.5q0 86 -45.5 145t-136.5 59q-70 0 -133.5 -28t-114.5 -75q61 -66 98 -150.5t37 -173.5
q0 -36 -15 -72t-50 -48q1 -8 1 -16q0 -76 -54 -129.5t-130 -53.5q-61 0 -108.5 35.5t-66.5 92.5q-19 -10 -26 -35.5t-7 -45.5q0 -86 38.5 -167.5t99.5 -142.5q6 -6 6 -14q0 -9 -6 -14q-58 -59 -132.5 -93.5t-157.5 -34.5q-77 0 -128.5 37t-75.5 99q-23 -62 -74.5 -99
t-128.5 -37q-83 0 -157.5 34.5t-133.5 93.5q-5 5 -5 14q0 8 5 14q62 61 100 142.5t38 167.5q0 20 -6.5 45.5t-26.5 35.5q-18 -57 -65.5 -92.5t-109.5 -35.5v39q60 0 102 42.5t42 101.5q0 60 -42 102t-102 42v40q76 0 130 -54t54 -130q0 -8 -1 -15q35 -13 50 -49t15 -72
q0 -89 -37 -173.5t-98 -150.5q51 -47 114.5 -74.5t133.5 -27.5q91 0 137 59t46 145q0 111 -40.5 215t-108 196t-150.5 169.5t-171 136.5q-8 6 -9 17q0 10 9 16q212 147 460 204q27 6 31 6q3 0 30 -6q248 -57 460 -204q8 -6 9 -16q-1 -11 -9 -17q-88 -59 -171.5 -136.5
t-150.5 -169.5t-107.5 -196t-40.5 -215q0 -86 46 -145t137 -59q70 0 133.5 27.5t114.5 74.5q-61 66 -98 150.5t-37 173.5q0 36 14.5 72t50.5 49q-1 7 -1 15q0 76 53.5 130t129.5 54q62 0 109.5 -36t65.5 -93q20 11 26.5 36.5t6.5 44.5q0 86 -38 167.5t-100 143.5q-5 5 -5 14
q0 8 5 14q59 58 133.5 92.5t157.5 34.5q77 0 128.5 -37t74.5 -99q24 62 75.5 99t128.5 37q83 0 157 -34.5t133 -92.5q6 -6 6 -14q0 -9 -6 -14q-61 -62 -99.5 -143.5t-38.5 -167.5q0 -19 7 -44.5t26 -36.5q19 57 66.5 93t108.5 36v-40q-59 0 -101 -42t-42 -102
q0 -59 42 -101.5t101 -42.5v-39q-76 0 -129.5 53.5t-53.5 129.5q0 8 1 16q-36 12 -50.5 48t-14.5 72q0 89 37 173.5t98 150.5q-51 47 -114.5 75t-133.5 28q-91 0 -137 -59t-46 -145q0 -112 40.5 -215.5t107.5 -196t150.5 -170t171.5 -136.5q8 -6 8 -16q0 -11 -8 -17
q-200 -138 -432 -197z" />
    <glyph glyph-name="seven" unicode="7" horiz-adv-x="960" 
d="M36 400q51 -33 105 -62q126 93 231 219q-31 52 -55 107q-125 -156 -281 -264zM398 590q32 44 59 89q-31 56 -53 116q-26 -48 -59 -94q22 -57 53 -111zM480 721q31 59 51 123q-33 67 -51 139q-18 -72 -50 -139q19 -64 50 -123zM781 317q-117 89 -214 204q-29 -43 -61 -83
q79 -92 172 -166q52 20 103 45zM541 554q-33 42 -61 87q-28 -45 -60 -87q28 -44 60 -85q33 41 61 85zM503 679q27 -45 60 -89q30 54 52 111q-32 46 -59 94q-22 -60 -53 -116zM589 557q104 -126 231 -219q54 29 104 62q-155 108 -281 264q-23 -55 -54 -107zM635 256
q-83 68 -155 151q-72 -83 -154 -151q76 -28 154 -43q78 15 155 43zM455 438q-33 40 -61 83q-98 -115 -214 -204q50 -25 103 -45q92 73 172 166zM528 183q-40 -10 -47 -10t-48 10q-239 59 -443 200q-9 6 -9 17q0 10 9 16q88 59 171 136.5t150.5 170t107.5 196t40 215.5
q0 86 -46 145t-136 59q-70 0 -133.5 -28t-115.5 -75q62 -66 99 -150.5t37 -173.5q0 -27 -8.5 -55.5t-27.5 -48t-52 -19.5q-30 0 -50.5 17.5t-31.5 43.5t-13 53v3q1 19 17 19q8 0 14.5 -5t7.5 -13q2 -15 8 -33.5t17.5 -32t30.5 -13.5q20 0 30 15t14 34.5t4 34.5
q0 86 -38 167.5t-100 142.5q-6 6 -6 15q0 8 6 14q59 58 133.5 92.5t157.5 34.5q77 0 128.5 -37t74.5 -99q24 62 75.5 99t128.5 37q83 0 157 -34.5t133 -92.5q6 -6 6 -14q0 -9 -6 -15q-62 -61 -100 -142.5t-38 -167.5q0 -15 4 -34.5t14.5 -34.5t29.5 -15t31 13.5t18 32
t8 33.5q1 8 7 13t15 5q16 -1 17 -19v-3q-3 -27 -14 -53t-31 -43.5t-51 -17.5q-32 0 -51.5 19.5t-27.5 48t-8 55.5q0 89 37 173.5t98 150.5q-52 47 -115 75t-133 28q-91 0 -137 -59t-46 -145q0 -112 40.5 -215.5t107.5 -196t150.5 -170t171.5 -136.5q8 -6 8 -16q0 -11 -8 -17
q-205 -141 -443 -200z" />
    <glyph glyph-name="eight" unicode="8" horiz-adv-x="2191" 
d="M111 917q31 0 53 -22t22 -53t-22 -53t-53 -22t-52.5 22t-21.5 53q0 19 9 36q-71 51 -155 51q-108 0 -183.5 -76t-75.5 -183q0 -121 57 -212t149 -150t202 -84q104 34 198.5 99t175.5 138q109 96 214 198q98 93 198 183q170 153 349.5 267.5t380.5 180t436 65.5
q110 0 218 -33.5t195.5 -97.5t140.5 -158t53 -216q0 -123 -87.5 -211t-211.5 -88q-100 0 -182 63q-17 -11 -38 -11q-31 0 -53 22t-22 53t22 53t53 22t53 -22t22 -53q0 -19 -9 -36q70 -51 154 -51q108 0 184 76t76 183q0 122 -57.5 213t-150 149.5t-202.5 84.5
q-104 -35 -198 -101t-175 -138q-108 -96 -212 -196q-99 -94 -201 -186q-170 -151 -349.5 -266t-380 -180t-435.5 -65q-110 0 -218 33.5t-195.5 97.5t-140.5 158t-53 216q0 124 87.5 211.5t211.5 87.5q100 0 182 -63q18 11 38 11zM554 373q91 82 179 167q98 93 198 184
q159 142 333 253.5t375 170.5q-91 -82 -179 -166q-99 -95 -201 -187q-158 -142 -331.5 -252.5t-373.5 -169.5zM991.5 632.5q125.5 89.5 241.5 192.5q102 91 201 186q16 16 32 31q-140 -65 -266 -154.5t-242 -193.5q-101 -90 -199 -184q-16 -16 -32 -31q139 64 264.5 153.5z
M266 246q106 71 200 155q109 97 215 198q97 94 198 184q230 209 483.5 341t562.5 150q-106 -71 -201 -156q-107 -96 -211 -196q-99 -95 -201 -186q-230 -209 -483.5 -340.5t-562.5 -149.5zM875.5 465.5q214.5 123.5 409.5 300.5q102 91 201 186q104 100 212 195q43 38 87 73
q-255 -42 -469.5 -165.5t-410.5 -301.5q-101 -90 -198 -184q-105 -101 -215 -198q-41 -36 -84 -71q253 42 467.5 165.5zM117 210q41 -5 82 -5q230 0 426 64t371.5 176.5t341.5 260.5q102 91 201 186q104 100 212 196q71 63 152 122.5t171 99.5q-41 5 -82 5q-230 0 -426 -64
t-371.5 -177t-341.5 -261q-101 -91 -199 -184q-105 -101 -214 -198q-71 -64 -152.5 -122.5t-170.5 -98.5z" />
    <glyph glyph-name="nine" unicode="9" horiz-adv-x="5935" 
d="M1115 193q16 -15 32 -31q98 -94 199 -184q116 -104 242 -193.5t266 -154.5q-16 15 -32 31q-99 95 -201 186q-116 103 -241.5 192.5t-264.5 153.5zM4820 781q-16 16 -32 31q-98 94 -199 184q-116 104 -242 193.5t-266 154.5l32 -30q99 -95 201 -187q116 -103 241.5 -192
t264.5 -154zM4314 -153q-102 -91 -201 -186q-16 -15 -32 -31q140 65 266 155t242 194q101 90 199 184q16 15 32 31q-139 -65 -264.5 -154t-241.5 -193zM1621 1127q102 91 201 186q16 16 32 31q-140 -65 -266 -154.5t-242 -193.5q-101 -90 -199 -184q-16 -16 -32 -31
q139 64 264.5 153.5t241.5 192.5zM942 299q200 -59 373.5 -169.5t331.5 -252.5q102 -92 201 -186q88 -85 179 -167q-201 59 -375 170.5t-333 254.5q-100 90 -198 183q-88 85 -179 167zM4993 675q-200 59 -373.5 169.5t-331.5 253.5q-102 91 -201 186q-88 84 -179 166
q201 -59 375 -170t333 -254q100 -90 198 -184q88 -85 179 -167zM4993 300q-91 -82 -179 -167q-98 -94 -198 -184q-159 -143 -333 -254t-375 -170q91 82 179 166q99 95 201 186q158 142 331.5 253t373.5 170zM942 675q91 82 179 167q98 93 198 183q159 143 333 254.5
t375 170.5q-91 -82 -179 -167q-99 -94 -201 -186q-158 -142 -331.5 -252.5t-373.5 -169.5zM796 372q43 -35 84 -71q110 -97 215 -198q97 -94 198 -184q196 -178 410.5 -301.5t469.5 -165.5q-44 35 -87 73q-108 95 -212 195q-99 95 -201 187q-195 176 -409.5 299.5
t-467.5 165.5zM5139 602q-43 35 -84 72q-110 96 -215 198q-97 93 -198 184q-196 177 -410.5 300.5t-469.5 165.5q44 -35 87 -72q108 -96 212 -196q99 -95 201 -186q195 -177 409.5 -300.5t467.5 -165.5zM4262 -93q-102 -91 -201 -186q-104 -100 -212 -196q-43 -37 -87 -73
q255 42 469.5 166t410.5 301q101 90 198 184q105 101 215 198q41 37 84 71q-253 -42 -467.5 -165t-409.5 -300zM1673 1067q102 92 201 187q104 100 212 195q43 38 87 73q-255 -42 -469.5 -165.5t-410.5 -301.5q-101 -90 -198 -184q-105 -101 -215 -198q-41 -36 -84 -71
q253 42 467.5 165.5t409.5 299.5zM654 426q309 -18 562.5 -149.5t483.5 -340.5q102 -91 201 -186q104 -100 211 -195q95 -86 201 -157q-309 18 -562.5 150t-483.5 341q-101 90 -198 184q-106 101 -215 198q-94 84 -200 155zM5281 549q-309 17 -562.5 149t-483.5 340
q-102 91 -201 186q-104 100 -212 196q-94 85 -200 156q309 -17 562.5 -149.5t483.5 -341.5q101 -90 198 -184q106 -101 215 -198q94 -84 200 -154zM5281 426q-106 -70 -200 -155q-109 -96 -215 -198q-97 -93 -198 -183q-230 -210 -483.5 -342t-562.5 -149q106 71 200 156
q108 96 212 196q99 94 201 186q230 208 483.5 340t562.5 149zM654 548q106 71 200 155q109 97 215 198q97 94 198 184q230 209 483.5 341t562.5 150q-106 -71 -201 -157q-107 -95 -211 -195q-99 -95 -201 -186q-230 -209 -483.5 -340.5t-562.5 -149.5zM505 462
q89 -40 170.5 -98.5t152.5 -122.5q109 -97 214 -198q98 -93 199 -184q166 -148 341.5 -261t371.5 -177t426 -64q41 0 82 5q-90 40 -171 99.5t-152 122.5q-108 96 -212 196q-99 95 -201 186q-166 148 -341.5 260.5t-371.5 176.5t-426 64q-41 0 -82 -5zM5430 512
q-89 40 -170.5 99t-152.5 122q-109 97 -214 198q-98 94 -199 184q-166 149 -341.5 261.5t-371.5 176.5t-426 64q-41 0 -82 -5q90 -40 171 -99t152 -123q108 -96 212 -195q99 -95 201 -187q166 -148 341.5 -260.5t371.5 -176.5t426 -64q41 0 82 5zM5348 467
q-230 0 -426 -63.5t-371.5 -176t-341.5 -261.5q-102 -91 -201 -186q-104 -100 -212 -195q-71 -64 -152 -123t-171 -100q41 -4 82 -4q230 0 426 64t371.5 176.5t341.5 261.5q101 90 199 184q105 101 214 198q71 63 152.5 122t170.5 98q-41 5 -82 5zM505 512q41 -5 82 -5
q230 0 426 64t371.5 176.5t341.5 260.5q102 91 201 186q104 100 212 196q71 63 152 122.5t171 99.5q-41 5 -82 5q-230 0 -426 -64t-371.5 -177t-341.5 -261q-101 -91 -199 -184q-105 -101 -214 -198q-71 -64 -152.5 -122.5t-170.5 -98.5zM2967 1044q-22 -57 -68 -104
q-87 -87 -211 -87q-100 0 -182 63q-17 -11 -38 -11q-31 0 -53 22t-22 53t22 53t53 22t53 -22t22 -53q0 -19 -9 -36q70 -51 154 -51q108 0 184 76t76 183q0 122 -57.5 213t-150 149.5t-202.5 84.5q-104 -35 -198 -101t-175 -138q-108 -96 -212 -196q-99 -94 -201 -186
q-208 -187 -433.5 -316t-488.5 -175q263 -46 488.5 -175t433.5 -316q102 -92 201 -186q104 -100 212 -196q81 -72 175 -138t198 -101q110 26 202.5 84.5t150 149.5t57.5 213q0 107 -76 183t-184 76q-84 0 -154 -51q9 -17 9 -36q0 -31 -22 -53t-53 -22t-53 22t-22 53t22 53
t53 22q21 0 38 -11q82 63 182 63q124 0 211 -88q46 -46 68 -102q22 56 68 102q88 88 212 88q100 0 182 -62q17 10 38 10q31 0 53 -22t22 -53t-22 -53t-53 -22t-53 22t-22 53q0 20 9 36q-70 51 -154 51q-108 0 -184 -75.5t-76 -183.5q0 -121 57.5 -212t150 -150t202.5 -84
q104 35 198 100.5t175 137.5q108 96 212 196q99 95 201 186q208 187 433.5 316t488.5 175q-263 46 -488.5 175t-433.5 317q-102 91 -201 186q-104 100 -212 195q-81 73 -175 138.5t-198 100.5q-110 -25 -202.5 -84t-150 -150t-57.5 -212q0 -108 76 -184t184 -76q84 0 154 52
q-9 16 -9 36q0 30 22 52t53 22t53 -22t22 -52q0 -31 -22 -53t-53 -22q-21 0 -38 10q-82 -62 -182 -62q-124 0 -212 87q-46 46 -68 103zM2967 -315q-13 -42 -33 -79q-53 -93 -140.5 -157.5t-195.5 -98t-218 -33.5q-235 0 -436 65.5t-380.5 180.5t-349.5 267q-100 90 -198 183
q-105 102 -214 198q-81 73 -175.5 138.5t-198.5 98.5q-110 -25 -202 -84t-149 -150t-57 -212q0 -107 75.5 -183t183.5 -76q84 0 155 51q-9 17 -9 36q0 31 21.5 53t52.5 22t53 -22t22 -53t-22 -52.5t-53 -21.5q-20 0 -38 10q-82 -62 -182 -62q-124 0 -211.5 87.5t-87.5 210.5
q0 131 61 230t160 163t218 92q-119 28 -218 92t-160 163t-61 230q0 123 87.5 210.5t211.5 87.5q100 0 182 -62q18 10 38 10q31 0 53 -21.5t22 -52.5t-22 -53t-53 -22t-52.5 22t-21.5 53q0 19 9 36q-71 51 -155 51q-108 0 -183.5 -76t-75.5 -183q0 -121 57 -212t149 -150
t202 -84q104 33 198.5 98.5t175.5 138.5q109 96 214 198q98 93 198 183q170 152 349.5 267t380.5 180.5t436 65.5q110 0 218 -33.5t195.5 -98t140.5 -158.5q20 -36 33 -77q13 41 34 78q53 94 140.5 158.5t195.5 97.5t218 33q235 0 436 -65t380.5 -180t349.5 -267
q100 -90 198 -184q105 -101 214 -198q81 -72 175.5 -137.5t198.5 -99.5q110 25 202 84t149 150t57 212q0 107 -75.5 183t-183.5 76q-84 0 -155 -51q9 -16 9 -36q0 -31 -21.5 -53t-52.5 -22t-53 22t-22 53t22 53t53 22q20 0 38 -10q82 62 182 62q124 0 211.5 -87.5
t87.5 -211.5q0 -131 -61 -230t-160 -163t-218 -92q119 -27 218 -91.5t160 -163t61 -229.5q0 -124 -87.5 -211.5t-211.5 -87.5q-100 0 -182 62q-18 -10 -38 -10q-31 0 -53 22t-22 53t22 52.5t53 21.5t52.5 -21.5t21.5 -52.5q0 -20 -9 -36q71 -51 155 -51q108 0 183.5 75.5
t75.5 183.5q0 121 -57 212t-149 149.5t-202 84.5q-104 -34 -198.5 -99.5t-175.5 -137.5q-109 -97 -214 -198q-98 -94 -198 -184q-170 -152 -349.5 -267t-380.5 -180t-436 -65q-110 0 -218 33t-195.5 97.5t-140.5 158.5q-21 37 -34 78z" />
    <glyph glyph-name="colon" unicode=":" horiz-adv-x="721" 
d="M421 64q0 -53 -29.5 -92.5t-86.5 -39.5q-36 0 -59.5 16t-34.5 41t-11 51q0 53 30 90.5t85 37.5q53 0 79.5 -32.5t26.5 -71.5zM420 533q0 -52 -29 -92t-86 -40q-37 0 -60 16.5t-34 41t-11 50.5q0 54 30 91.5t85 37.5q53 0 79 -33t26 -72z" />
    <glyph glyph-name="semicolon" unicode=";" horiz-adv-x="721" 
d="M420 533q0 -52 -29 -92t-86 -40q-37 0 -60 16.5t-34 41t-11 50.5q0 54 30 91.5t85 37.5q53 0 79 -33t26 -72zM398 -22q-4 0 -8 -6q-29 -40 -86 -40q-37 0 -60 16t-34 41t-11 51q0 53 35 90.5t90 37.5q79 0 125 -79t46 -209q0 -178 -71 -328t-178.5 -275.5t-225.5 -196.5
q-5 -3 -10 -3q-11 1 -17 10q-3 5 -3 10q0 11 10 17q111 67 214.5 187.5t162.5 254t59 264.5q0 93 -30 152q-3 6 -8 6z" />
    <glyph glyph-name="semicolon" unicode="&#x37e;" horiz-adv-x="721" 
d="M420 533q0 -52 -29 -92t-86 -40q-37 0 -60 16.5t-34 41t-11 50.5q0 54 30 91.5t85 37.5q53 0 79 -33t26 -72zM398 -22q-4 0 -8 -6q-29 -40 -86 -40q-37 0 -60 16t-34 41t-11 51q0 53 35 90.5t90 37.5q79 0 125 -79t46 -209q0 -178 -71 -328t-178.5 -275.5t-225.5 -196.5
q-5 -3 -10 -3q-11 1 -17 10q-3 5 -3 10q0 11 10 17q111 67 214.5 187.5t162.5 254t59 264.5q0 93 -30 152q-3 6 -8 6z" />
    <glyph glyph-name="less" unicode="&#x3c;" horiz-adv-x="1381" 
d="M1415 612q-129 -220 -324 -337.5t-450 -117.5q-143 0 -300 52.5t-305.5 145t-269 215.5t-192.5 267t-72 297q0 68 26.5 123.5t76 87.5t120.5 32q119 0 219.5 -68.5t161 -175.5t60.5 -222q0 -27 -8.5 -55.5t-27.5 -48t-52 -19.5q-30 0 -50.5 17.5t-31.5 43.5t-13 53v3
q1 18 17 19q8 0 14.5 -5t7.5 -13q2 -15 8 -33.5t17.5 -32t30.5 -13.5q20 0 30 15t14 34.5t4 34.5q0 104 -55 202t-146.5 161.5t-199.5 63.5q-90 0 -136.5 -59t-46.5 -145q0 -146 70 -284t186.5 -256.5t260 -207.5t295 -139t287.5 -50q245 0 430.5 112.5t309.5 322.5
q6 11 16 11q6 0 11 -4q10 -7 10 -17q0 -5 -3 -10z" />
    <glyph glyph-name="equal" unicode="=" horiz-adv-x="2792" 
d="M1414 837q-12 -21 -31 -35t-45 -14q-33 0 -52 19.5t-27.5 48t-8.5 55.5q0 88 36 172.5t99 151.5q-52 47 -115.5 75t-132.5 28q-91 0 -137.5 -59t-46.5 -145q0 -137 61.5 -266t165 -242.5t234.5 -202.5q130 89 233.5 202.5t165 242.5t61.5 266q0 86 -46.5 145t-137.5 59
q-69 0 -132.5 -28t-115.5 -75q63 -67 99 -151.5t36 -172.5q0 -27 -8.5 -55.5t-27.5 -48t-52 -19.5q-26 0 -45 14t-30 35zM1414 1263q57 53 128 83.5t148 30.5q72 0 121.5 -32t76 -87.5t26.5 -123.5q0 -141 -62 -274.5t-166.5 -250.5t-236.5 -209q148 -95 305.5 -149
t297.5 -54q245 0 431 112.5t309 322.5q6 11 17 11q5 0 11 -4q10 -6 10 -17q0 -5 -3 -10q-130 -220 -324.5 -337.5t-450.5 -117.5q-150 0 -316.5 58t-321.5 160q-155 -102 -322 -160t-317 -58q-255 0 -450 117.5t-324 337.5q-3 5 -3 10q0 20 16 21q15 0 21 -11
q124 -210 309.5 -322.5t430.5 -112.5q141 0 298 54t305 149q-132 92 -236.5 209t-166 250.5t-61.5 274.5q0 68 26 123.5t76 87.5t121 32q78 0 148.5 -30.5t128.5 -83.5zM1414 1207q-124 -137 -124 -296q0 -15 3.5 -34.5t14 -34.5t30.5 -15q18 0 30 13.5t18 32t8 33.5
q1 8 6.5 13t13.5 5q7 0 12.5 -5t6.5 -13q2 -15 8 -33.5t18 -32t30 -13.5q20 0 30.5 15t14.5 34.5t4 34.5q0 159 -124 296z" />
    <glyph glyph-name="greater" unicode="&#x3e;" horiz-adv-x="1414" 
d="M0 612q-3 4 -3 10q0 10 10 17q5 4 10 4q11 0 17 -11q124 -210 309.5 -322.5t430.5 -112.5q136 0 287.5 50t295 139t260 207.5t186.5 256.5t70 284q0 86 -46.5 145t-136.5 59q-108 0 -199.5 -63.5t-146.5 -161.5t-55 -202q0 -15 4 -34.5t14 -34.5t30 -15q19 0 30.5 13.5
t17.5 32t8 33.5q1 8 7.5 13t14.5 5q16 -1 17 -19v-3q-2 -27 -13 -53t-31.5 -43.5t-50.5 -17.5q-33 0 -52 19.5t-27.5 48t-8.5 55.5q0 115 60.5 222t161 175.5t219.5 68.5q71 0 120.5 -32t76 -87.5t26.5 -123.5q0 -153 -72 -297t-192.5 -267t-269 -215.5t-305.5 -145
t-300 -52.5q-255 0 -450 117.5t-324 337.5z" />
    <glyph glyph-name="question" unicode="?" horiz-adv-x="991" 
d="M577 65q0 -53 -29 -92.5t-86 -39.5q-37 0 -60 16t-34 41t-11 51q0 53 30 91t85 38q53 0 79 -33t26 -72zM485 303q-78 2 -129.5 69t-51.5 170q0 204 173.5 437t173.5 452q0 57 -21 113.5t-65.5 94t-113.5 37.5q-93 0 -152 -71t-59 -205q0 -19 -21 -19q-19 0 -19 19
q0 174 76 258t215 84q143 -1 221.5 -103t78.5 -239q-2 -227 -189.5 -468t-187.5 -397q1 -174 101 -178q39 0 60.5 21.5t28.5 54.5q4 20 4 40q0 14 -2 28q-5 35 -18 63q-2 5 -2 9t1 7q3 7 10 11q5 2 9 2q3 0 6 -1q8 -3 12 -11q22 -49 23 -105v-4q0 -53 -23 -95
q-25 -42 -62 -59q-32 -15 -77 -15z" />
    <glyph glyph-name="at" unicode="@" 
d="M307 604q-6 20 -17 43t-28 40.5t-41 17.5q-20 0 -37 -16.5t-30 -38t-21 -37.5q-21 -44 -29.5 -96.5t-8.5 -100.5q0 -15 3 -49.5t11.5 -71.5t23 -63.5t37.5 -26.5q25 0 47 54.5t38 118.5t23 101q17 79 29 125zM401 -270q-429 0 -689 392t-260 753q0 72 18 141.5t56 125.5
t97 89.5t140 33.5q93 0 181 -33.5t174 -91.5t173 -134q88 76 174 134t174 91.5t181 33.5q81 0 140 -33.5t97 -89.5t56 -125.5t18 -141.5q0 -318 -210 -596.5t-385 -278.5q-90 0 -135.5 59t-70 154.5t-24.5 207.5q-30 -142 -70.5 -208.5t-99.5 -66.5q-82 0 -131 71.5
t-49 198.5q0 53 9.5 109.5t32.5 105.5q33 65 84 100t104 35q40 0 76 -25t62 -75q3 31 22 47q19 14 51 22q12 3 23 3q56 0 56 -36q0 -5 -1 -11q-2 -8 -4 -18q-5 -25 -11.5 -79t-10.5 -124q-4 -55 -4 -111q1 -88 12 -164q11 -61 35 -99.5t66 -38.5q145 0 339.5 256.5
t194.5 561.5q0 63 -15.5 125.5t-48.5 113t-84.5 81t-123.5 30.5q-32 0 -64 -4q-108 -18 -218.5 -84t-216.5 -157q-19 -16 -30 -16q-10 0 -29 16q-106 91 -216.5 157t-218.5 84q-32 4 -64 4q-72 0 -124 -30.5t-84.5 -81t-48 -113t-15.5 -125.5q0 -335 244 -720t666 -385
q245 0 430.5 112.5t309.5 322.5q6 10 17 10q5 0 10 -3q10 -6 10 -17q0 -5 -3 -10q-129 -220 -324 -337.5t-450 -117.5z" />
    <glyph glyph-name="A" unicode="A" 
d="M-44 416q0 53 9.5 109.5t32.5 105.5q33 65 84 100t104 35q40 0 76 -25t62 -75q3 31 22 47q19 14 51 22q12 3 23 3q56 0 56 -36q0 -10 -8 -47q-4 -24 -8 -61q-7 -54 -11 -124q-4 -55 -4 -111q1 -88 12 -164q11 -61 35 -99.5t66 -38.5q55 0 117.5 45t124.5 115t118 149
t100 150t70 116q7 10 18 10q5 0 9 -3q10 -7 10 -17q0 -5 -3 -10q-33 -57 -83 -135t-112 -161t-127.5 -154.5t-137 -116.5t-156.5 -45q-60 0 -105.5 59t-70 154.5t-24.5 207.5q-30 -142 -70.5 -208.5t-99.5 -66.5q-82 0 -131 71.5t-49 198.5zM307 604q-6 20 -17 43t-28 40.5
t-41 17.5q-20 0 -37 -16.5t-30 -38t-21 -37.5q-21 -44 -29.5 -96.5t-8.5 -100.5q0 -45 13 -114q10 -44 24.5 -70.5t37.5 -26.5q25 0 47 54.5t38 118.5t23 101q17 79 29 125z" />
    <glyph glyph-name="B" unicode="B" horiz-adv-x="1197" 
d="M630 326q23 9 46 17q174 63 318.5 131.5t202.5 157.5q7 10 17 10q5 0 10 -3q10 -6 10 -17q0 -5 -3 -10q-62 -96 -217.5 -170.5t-336.5 -140.5l-52 -20q-21 -146 -79.5 -241.5t-133.5 -142.5t-141 -47q-58 0 -96.5 32t-38.5 96q0 53 35 97q-87 73 -132 201.5t-60.5 271
t-15.5 245.5q0 166 32 319t102 273t182 190.5t272 70.5q119 0 201.5 -76t82.5 -197q0 -129 -68 -253t-176.5 -229t-234.5 -179t-247 -105q12 -223 68 -420q6 81 26 174t61 163q40 66 89 100.5t98 34.5q61 0 97.5 -35.5t55 -89t24.5 -109.5q3 -35 3 -65q0 -18 -1 -34z
M106 648q114 30 234 101t223 170t168 216t65 238q0 105 -71 169t-174 64q-93 0 -168.5 -48t-128.5 -124q-61 -89 -94 -198t-45.5 -224t-12.5 -219q0 -65 4 -145zM474 221q-86 -36 -153 -73.5t-106.5 -79.5t-39.5 -90q0 -28 12 -45.5t43 -17.5q60 0 108.5 44t83 113.5
t52.5 148.5zM212 119q101 83 271 150q9 57 9 108q0 19 -1 38q-6 67 -30.5 110t-71.5 43q-41 0 -70.5 -34t-49 -87.5t-31.5 -114.5t-18 -117.5t-8 -95.5z" />
    <glyph glyph-name="C" unicode="C" horiz-adv-x="1070" 
d="M-22 477q0 176 92 290.5t228 114.5q46 0 83 -17t62 -59q23 -41 23 -95q-1 -60 -23 -109q-4 -8 -12 -11q-3 -1 -6 -1q-4 0 -9 2q-11 5 -11 18q0 4 2 9q13 28 18 63q2 15 2 29q0 20 -4 39q-7 33 -28.5 54.5t-60.5 21.5q-86 0 -147 -132t-61 -278q0 -156 67.5 -237
t185.5 -81q92 0 193.5 53.5t198 136t174.5 174t125 170.5q6 10 18 10q5 0 10 -3q10 -6 10 -17q0 -5 -3 -10q-51 -86 -134 -184t-186 -185t-213 -143.5t-212 -56.5q-190 0 -286 121t-96 313z" />
    <glyph glyph-name="D" unicode="D" horiz-adv-x="1298" 
d="M-52 452q0 121 67 200.5t173 84.5h9q48 0 101 -19q-9 83 -9 168q0 105 15 214.5t49.5 209t92.5 178.5t144 125t205 46q88 0 124 -65q33 -57 33 -149q0 -12 -1 -25q-5 -108 -42.5 -243.5t-98 -279.5t-136 -278.5t-155.5 -241.5q43 -101 105 -161t144 -60q69 0 148 53
t154 130.5t135 156.5t93 136q6 10 17 10q5 0 10 -3q10 -6 10 -17q0 -5 -3 -10q-58 -101 -172.5 -235t-245.5 -214q-86 -48 -179 -48q-90 0 -171.5 39.5t-132.5 117.5q-30 -31 -65.5 -60.5t-76.5 -49t-86 -19.5q-79 0 -136.5 41.5t-88 111.5t-30.5 156zM411 306
q-80 153 -108 367q-39 19 -80 19q-46 0 -73 -24t-41 -61t-18.5 -78.5t-4.5 -76.5q0 -31 6 -75.5t21 -87.5t42.5 -72.5t69.5 -29.5q43 0 90.5 33t95.5 86zM501 421q78 111 137.5 218t86.5 166q25 53 69 163t80.5 238t39.5 236q0 119 -51 156q-31 21 -68 21
q-91 0 -158.5 -58.5t-113 -158t-69 -224t-25.5 -286.5q0 -120 16 -236q18 -128 56 -235z" />
    <glyph glyph-name="E" unicode="E" horiz-adv-x="1114" 
d="M-39 403q0 135 45.5 244.5t134 173.5t218.5 64q47 0 88.5 -18.5t67.5 -54.5t26 -86q0 -63 -31.5 -105t-81.5 -62.5t-106 -20.5q-49 0 -104 16.5t-102 38.5q-17 -77 -17 -162q0 -147 38.5 -268.5t113 -196t183.5 -74.5q76 0 150.5 46t144.5 121t133 164t116.5 178
t95.5 162q22 39 40 70q6 10 17 10q5 0 10 -3q10 -6 10 -17q0 -5 -3 -10q-19 -33 -42 -73q-68 -122 -163.5 -269.5t-209.5 -264.5q-84 -84 -172.5 -128t-199.5 -44q-102 0 -177 55.5t-124.5 142.5t-74 186t-24.5 185zM127 632q43 -22 96 -38t99 -16q67 0 113 35.5t46 112.5
q0 59 -34 89.5t-88 30.5q-89 0 -146.5 -59.5t-85.5 -154.5z" />
    <glyph glyph-name="F" unicode="F" horiz-adv-x="1123" 
d="M615 1646q120 0 202 -76t82 -197q0 -105 -48.5 -206t-130 -192.5t-181.5 -166.5t-205 -127t-201 -75q-4 -86 -4 -172q0 -566 54 -933.5t207 -367.5q94 0 135 92.5t41 261.5q0 281 -104 481.5t-241 256.5q-10 6 -10 17q0 3 1 6q5 15 19 15q187 0 311 42q83 22 201.5 71
t225.5 115.5t154 140.5q6 10 17 10q5 0 10 -3q10 -6 10 -17q0 -5 -3 -10q-50 -79 -160.5 -149t-233 -121.5t-210.5 -74.5q-97 -33 -260 -42q145 -90 229 -293t84 -445q0 -178 -56.5 -285.5t-159.5 -107.5q-198 0 -312.5 360t-114.5 926q0 184 25 366t75.5 344t128 286.5
t183 197t240.5 72.5zM840 1373q0 105 -61 169t-164 64q-115 0 -200 -78.5t-143.5 -213t-92 -306.5t-44.5 -361q113 30 235 100.5t228.5 170t174 216.5t67.5 239z" />
    <glyph glyph-name="G" unicode="G" horiz-adv-x="1211" 
d="M-6 622q0 94 44 162.5t113 105.5t144 37q64 0 124 -26.5t102 -85.5q24 11 48 12q26 0 30 -18q7 -38 13 -76q43 -233 66 -470q172 66 313.5 154.5t219.5 214.5q6 10 17 10q5 0 10 -3q10 -6 10 -17q0 -5 -3 -10q-90 -143 -245.5 -236.5t-318.5 -154.5q4 -68 4 -135
q0 -131 -35.5 -260t-125.5 -229q-68 -72 -178 -117.5t-227 -45.5q-93 0 -175 27t-132.5 89.5t-50.5 169.5q0 72 45.5 132.5t120 109.5t163.5 89t179.5 71.5t166.5 55.5q62 19 106 35q-12 173 -40 345q-34 -126 -102 -188t-144 -62q-65 0 -125 39t-98.5 109.5t-38.5 165.5z
M545 171q-37 -12 -87 -28q-70 -23 -154 -52.5t-169 -67t-156 -83.5t-115 -100.5t-44 -119.5q0 -80 37 -132t98.5 -76.5t133.5 -24.5q176 0 307 137q84 95 117.5 217t33.5 245q0 42 -2 85zM481 681l-8 48q-4 17 -5 36q0 15 19 30q-30 40 -76 65.5t-95 25.5q-50 0 -85 -25.5
t-56.5 -65.5t-31.5 -86t-10 -87q0 -30 9 -74t27.5 -87.5t46.5 -73t66 -29.5q54 0 90.5 34.5t59.5 86t35 106t14 96.5z" />
    <glyph glyph-name="H" unicode="H" horiz-adv-x="1332" 
d="M120 652q113 29 228 99t211.5 169t156 215.5t59.5 237.5q0 105 -61 169t-164 64q-57 0 -109.5 -15t-99.5 -48q-106 -78 -160 -219.5t-66 -317.5q-6 -73 -6 -147q0 -103 11 -207zM565 470q0 51 -13 82t-37 31q-29 0 -76 -56q-75 -101 -124 -230.5t-63 -211.5
q-2 -7 -7.5 -11.5t-12.5 -4.5q-4 0 -7 1q-64 26 -129 172t-104 354q-29 153 -29 310q0 56 4 113q14 215 109 381q70 115 188 183q115 67 262 67h5q69 0 131.5 -23t111.5 -81q60 -71 60 -173q0 -129 -65.5 -252.5t-170.5 -227.5t-229 -177.5t-245 -103.5q33 -270 102 -458
q19 73 52.5 160t81 167t107 132t129.5 52q41 0 65 -27.5t34 -77t10 -113.5q0 -87 -13 -189.5t-29 -207.5q-16 -100 -28 -194t-12 -171q0 -52 13.5 -82.5t42.5 -30.5q54 0 114 58t120.5 152.5t119.5 208.5t111.5 228.5t95.5 212.5q59 136 92 199q5 11 17 11q4 0 9 -2
q11 -5 11 -18q0 -5 -2 -9q-37 -71 -97 -211q-68 -158 -156.5 -342t-187.5 -330q-55 -84 -125.5 -150.5t-160.5 -66.5q-57 4 -89 39.5t-45.5 90t-13.5 112.5q0 87 11 172.5t26 171.5q15 91 26 184q10 84 10 187z" />
    <glyph glyph-name="I" unicode="I" horiz-adv-x="789" 
d="M162 622q0 -23 -4 -58q-2 -18 -3 -34q-5 -58 -7 -133q-1 -25 -1 -50q0 -50 3 -101q3 -76 14.5 -141.5t34.5 -106t60 -40.5q59 0 125.5 62.5t133 156.5t124.5 194t100 178q29 51 47 83q6 10 17 10q5 0 10 -2q11 -5 11 -17q0 -5 -4 -11q-21 -36 -51 -91q-70 -133 -173 -295
q-9 -14 -19 -29q-30 -49 -68.5 -103t-84.5 -102t-101 -78.5t-119 -30.5q-65 0 -105.5 49.5t-62.5 129t-31 172t-10 180.5v155q1 32 1 56t25.5 37t56.5 13q30 0 55.5 -13t25.5 -40zM234 940q0 -53 -29.5 -92.5t-86.5 -39.5q-36 0 -59.5 16t-34.5 41t-11 51q0 53 30 90.5
t85 37.5q53 0 79.5 -32.5t26.5 -71.5z" />
    <glyph glyph-name="J" unicode="J" horiz-adv-x="817" 
d="M-532 -676q0 76 38.5 146.5t94 130.5t110.5 107q191 161 403 302q50 35 99 70q-73 315 -213 531q-3 5 -3 10q0 11 12 23q18 19 47 23q5 1 9 1q24 0 47 -23q173 -191 245 -462q133 96 258 209.5t202 239.5q6 10 17 10q5 0 10 -3q10 -6 10 -17q0 -5 -3 -10
q-82 -133 -213 -252t-270 -218q36 -154 38 -308q0 -159 -34 -296q-35 -140 -107.5 -250t-185 -174.5t-265.5 -64.5q-61 0 -122 17t-111.5 51.5t-81.5 86t-31 120.5zM-113 980q0 39 26.5 72t79.5 33q55 0 85 -37.5t30 -91.5q0 -26 -11 -50.5t-34 -41t-60 -16.5
q-57 0 -86.5 40t-29.5 92zM-472 -676q0 -69 35 -119.5t90 -77.5t116 -27q140 0 235.5 53.5t152.5 146.5t80 213q19 99 19 207q0 23 -1 47q-5 134 -33 270q-43 -29 -86 -59q-209 -140 -399 -300q-49 -42 -97 -98t-80 -121.5t-32 -134.5z" />
    <glyph glyph-name="K" unicode="K" horiz-adv-x="1255" 
d="M150 -6q-7 0 -13 4q-40 36 -70.5 115t-43.5 131q-58 217 -60 467q0 156 33 347q36 207 135 373q72 111 183 167t233 56q83 0 162.5 -30t128.5 -102q42 -64 42 -149q0 -106 -51 -208.5t-136 -194t-188.5 -167t-211 -127t-203.5 -73.5q0 -314 63 -511q21 77 56 169t84 177
t112 140.5t139 55.5q35 0 61.5 -17.5t26.5 -55.5q0 -40 -26.5 -80.5t-64 -76.5t-74.5 -63.5t-62 -43.5q4 -35 43 -121t96 -183.5t116.5 -169.5t101.5 -72q51 0 103.5 61t102.5 157.5t96.5 207t86.5 212.5q64 168 104 243q5 10 18 10q5 0 10 -3q10 -6 10 -17q0 -5 -3 -10
q-49 -91 -109 -258q-40 -110 -87.5 -225.5t-105 -215t-127.5 -162.5t-155 -63q-56 0 -127.5 63t-136.5 153.5t-108 181t-43 145.5q0 32 37 63.5t86 64.5q37 25 93 76t56 94q-3 53 -52 53q-36 0 -76 -34q-89 -76 -150 -211t-92 -248q-2 -6 -4 -16q-4 -15 -9 -33.5t-12.5 -32
t-17.5 -13.5zM821 1373q0 105 -61 169t-164 64q-107 0 -188.5 -56t-140 -152t-96.5 -219t-57.5 -260.5t-22.5 -274.5q90 22 189.5 72t195.5 121t173.5 158t124.5 183t47 195z" />
    <glyph glyph-name="L" unicode="L" horiz-adv-x="1064" 
d="M129 -293q-43 91 -77.5 221t-57.5 284t-29 319q-2 52 -2 104q0 111 10 221q15 160 55 302.5t110 251.5t174.5 172.5t248.5 63.5q128 0 207.5 -85.5t79.5 -211.5q0 -133 -69 -254.5t-179 -221t-237.5 -168.5t-248.5 -99q0 -199 24 -387t67.5 -339.5t103.5 -242t132 -90.5
q50 0 99.5 39t94.5 100t83.5 129.5t67.5 129.5t45 101q78 180 145 365q8 21 17 48q16 46 34 93t37 80q6 10 17 10q6 0 10 -3q10 -6 10 -17q0 -5 -3 -10q-18 -32 -35.5 -77.5t-32.5 -89.5q-9 -27 -17 -48q-67 -186 -145 -367q-43 -107 -134 -268q-79 -132 -165 -208.5
t-179 -76.5q-68 0 -136.5 56t-124.5 174zM114 647q114 30 234.5 96t224.5 160t170 208t66 238q0 109 -68 183t-180 74q-117 0 -201 -80t-137.5 -215.5t-80 -307t-28.5 -356.5z" />
    <glyph glyph-name="M" unicode="M" horiz-adv-x="1523" 
d="M883 668q3 -83 3 -166q0 -55 -1 -110q-1 -39 -1 -77v-26q-2 -44 -3 -129l-1 -59q0 -61 2 -129q2 -103 9 -197t22 -155.5t42 -61.5q49 0 107 78.5t119 201t118.5 260.5t106.5 262q78 200 117 272q6 10 17 10q5 0 10 -3q9 -6 9 -17q0 -5 -2 -10q-49 -91 -129 -302
q-42 -106 -89.5 -222.5t-100 -227.5t-107.5 -201t-112 -144t-114 -54q-53 0 -94 51.5t-56 157.5q-8 66 -10 193q-2 85 -2 250q1 123 3 220q0 37 1 113v51q0 52 -1 107q-3 83 -10 143t-22 60q-19 0 -38 -41t-33 -86t-19 -62v-1q-50 -189 -90 -382q-14 -64 -28 -127
q-19 -80 -53 -80q-44 0 -62.5 20.5t-22.5 51.5q-4 22 -4 45q0 10 1 58q0 59 -2 117q0 26 -6 110t-18.5 163t-32.5 91q-26 0 -51 -77t-45.5 -174t-32.5 -165q-2 -14 -5 -32q-4 -28 -15.5 -52t-44.5 -27q-56 3 -79 47t-27 93q-10 106 -10 213q0 56 3 113q5 47 39 61q15 6 29 6
q19 0 38 -10q32 -16 33 -59v-131q1 -95 7 -178q11 70 29.5 154t44.5 154q24 65 54.5 98.5t76.5 33.5q40 0 74.5 -36t51.5 -109q27 -150 27 -325q37 175 83 345l2 10q11 44 35 108q26 66 59.5 97t83.5 31q38 0 60.5 -21.5t34 -53.5t16 -67t6.5 -63z" />
    <glyph glyph-name="N" unicode="N" horiz-adv-x="1262" 
d="M653 725v-84q-6 -146 -24 -292q-14 -126 -20 -187.5t-9 -132.5q-1 -36 -1 -70t1 -67q4 -66 19 -108.5t46 -42.5q54 0 121.5 75.5t138.5 190t136.5 238.5t116.5 228q55 109 84 159q6 10 17 10q5 0 10 -3q10 -6 10 -17q0 -5 -3 -10q-33 -57 -89 -171q-62 -124 -141 -271.5
t-164 -270.5q-33 -47 -82.5 -102.5t-108 -97t-116.5 -41.5q-56 0 -92.5 62.5t-42.5 199.5q-1 25 -1 49q0 66 6 131q7 89 14 148q12 99 20.5 180.5t12.5 169.5q2 40 2 76q0 42 -3 76q-6 63 -30 63q-22 0 -47.5 -49t-49 -117t-41 -130t-25.5 -92q-13 -47 -23 -85
q-16 -62 -33 -123q-8 -30 -33 -106t-59 -76q-45 0 -71 31.5t-39.5 74t-21.5 84.5q-19 89 -28.5 197t-10.5 199q2 45 36 61q18 9 35 9q16 0 32 -7q33 -14 36 -62q0 -34 7.5 -130.5t21.5 -196.5t34 -143q30 99 56 199q10 38 26 100q13 52 37.5 134.5t58.5 157.5
q35 73 72.5 104.5t83.5 31.5q61 0 89.5 -44.5t28.5 -109.5z" />
    <glyph glyph-name="O" unicode="O" horiz-adv-x="1104" 
d="M-14 462q0 81 12 163q6 27 29 37q18 8 37 8q7 0 14 -1q28 -3 46 -18q-8 30 -8 65q1 110 59.5 175.5t167.5 65.5q72 0 112 -36.5t56 -94t16 -122.5q0 -63 -9 -124.5t-19 -105.5q-4 -14 -7 -27q51 -6 96 -6q78 0 182.5 18t196 60t137.5 113q6 10 17 10q5 0 10 -3
q10 -6 10 -17q0 -5 -3 -10q-50 -79 -146.5 -125t-207 -65.5t-196.5 -19.5q-51 0 -108 7q-51 -146 -131 -212q-70 -56 -141 -56q-11 0 -22 1q-83 9 -139.5 90.5t-60.5 229.5zM136 614q-5 -30 -9.5 -74t-4.5 -93q0 -59 10 -116t38.5 -94.5t82.5 -37.5q45 0 81 34.5t63 83.5
t44 98q-99 17 -183 64.5t-122 134.5zM454 453q5 17 8 31q17 69 17 140q0 39 -8 83t-26.5 83t-50.5 64t-80 25q-74 0 -116 -44.5t-42 -118.5q5 -122 93.5 -183.5t204.5 -79.5z" />
    <glyph glyph-name="P" unicode="P" horiz-adv-x="1460" 
d="M708 339q4 36 4 72q-1 165 -34.5 243t-82.5 78q-38 0 -80 -52.5t-82 -175.5q-48 -155 -77.5 -307.5t-40.5 -226.5q-33 -209 -59 -405q-15 -105 -30 -209q-7 -59 -17 -122t-26.5 -116t-41.5 -53q-27 0 -45.5 29.5t-30 72t-18 83.5t-10.5 75q-28 266 -30 535q-4 200 -4 400
v156q1 35 1 70q0 69 -4 136q0 28 19.5 45.5t46.5 18.5q62 0 73 -63q11 -196 11 -394q0 -66 -1 -132v-90q0 -11 -1 -35v-229q0 -149 4.5 -291t17.5 -199q7 43 12.5 78.5t8.5 56.5l24 174q27 201 59 400q12 77 26 156.5t34.5 173.5t48.5 187.5t63.5 171t79.5 125t97 47.5
q61 0 107 -43t75.5 -114t40.5 -155q6 -45 6 -89q0 -41 -5 -81q122 3 235.5 26.5t210 85.5t167.5 179q6 10 17 10q5 0 10 -3q10 -6 10 -17q0 -5 -3 -10q-76 -125 -178.5 -191t-223.5 -91.5t-250 -28.5q-13 -78 -45.5 -141.5t-85.5 -101.5t-128 -38q-41 0 -78 15t-61 44.5
t-24 73.5q0 70 38 110.5t96 58t118 17.5h36zM597 97q81 70 104 202h-29q-48 0 -97 -12.5t-82 -44t-33 -89.5q0 -37 22 -57.5t53 -20.5q34 0 62 22z" />
    <glyph glyph-name="Q" unicode="Q" horiz-adv-x="1194" 
d="M198 269q32 0 59 16.5t48.5 40.5t38.5 49q38 58 67 118.5t46 102.5q2 3 4 5q1 5 4 9q20 20 49 20h3q32 -2 56.5 -16t24.5 -31q-5 -40 -20 -131q-27 -160 -56 -388q-25 -206 -25 -389v-39q4 -107 24 -171.5t50 -92.5t65 -28q29 0 66 25t66.5 73t39.5 118q5 43 5 87
q0 101 -27 212q-40 160 -136 265q-6 7 -6 14q0 3 1 6q4 11 16 13q113 21 214 98.5t183 180t136 196.5q6 10 18 10q5 0 10 -3q10 -6 10 -17q0 -5 -3 -10q-56 -95 -136 -196t-179.5 -181t-211.5 -110q90 -114 126 -272q24 -108 24 -207q0 -47 -5 -92q-9 -68 -42 -130
t-87.5 -102t-129.5 -40q-74 0 -121.5 44t-72.5 108t-31 129q-5 76 -5 153q0 131 15 262q21 194 52 387q5 32 11 67q3 17 6 35q-30 -61 -69 -118.5t-87 -95.5t-104 -38q-54 0 -92 28t-62 72t-35 94t-11 95q0 78 26.5 152.5t82.5 123t146 48.5q73 0 143 -29.5t119 -86.5
q4 -6 4 -12v-3q-1 -7 -7 -13q-6 -4 -12 -4h-2q-8 0 -14 7q-80 91 -191 91q-51 0 -84 -37t-50.5 -95t-21.5 -123q-1 -20 -1 -39q0 -43 6 -83q8 -58 26.5 -95t45.5 -37z" />
    <glyph glyph-name="R" unicode="R" horiz-adv-x="832" 
d="M131 899q0 -65 -25.5 -136.5t-56.5 -131.5q69 -48 151 -80q13 -6 13 -20q-3 -25 -6 -96.5t-5 -169.5q-1 -40 -1 -80q0 -61 2 -123q3 -105 13.5 -196t31 -148.5t54.5 -57.5q44 0 98 70.5t110.5 181t110.5 235.5t101 237q73 180 110 248q6 10 17 10q5 0 10 -3q10 -6 10 -17
q0 -5 -3 -10q-45 -83 -111 -261q-36 -94 -78.5 -197t-90 -201t-100.5 -178t-110.5 -127.5t-120.5 -47.5q-61 0 -99 56.5t-59 147.5t-29 198t-8 211q0 103 4.5 184.5t8.5 122.5q-79 32 -145.5 78t-107.5 112.5t-41 159.5q0 77 26.5 127t67.5 74t86 24q42 0 81.5 -18.5
t65 -61.5t25.5 -116zM17 656q28 56 51.5 120.5t23.5 122.5q0 24 -8 57.5t-26.5 59.5t-49.5 26q-36 0 -55.5 -32t-27 -72.5t-7.5 -67.5q0 -70 27 -122.5t72 -91.5z" />
    <glyph glyph-name="S" unicode="S" horiz-adv-x="1041" 
d="M8 -134q0 126 70.5 200.5t199.5 122.5q-53 74 -116 136q-42 42 -79 86.5t-60 95.5t-23 115q0 87 37.5 142t95.5 81.5t118 26.5q86 0 148 -56q49 -44 49 -120q0 -18 -3 -39q-2 -8 -9 -12q-5 -4 -12 -4h-3q-8 2 -12 9q-4 4 -4 10q0 2 1 5q3 16 3 32q0 23 -6 44
q-11 36 -38.5 59t-71.5 23q-67 0 -108.5 -45.5t-41.5 -101.5q0 -61 22.5 -109.5t58 -90.5t76.5 -83q74 -70 132 -159q108 30 220.5 75.5t213 122.5t175.5 200q6 10 17 10q5 0 10 -3q10 -6 10 -17q0 -5 -3 -10q-77 -127 -180.5 -207t-218.5 -128t-225 -79q18 -38 34.5 -87
t16.5 -131q0 -146 -88 -239.5t-227 -93.5q-84 0 -131.5 65.5t-47.5 153.5zM299 154q-129 -48 -180 -113.5t-51 -174.5q0 -75 27 -125.5t91 -50.5q76 0 120 85t44 179q0 60 -13.5 109.5t-37.5 90.5z" />
    <glyph glyph-name="T" unicode="T" horiz-adv-x="981" 
d="M-319 1206q95 0 196.5 13t200.5 31q43 235 77 354q9 26 45 31q10 1 19 1q24 0 46 -9q26 -11 26 -33q0 -4 -1 -8q-22 -81 -58 -309q77 15 139 30q68 16 143.5 27.5t139.5 11.5q100 0 159.5 -43.5t59.5 -150.5q0 -12 -8.5 -21t-21.5 -9t-21.5 8.5t-8.5 21.5
q0 79 -32.5 116.5t-126.5 37.5q-65 0 -141.5 -11.5t-144.5 -28.5q-64 -15 -142 -30q-22 -146 -41.5 -319t-30.5 -354q-10 -144 -10 -279q0 -34 1 -67q2 -167 24 -299t68.5 -210t124.5 -78q56 0 114 55t110.5 133t92.5 153t61 120q79 164 148 333q10 23 21 49q33 87 72 159
q6 10 17 10q5 0 10 -3q10 -6 10 -17q0 -5 -3 -10q-38 -70 -70 -154q-10 -26 -20 -49q-70 -170 -149 -335l-4 -8q-21 -43 -52.5 -104.5t-72 -128t-87 -124.5t-97 -95t-102.5 -37q-103 0 -173 57t-113.5 157.5t-64 232t-22.5 282.5v50q0 126 8 258q11 157 31 308.5t43 285.5
q-97 -17 -196 -29.5t-193 -12.5q-132 0 -205.5 61.5t-73.5 198.5q0 40 45 41q61 -1 61 -79q6 -97 47 -139.5t126 -42.5z" />
    <glyph glyph-name="U" unicode="U" horiz-adv-x="1205" 
d="M446 474q-20 -65 -48 -134.5t-64 -129.5t-80.5 -98t-97.5 -38q-60 0 -96.5 47.5t-53.5 123.5t-17 161q0 113 10 216q2 38 35 48q15 4 29 4q19 0 38 -7q34 -13 37 -44q1 -12 1 -28t-1 -37q0 -56 1 -127.5t6 -139t18 -112.5t37 -45q17 0 34 14.5t26 26.5q70 90 117 221.5
t67 209.5q1 2 1 4v4q4 30 38 43q20 8 40 8q14 0 27 -4q33 -10 34 -49v-3q-1 -33 -2 -104v-29q0 -60 3 -130q5 -87 19.5 -168.5t44 -135t78.5 -53.5q55 0 112.5 53.5t112.5 135t104 171.5t87 166q38 75 62 117q6 10 17 10q5 0 10 -3q10 -6 10 -17q0 -5 -3 -10
q-27 -48 -67 -126q-66 -137 -157 -286q-3 -3 -5 -7q-42 -68 -86 -126t-100 -93.5t-137 -35.5q-72 0 -118 35.5t-71.5 93.5t-36.5 126.5t-13 137.5t-2 126v17z" />
    <glyph glyph-name="V" unicode="V" horiz-adv-x="1232" 
d="M722 838q0 -145 -27 -302q91 -53 204 -56h17q92 0 172 29q88 33 144 123q6 10 17 10q5 0 10 -3q10 -6 10 -17q0 -5 -3 -10q-62 -100 -158 -137q-90 -35 -194 -35h-16q-115 3 -210 54q-11 -70 -36.5 -171.5t-63 -212.5t-87.5 -208t-111 -159t-133 -62q-49 0 -86.5 51
t-64.5 135t-45.5 184.5t-30 202.5t-18.5 189t-10 143q-1 22 -2 39q0 39 32 56q19 11 39 11q13 0 27 -5q34 -12 40 -64q3 -44 18 -179t38 -293.5t50.5 -277t55.5 -118.5q44 0 87.5 62t83.5 158t72.5 203t55.5 201t32 150q-81 55 -129.5 138.5t-48.5 181.5q0 108 36.5 163.5
t94.5 55.5q59 0 98.5 -57t39.5 -173zM638 577q21 136 21 261q0 24 -5 65t-21 75t-48 42q-30 -8 -45 -39.5t-19.5 -70t-4.5 -61.5q0 -84 32.5 -153t89.5 -119z" />
    <glyph glyph-name="W" unicode="W" horiz-adv-x="1555" 
d="M721 -339q50 15 93 101t76.5 200t54.5 213t27 139q9 48 22 189q-170 99 -210 293q-7 34 -7 72q0 34 5 70q12 79 74 114q19 9 41 9q6 0 11 -1q6 1 12 1q65 0 100 -75.5t44 -199.5q4 -53 4 -111q0 -77 -7 -162q68 -31 161 -33h18q92 0 172 29q87 33 143 123q6 10 17 10
q5 0 10 -3q10 -6 10 -17q0 -5 -3 -10q-61 -100 -158 -137q-90 -35 -193 -35h-16q-93 2 -165 32q-41 -397 -163 -679q-49 -102 -104.5 -153t-112.5 -51q-56 0 -109 57t-95 170q-26 73 -46 161q-41 -84 -86.5 -127t-106.5 -43q-43 0 -85.5 36.5t-76.5 120.5
q-37 101 -54.5 235.5t-20.5 252.5q-1 45 -1 80q0 59 3 92q7 54 42 67q15 6 28 6q20 0 38 -12q31 -18 31 -62v-3q-2 -25 -2 -73q0 -37 1 -86q4 -116 19.5 -248.5t48 -229t86.5 -102.5q32 1 63.5 48t59.5 116q-7 35 -14.5 107t-11.5 164q-2 46 -2 92q0 47 2 94q4 94 20 174
t48.5 130t86.5 50q42 0 57 -43q13 -37 13 -93v-15q-2 -66 -14.5 -138.5t-27.5 -135.5t-24 -98q-3 -12 -5 -19q-5 -22 -15 -58q2 -19 4 -37q3 -35 16.5 -119.5t37 -181.5t57.5 -170t79 -87zM998 549q6 80 6 161l-1 46q-3 104 -24.5 178t-69.5 86q-53 -14 -67 -100
q-4 -24 -4 -49q0 -66 26 -142q36 -105 134 -180zM517 383q14 66 30.5 157.5t23.5 167.5q3 27 3 46q0 37 -9 50q-15 0 -25.5 -39t-15.5 -80t-6 -54q-4 -65 -4 -131q0 -58 3 -117z" />
    <glyph glyph-name="X" unicode="X" horiz-adv-x="1265" 
d="M-19 -41q-2 -1 -4 -1q-5 0 -10 3q-8 3 -10 11q-1 3 -1 6q0 4 2 9q40 79 93.5 139t113.5 110q-58 84 -107 191t-59 195q1 30 32 48q23 13 47 13q10 0 19 -2q34 -8 41 -57q8 -68 42.5 -151t79.5 -158q77 64 144 140.5t109 185.5q3 7 10 11q4 2 9 2q2 0 5 -1q3 1 6 1
q4 0 7 -2q8 -3 11 -10q2 -3 2 -7t-2 -8q-49 -119 -123 -199.5t-157 -145.5q24 -37 46 -65q42 -54 94 -98.5t113.5 -71.5t131.5 -27q56 0 125 48.5t140.5 124t138 159.5t117.5 159t78 121q7 10 18 10q5 0 9 -3q10 -6 10 -17q0 -5 -3 -10q-41 -70 -120.5 -182t-178.5 -223
q-3 -3 -5 -6q-51 -56 -112 -116t-132 -101.5t-150 -43.5h-3q-90 0 -192 60q-104 61 -209 192l-8 10q-54 -47 -101.5 -103.5t-83.5 -128.5q-3 -7 -10 -10q-3 -2 -7 -2q-3 0 -6 1z" />
    <glyph glyph-name="Y" unicode="Y" horiz-adv-x="1243" 
d="M489 544q-12 -73 -34 -155t-55.5 -154.5t-81 -119.5t-112.5 -47q-62 0 -101.5 40t-62 103t-32 135.5t-11.5 140.5q-1 45 -1 82v53q2 35 36 49q18 8 36 8q15 0 30 -6q34 -11 37 -49v-53q0 -40 1 -93q2 -79 10.5 -160t28 -138t55.5 -57q27 0 47.5 14t35.5 32q64 88 99 221
t47 229q3 15 4 22.5t1 12.5v11q-1 6 -1 18q0 27 14.5 42t34.5 15q29 0 56 -15t35 -51q10 -59 24 -131q37 -186 70 -418q150 103 302 232t242 275q7 10 17 10q5 0 10 -3q10 -6 10 -17q0 -5 -3 -10q-96 -155 -256 -290t-317 -241q22 -166 22 -326q0 -141 -25 -267.5
t-85.5 -224t-164 -153.5t-260.5 -56q-81 0 -152.5 28.5t-116 88.5t-44.5 153q0 76 39 146t95 130t111 107q193 161 407 301q14 10 28 19q-12 164 -32.5 300t-36.5 217zM-82 -676q0 -73 36.5 -120t93 -69t116.5 -22q120 0 197.5 60.5t122 163t62.5 231.5t18 267q0 73 -4 146
q-4 -3 -8 -5q-211 -140 -403 -299q-50 -42 -103 -98t-90.5 -121t-37.5 -134z" />
    <glyph glyph-name="Z" unicode="Z" horiz-adv-x="1118" 
d="M-190 871q0 70 26.5 119.5t68 75t84.5 25.5q37 0 69 -20.5t52.5 -63t20.5 -108.5t-26 -137.5t-58 -132.5q46 -26 96 -38q89 -21 180 -21q21 0 42 1q36 2 72 5q13 2 27 3h3q14 0 22 -9q4 -4 4 -10t-5 -13q-58 -77 -139 -149.5t-166 -140.5q-49 -40 -94 -78
q166 -80 277 -208q49 35 92 67q38 27 70 50l24 18q150 106 311 241t255 285q7 10 17 10q5 0 10 -3q10 -6 10 -17q0 -5 -3 -10q-97 -155 -260.5 -293t-317.5 -246q-11 -9 -23 -17q-30 -22 -67 -48q-43 -32 -93 -68q65 -85 100.5 -189t35.5 -226q0 -133 -52.5 -238.5
t-151 -166t-236.5 -60.5q-109 0 -183 72.5t-74 181.5q0 78 38.5 156t102.5 153.5t142 145t159 131.5q-16 22 -30 42q-44 67 -94 121t-136 94q-9 5 -11 16v4q0 7 6 13q151 137 278 293q20 24 40 47h-17q-84 0 -166 9q-91 10 -166 44t-120.5 102.5t-45.5 185.5zM388 -475
q0 98 -24.5 183.5t-69.5 158.5q-78 -60 -153 -126.5t-136 -138t-98 -144.5t-37 -144q0 -61 32.5 -106t84.5 -69.5t111 -24.5q70 0 136.5 41.5t110 132t43.5 237.5zM14 651q29 56 53 122.5t24 125.5q0 24 -7.5 57.5t-26 59.5t-50.5 26q-36 0 -55.5 -32t-26.5 -72.5t-7 -67.5
q0 -66 22 -122t74 -97z" />
    <glyph glyph-name="bracketleft" unicode="[" horiz-adv-x="2705" 
d="M1365 397q-219 -99 -427 -99q-132 0 -253 61t-213 155q-222 236 -222 540q0 92 40.5 180t114 145.5t172.5 57.5q117 0 204.5 -50.5t156 -136t125.5 -194t111 -226.5q46 -99 95.5 -197t108.5 -186q102 53 183 129t129 174t48 216q0 76 -37 132.5t-99 87.5t-135 31
q-92 0 -181.5 -30t-170.5 -71q-4 -2 -8 -2t-7 1q-7 2 -11 10q-3 5 -3 10q0 2 1 5q3 7 10 11q86 44 179.5 75t190.5 31q84 0 155 -36.5t113.5 -102t42.5 -152.5q0 -125 -50 -229.5t-135 -185t-192 -136.5q62 -88 139.5 -155t176.5 -105.5t226 -38.5q178 0 318 69t249.5 185
t194.5 262q6 11 16 11q5 0 11 -4q10 -6 10 -17q0 -5 -3 -10q-88 -152 -203 -272.5t-261.5 -191.5t-331.5 -71q-137 0 -242.5 41.5t-188 113.5t-147.5 165zM1342 430q-59 89 -108.5 187t-95.5 197q-52 114 -107 218.5t-119 186.5t-146 130t-189 48q-88 0 -152.5 -52
t-99.5 -131t-35 -160q0 -288 210 -512q86 -89 200.5 -146.5t237.5 -57.5q196 0 404 92z" />
    <glyph glyph-name="bracketright" unicode="]" horiz-adv-x="3181" 
d="M1451 781q-98 176 -98 375q0 91 40.5 179t114 145.5t172.5 57.5t177 -37t139.5 -100.5t111.5 -143.5q3 -6 3 -12v-3q-2 -8 -9 -12q-5 -4 -11 -4l-4 1q-8 2 -12 9q-47 74 -103.5 133t-128 94t-163.5 35q-88 0 -152.5 -52t-99.5 -131t-35 -159q0 -188 92 -354q65 41 130 84
q54 36 117 79q93 64 198.5 132t215.5 127t218 96.5t205 37.5q85 0 156 -36.5t113.5 -102t42.5 -152.5q0 -122 -51.5 -225.5t-138.5 -185t-196 -139t-226.5 -88t-227.5 -30.5q-132 0 -253.5 61t-212.5 156q-59 61 -103 131q-164 -102 -336.5 -185t-356 -132.5t-380.5 -49.5
q-145 0 -264 60t-190 170.5t-71 259.5q0 40 11 89.5t39.5 86t78.5 36.5q45 0 72 -30.5t39.5 -73t12.5 -79.5q0 -70 -29.5 -147.5t-63.5 -139.5q-7 -11 -17 -11q-15 1 -20 14q-1 3 -1 5q0 5 3 10q31 58 59.5 131t28.5 138q0 24 -8 58t-26 59.5t-50 25.5q-36 0 -55.5 -32
t-27 -72.5t-7.5 -67.5q0 -138 66 -239.5t176 -156.5t244 -55q193 0 373 49.5t349.5 131t329.5 181.5zM1505 768q42 -67 98 -125q86 -89 200 -146.5t238 -57.5q103 0 214.5 28.5t215.5 82.5t187.5 131t133 174t49.5 212q0 76 -37 132.5t-99 88t-136 31.5q-92 0 -197.5 -37.5
t-214 -96t-212 -126t-193.5 -129.5q-63 -43 -116 -78q-65 -42 -131 -84z" />
    <glyph glyph-name="asciicircum" unicode="^" horiz-adv-x="0" 
d="M-234 1281q54 -102 157 -215q47 -57 77 -57q41 0 90 57q210 223 210 376q0 159 -132 160q-97 0 -141 -72q-26 58 -69 87q-29 -146 -192 -336zM-267 1243l-31 -34q-61 -71 -112 -72q-38 0 -97 72q-266 292 -266 523q0 199 185 201q148 0 212 -144q54 90 176 90
q157 -2 164 -182q42 -36 69 -96q54 90 176 90q165 -2 165 -200q0 -191 -263 -470q-61 -71 -112 -72q-38 0 -97 72q-106 116 -169 222zM-287 1277q-77 143 -77 267q0 199 185 201q39 0 72 -10q-30 65 -114 65q-97 0 -141 -72q-51 115 -169 115q-148 -1 -148 -160
q0 -185 213 -419q47 -57 77 -57q41 0 90 57q6 7 12 13zM-251 1318q161 187 162 320q-25 7 -53 7q-148 -1 -148 -160q0 -79 39 -167z" />
    <glyph glyph-name="underscore" unicode="_" horiz-adv-x="1246" 
d="M229 -204q-29 0 -29 28q1 28 35 28h679q32 0 32 -33q0 -23 -28 -23h-689z" />
    <glyph glyph-name="grave" unicode="`" horiz-adv-x="260" 
d="M154 1016q35 -67 64 -100q12 -14 12 -27q0 -16 -17 -17q-27 0 -101 71q-82 78 -82 127q0 15 9 24q10 9 27 10q45 0 88 -88z" />
    <glyph glyph-name="a" unicode="a" horiz-adv-x="1086" 
d="M327 654q12 12 30 15q10 2 19 2q22 0 41 -12q27 -16 27 -53q0 -73 4.5 -173.5t20.5 -194.5q11 -63 30 -112.5t47 -79.5t69 -30q56 0 113 51.5t112 130.5t103 166t86 161q34 67 57 107q6 10 17 10q5 0 10 -3q10 -6 10 -17q0 -5 -3 -10q-29 -51 -66 -124q-42 -82 -94 -174
t-113 -173.5t-131 -133.5t-147 -52q-53 0 -92 22.5t-66.5 61.5t-45.5 87q-29 78 -41 161t-16 147q-2 -9 -4 -21q-8 -37 -21 -85t-33.5 -94t-51 -76.5t-74.5 -30.5q-50 0 -83 29.5t-52 75t-27 95t-8 88.5q0 91 31 179.5t97 145.5t170 59h6q65 0 110 -43q21 -21 35 -54
q2 -4 2 -8q0 -3 -2 -7q-7 -12 -19 -12q-13 0 -18 12q-13 32 -35 49t-58 17q-55 0 -90 -36.5t-55 -91t-27.5 -112t-7.5 -98.5q0 -20 6 -71t22.5 -94t46.5 -46q27 5 53.5 78.5t47.5 164.5t31 147q5 25 10 37t17 23z" />
    <glyph glyph-name="b" unicode="b" horiz-adv-x="1211" 
d="M338 -82q60 6 96.5 85.5t53.5 185.5q-86 -45 -143 -98t-57 -113q0 -25 11.5 -42.5t38.5 -17.5zM188 68q-62 0 -112.5 99t-81 261.5t-31.5 353.5v13q0 132 19 262q19 137 62 260.5t112.5 219.5t170 151.5t235.5 55.5q119 0 201.5 -75.5t82.5 -197.5q0 -127 -67 -265
t-174.5 -262.5t-235 -214t-251.5 -123.5q22 -270 77 -442q27 165 115 302q30 48 81.5 93.5t110.5 47.5q72 -4 107.5 -69.5t35.5 -158.5q0 -37 -5 -75q52 21 100 40q77 30 128 53q80 37 187 99t156 136q6 10 17 10q6 0 10 -3q10 -7 10 -17q0 -5 -3 -10q-53 -81 -162.5 -145.5
t-197.5 -104.5q-44 -21 -118 -50q-63 -24 -133 -54q-16 -96 -55 -183t-99 -143.5t-137 -56.5q-47 0 -71 28.5t-24 73.5q0 44 25.5 84t64 73.5t80.5 59.5t77 44q10 87 10 152q0 66 -20 91t-48 25q-25 0 -51 -18t-43 -44q-98 -156 -117 -341q-1 -14 -8 -23.5t-30 -11.5z
M786 1471q0 105 -61 169.5t-163 64.5q-116 0 -197.5 -63.5t-134.5 -171t-81 -244t-35 -285.5q-4 -70 -4 -139q0 -78 5 -155q117 33 235 119.5t216.5 205t159 249.5t60.5 250z" />
    <glyph glyph-name="c" unicode="c" horiz-adv-x="1059" 
d="M324 905q46 0 75 -22.5t42.5 -58t13.5 -75.5q0 -56 -24 -108q-3 -8 -11 -10q-3 -1 -7 -1t-8 1q-7 4 -10 12q-1 3 -1 6q0 4 2 9q19 50 19 104q0 41 -22.5 72t-68.5 31q-56 0 -106.5 -76.5t-82 -187.5t-31.5 -214q0 -75 15.5 -150.5t50 -138t91 -100.5t136.5 -38
q83 0 157.5 39.5t141.5 105t125.5 145.5t108.5 162.5t92 154.5q20 35 37 65q6 10 17 10q5 0 10 -3q10 -6 10 -17q0 -5 -3 -10q-16 -28 -33 -57q-47 -83 -102.5 -172.5t-120.5 -175t-139.5 -154.5t-160.5 -110t-185 -41q-103 0 -178 42.5t-123.5 115t-71.5 165t-23 192.5
q0 82 26.5 168t75.5 158t116.5 117t149.5 45z" />
    <glyph glyph-name="d" unicode="d" horiz-adv-x="1343" 
d="M374 685q-4 91 -4 181q0 122 17.5 247t57 237.5t103 200.5t154.5 140t213 52q64 0 107 -31.5t64 -81.5q21 -49 21 -106v-5q-3 -99 -53.5 -199.5t-114.5 -174.5q-83 -100 -192.5 -171.5t-236.5 -102.5v-31q0 -154 18 -301q21 -162 62.5 -293t100.5 -209.5t134 -78.5
q57 0 121 60.5t127 152t119 189t98 176.5q32 60 53 96q6 10 17 10q5 0 10 -3q10 -6 10 -17q0 -5 -3 -10q-24 -41 -58 -105q-62 -118 -147.5 -259.5t-181.5 -240.5q-45 -46 -90.5 -71t-106.5 -25q-81 0 -141 36t-103.5 95.5t-72.5 131.5t-47 146t-29 139q-13 -68 -44 -167
t-85 -177t-137 -83q-61 0 -103.5 54.5t-65 139.5t-22.5 175q0 152 67.5 248t184.5 96q44 0 88.5 -14t90.5 -46zM511 912q118 30 219 97.5t179 160.5q57 69 97 163.5t42 185.5v7q0 45 -11 83q-12 42 -40.5 68t-81.5 26q-101 0 -175 -65.5t-123 -177t-75 -252.5t-31 -296z
M382 589q-2 21 -4 43q-28 26 -64.5 43t-74.5 17q-61 -3 -95.5 -47t-47.5 -107t-13 -118q0 -63 10 -140t32 -132.5t57 -55.5q17 2 31.5 16t23.5 27q62 89 97 220t48 232v2z" />
    <glyph glyph-name="e" unicode="e" horiz-adv-x="1071" 
d="M126 600q-4 -40 -4 -88q0 -178 78.5 -276.5t194.5 -98.5q211 0 410 192t266 303q6 10 17 10q5 0 10 -3q10 -6 10 -17q0 -5 -3 -10q-71 -118 -281.5 -316.5t-428.5 -198.5q-197 0 -304 109.5t-107 298.5q0 151 79.5 271.5t228.5 120.5q76 0 137 -43.5t61 -132.5
q0 -76 -61 -123t-135 -47q-104 0 -168 49zM167 746q-24 -43 -35 -105q61 -48 162 -50q58 0 97.5 35.5t39.5 94.5q0 52 -30.5 88t-84.5 36q-97 -3 -149 -99z" />
    <glyph glyph-name="f" unicode="f" horiz-adv-x="1129" 
d="M112 646q117 33 240 119t229 204.5t172 250t66 251.5q0 105 -60.5 169.5t-163.5 64.5t-181 -59t-134 -161.5t-92.5 -236.5t-54.5 -288t-21 -314zM-37 582q0 186 19 358t63.5 318t117.5 255t179.5 170t252.5 61q119 0 201.5 -75.5t82.5 -197.5q0 -128 -73 -267
t-188.5 -264t-248.5 -214t-257 -121q3 -737 67 -1104.5t217 -367.5q94 0 135 92.5t41 261.5q0 281 -104 481.5t-241 256.5q-9 6 -9 17v6q5 15 19 15q187 0 311 42q83 22 201.5 71t225.5 115.5t154 140.5q6 9 17 9q5 0 10 -2q10 -4 10 -17q0 -5 -3 -10q-50 -79 -160.5 -149
t-233 -121.5t-210.5 -74.5q-97 -33 -260 -42q145 -90 229 -293t84 -445q0 -178 -56.5 -285.5t-159.5 -107.5q-198 0 -312.5 360t-120.5 1128z" />
    <glyph glyph-name="g" unicode="g" horiz-adv-x="1219" 
d="M508 936q38 0 58 -32q8 -12 12 -26q7 -25 11.5 -52t9.5 -54q23 -129 48.5 -294.5t38.5 -346.5q148 102 296 229.5t237 271.5q6 10 17 10q5 0 10 -3q10 -6 10 -17q0 -5 -3 -10q-95 -154 -252 -288t-312 -240q4 -74 4 -148q0 -427 -156 -653t-420 -226q-112 0 -180.5 70.5
t-68.5 196.5q0 76 38.5 146.5t94.5 130.5t111 107q191 161 403 302l26 18v33q0 298 -67 716q-15 -70 -39 -148.5t-59 -149t-81 -115.5t-104 -45q-52 0 -96 53t-70.5 134t-26.5 165q0 66 20.5 125t66.5 96t123 37q70 0 127.5 -37.5t101.5 -92.5q12 56 16 90q4 23 19.5 35
t35.5 12zM-72 -676q0 -65 26.5 -111t68.5 -70.5t90 -24.5q224 0 322 215.5t105 645.5q-211 -140 -402 -301q-50 -42 -97.5 -98t-80 -121.5t-32.5 -134.5zM228 383q37 0 77 63t73 150.5t52 168.5q-3 -1 -6 -1q-8 0 -15 7q-45 55 -85 76t-74 21q-35 0 -58 -28.5t-33.5 -75.5
t-10.5 -100q0 -121 23 -201t57 -80z" />
    <glyph glyph-name="h" unicode="h" horiz-adv-x="1342" 
d="M703 484q0 -67 -10.5 -148.5t-24.5 -167.5q-14 -89 -25 -173q-9 -76 -9 -139q2 -79 22.5 -118.5t69.5 -39.5q57 0 115.5 51t116.5 134t112 184t102.5 203t87.5 190q50 112 82 172q6 11 16 11q5 0 10 -3q11 -6 11 -18q0 -4 -2 -9q-68 -130 -128 -266q-42 -94 -87 -186
q-1 -2 -2 -3q-40 -86 -113 -213t-168 -216q-108 -93 -220 -93q-44 0 -80 20.5t-58 65.5t-22 117q0 69 11 152t25 169q14 89 24 172q9 69 9 148q-1 66 -21 105t-68 39q-36 0 -65 -27t-49 -62.5t-31 -65.5q-53 -151 -53 -309q0 -25 1 -51q0 -17 -14 -27q-14 -11 -39 -11
q-46 0 -77 31t-52 72.5t-34 78.5q-53 136 -77.5 286.5t-25.5 311.5q0 119 14 240q15 128 53.5 245.5t106.5 209.5t172 145.5t252 53.5q119 0 201.5 -75.5t82.5 -197.5q0 -127 -66.5 -265t-174.5 -262t-235 -214t-251 -123q14 -113 44.5 -224t79.5 -204q3 159 55 303
q42 103 104.5 149.5t124.5 46.5q71 0 124 -53t53 -142zM113 647q117 33 235 119.5t217 205.5t160 250t61 250q0 105 -61 169.5t-164 64.5q-74 0 -140 -32q-131 -69 -200.5 -217.5t-95.5 -318.5q-23 -157 -23 -283q1 -108 11 -208z" />
    <glyph glyph-name="i" unicode="i" horiz-adv-x="763" 
d="M-1 627q6 32 41 40q13 3 25 3q22 0 42 -9q30 -13 30 -40q0 -9 -6 -89.5t-8 -178.5q-1 -39 -1 -79q0 -59 2 -121q3 -103 14.5 -192.5t34 -145.5t60.5 -56q51 0 109 67t116.5 170.5t112.5 219t98 217.5q61 139 94 199q6 10 17 10q5 0 10 -3q10 -6 10 -17q0 -5 -3 -10
q-43 -79 -107 -233q-47 -110 -102.5 -230t-118 -225.5t-130.5 -172.5t-140 -67q-63 0 -104.5 51.5t-66.5 137t-36 189.5t-12 210v30q0 89 5 168q5 93 14 157zM216 940q0 -53 -29.5 -92.5t-86.5 -39.5q-36 0 -59 16t-34.5 41t-11.5 51q0 53 30 91t86 38q52 0 78.5 -33
t26.5 -72z" />
    <glyph glyph-name="j" unicode="j" horiz-adv-x="766" 
d="M-239 -927q-59 0 -107 22t-76 65.5t-28 106.5q0 103 58 206.5t147 201.5t188.5 184.5t186.5 156.5q-23 188 -59.5 347.5t-68.5 252.5q-2 7 -2 14q0 23 20 41q22 20 52 20q43 -3 63 -52q67 -182 122 -521q138 110 280 242t229 273q6 10 17 10q5 0 10 -3q10 -6 10 -17
q0 -5 -3 -10q-93 -150 -243 -288t-294 -253q19 -135 19 -271q0 -156 -26.5 -284.5t-86.5 -228t-160 -157.5t-248 -58zM135 -31q-83 -67 -174 -149.5t-170.5 -175t-130 -188.5t-50.5 -189q0 -78 39.5 -116.5t111.5 -38.5q110 0 184 49t118 133t64 193.5t20.5 232.5t-12.5 249
zM172 940q0 -53 -29 -92.5t-86 -39.5q-37 0 -60 16t-34 41t-11 51q0 53 30 91t85 38q53 0 79 -33t26 -72z" />
    <glyph glyph-name="k" unicode="k" horiz-adv-x="1263" 
d="M575 539q0 -68 -50.5 -149.5t-115.5 -119.5l7 -42q10 -55 25.5 -131.5t37 -157.5t50 -151t64.5 -114.5t80 -44.5q36 0 86.5 63t102 151t93 170t62.5 126l7 14q33 67 65 137q81 178 174 342q5 10 16 10q5 0 11 -3q10 -5 10 -17q0 -5 -3 -10q-92 -163 -172 -340
q-33 -69 -65 -136q-6 -11 -13 -27q-35 -75 -100 -197.5t-140 -221.5q-47 -60 -92 -93t-96 -33q-48 0 -98.5 34.5t-90.5 107.5q-48 100 -74.5 229t-41.5 234q-16 78 -17 103q0 6 3 10q3 6 10 9q71 29 130.5 102.5t59.5 147.5q0 23 -11.5 38.5t-36.5 15.5q-28 0 -56.5 -31
t-51 -68.5t-32.5 -59.5q-84 -182 -98 -383q-1 -14 -13 -25.5t-34 -11.5q-37 2 -64.5 45.5t-39.5 78.5q-62 160 -84 349q-16 134 -16 259q0 51 3 101q7 169 50.5 328t123 287t195.5 204t268 76q127 0 205.5 -72t78.5 -201q0 -130 -77 -271t-198 -266.5t-258 -214t-268 -119.5
q14 -287 95 -475q23 173 95 328q24 56 76 122q25 29 56 48.5t71 20.5q40 0 68 -27.5t28 -77.5zM84 641q118 27 249 112t248 205.5t192 255t75 257.5q0 113 -67 173.5t-178 60.5q-76 0 -145 -32q-137 -67 -222 -230t-122 -375q-32 -178 -32 -359q0 -34 2 -68z" />
    <glyph glyph-name="l" unicode="l" horiz-adv-x="1072" 
d="M569 1744q129 0 208.5 -85.5t79.5 -211.5q0 -132 -68.5 -267.5t-177.5 -254t-235.5 -202.5t-246.5 -116q11 -141 39 -268t69.5 -225.5t95.5 -156t116 -57.5q58 0 113.5 30.5t105 77.5t90.5 98.5t70 96.5q83 123 153 255q16 31 33 64q28 56 58 110q6 10 17 10q5 0 10 -3
q11 -7 11 -17q0 -5 -3 -10q-31 -53 -59 -109q-16 -33 -32 -64q-71 -133 -155 -259q-33 -49 -77 -104t-97 -104t-113 -80.5t-125 -31.5q-105 0 -189 64t-145 174t-98 250.5t-49 297.5q-5 67 -5 134q0 89 9 178q15 157 59 298t117.5 250.5t178.5 173.5t242 64zM797 1447
q0 73 -25.5 131.5t-76.5 92.5t-126 34q-106 0 -185 -65.5t-132.5 -175t-84 -247t-40.5 -284.5q-5 -77 -5 -153q0 -67 4 -133q113 31 230 112t217 194.5t162 242t62 251.5z" />
    <glyph glyph-name="m" unicode="m" horiz-adv-x="1523" 
d="M858 488q22 -78 23 -199q0 -140 -5 -253q-4 -97 -5 -182q0 -123 16 -198q14 -64 55 -64q49 0 109 77.5t123 197.5t123 255t111 255q76 184 115 255q6 10 17 10q5 0 10 -3q10 -6 10 -17q0 -5 -3 -10q-43 -80 -120 -265q-81 -199 -183 -411t-205 -324q-38 -39 -82.5 -63
t-87.5 -24q-37 0 -69 25.5t-52 81.5q-25 81 -26 209v65q0 98 4 201q5 111 5 207q0 95 -13 154.5t-49 59.5q-23 0 -39.5 -38.5t-27 -93t-16.5 -106t-9 -80.5q-1 -10 -5 -33t-14.5 -40t-31.5 -18q-39 0 -58.5 35t-27.5 77.5t-10 73.5q-2 24 -11 89.5t-24.5 141t-38.5 131.5
t-53 56q-16 0 -28 -54.5t-19.5 -129t-11.5 -141.5t-5.5 -96.5t-2.5 -47.5q-5 -134 -21 -282q-2 -17 -15 -29t-32 -12q-36 0 -61 32t-41.5 78t-25.5 91t-12 74q-32 207 -39 415q0 49 36 56q10 2 20 2q23 0 47 -12q33 -18 36 -45q2 -36 10 -133t21 -209t27 -193q7 84 15 242
q5 139 15 217t14 103q15 75 43.5 112t74.5 37q42 0 82.5 -34.5t68.5 -101.5q44 -123 61 -273q10 57 29 103q22 53 53 80t77 27q39 0 74.5 -27t54.5 -84z" />
    <glyph glyph-name="n" unicode="n" horiz-adv-x="1259" 
d="M596 546q20 -67 23 -160q2 -46 2 -94t-2 -98q-1 -50 -1 -97v-47q1 -70 9.5 -125t29 -87.5t60.5 -32.5q53 0 113.5 66.5t122.5 169t119 215t103 208.5q54 114 84 168q6 10 17 10q5 0 10 -3q10 -6 10 -17q0 -5 -3 -10q-34 -61 -90 -179q-69 -148 -158 -314t-185 -271
q-45 -49 -95 -79t-115 -30q-50 0 -90.5 34.5t-61.5 111.5q-17 68 -19 158q-1 45 -1 91t1 93q1 49 1 95v46q-1 67 -8.5 120t-27.5 84t-56 31q-32 0 -56.5 -48t-43 -119.5t-31.5 -144.5t-21 -126q-5 -34 -8 -52q-9 -42 -30 -59t-45 -18q-46 0 -71.5 52.5t-34.5 94.5
q-24 93 -37 219q-13 118 -13 209q3 53 36 64q14 4 28 4q20 0 39 -8q33 -15 36 -59q0 -36 6 -117q7 -93 20.5 -191.5t32.5 -146.5q6 32 12 65q19 120 47 237q11 48 36 105q51 112 154 112q47 0 88.5 -33t63.5 -97z" />
    <glyph glyph-name="o" unicode="o" horiz-adv-x="1063" 
d="M9 155q-29 101 -29 243q2 134 19 233q-6 31 -6 61q0 107 66 163t168 56q76 0 130 -35.5t87.5 -92.5t49.5 -124.5t16 -131.5q0 -45 -9 -106h20q76 0 188 23t210.5 70t143.5 118q6 10 17 10q5 0 10 -3q10 -6 10 -17q0 -5 -3 -10q-49 -79 -152.5 -130t-221.5 -75.5
t-202 -24.5h-26q-23 -128 -84 -238q-39 -67 -92.5 -103.5t-132.5 -36.5q-56 0 -103.5 37t-73.5 114zM120 512q64 -47 151 -66.5t173 -22.5q6 62 6 104q0 55 -10 115.5t-34.5 112t-68 84t-110.5 32.5q-76 0 -127.5 -35t-64.5 -105q28 26 67 26q24 0 39 -14q13 -12 13 -33
q0 -10 -3 -22q-24 -86 -31 -176zM438 384q-84 3 -168.5 21.5t-152.5 60.5q-1 -13 -1 -32q2 -225 36.5 -297.5t85.5 -72.5q52 0 96 49.5t68.5 122.5t35.5 148z" />
    <glyph glyph-name="p" unicode="p" horiz-adv-x="1362" 
d="M625 676q58 -48 90 -129t32 -171q0 -16 -1 -32q122 7 239 34t215 87.5t162 166.5q7 10 17 10q5 0 10 -3q10 -6 10 -16q0 -4 -3 -11q-69 -115 -173 -179.5t-228 -93t-253 -35.5q-10 -77 -46.5 -142.5t-103 -106.5t-167.5 -41q-42 0 -79.5 11.5t-61.5 39.5q-30 34 -30 84
q0 62 31 104.5t81.5 63.5t123.5 21q57 0 119 1v13q0 77 -21 147q-23 77 -68 127.5t-107 50.5q-60 0 -120 -56t-115 -150q34 -150 68 -357q45 -257 47 -491q0 -149 -30 -257q-27 -82 -83 -126t-118 -44q-52 0 -98 29.5t-71 93.5q-26 76 -26 186q0 44 4 92q13 173 65 369.5
t130 369.5q-41 199 -64 284q-3 14 -3 25q0 29 21 40q15 8 32 8t36 -8q38 -15 52 -58q10 -35 26 -105q56 86 117 138q86 73 181 73q42 0 83 -14t78 -43zM293 149q0 -40 27 -65t66 -25q69 0 115 33t72 87.5t33 119.5h-131q-47 0 -88.5 -16t-67.5 -49.5t-26 -84.5zM79 268
q-51 -127 -90 -265.5t-61 -269.5t-22 -238q0 -108 24 -170q24 -64 79 -64q23 0 43 10q61 33 83 137q19 88 19 249q-4 146 -25.5 306t-49.5 305z" />
    <glyph glyph-name="q" unicode="q" horiz-adv-x="1186" 
d="M461 620q20 20 51 20q31 -1 55 -17q22 -16 22 -40q0 -15 -12 -95q-11 -74 -24.5 -179t-25 -224t-15.5 -234q-1 -38 -1 -74q0 -73 5 -136q9 -95 35 -152.5t76 -57.5q48 0 88 26q63 48 79 135q10 50 10 103q0 37 -5 75q-13 92 -37 157q-40 111 -121 196q-5 6 -5 13
q0 17 16 21q113 20 214.5 98t183 180t136.5 197q6 10 17 10q5 0 10 -3q10 -6 10 -17q0 -5 -3 -10q-55 -96 -135.5 -197t-179.5 -180.5t-211 -109.5q68 -83 105 -184q34 -92 43 -215q2 -22 2 -42q0 -98 -39 -180q-36 -68 -95 -104t-121 -36q-60 0 -111.5 38t-77.5 118
q-29 105 -29 255q3 197 22.5 370.5t38.5 302.5q-5 -12 -11 -26q-17 -43 -41 -95.5t-56.5 -101t-74.5 -80.5t-94 -32q-54 0 -90 36.5t-57 91t-30 111.5t-9 98q0 122 43 207.5t115.5 131t161.5 45.5q80 0 167 -30q79 -29 133 -93q5 -6 4.5 -14t-6.5 -13t-13 -5h-2q-8 1 -13 7
q-43 50 -105.5 76t-126.5 26q-77 0 -124 -44t-69.5 -112.5t-24.5 -145.5v-22q0 -65 10 -123q13 -69 36 -113t50 -44q29 0 61 40t63.5 99.5t58 122t45.5 109.5q13 32 20 50q4 11 8 15z" />
    <glyph glyph-name="r" unicode="r" horiz-adv-x="942" 
d="M56 1334q57 0 109 -24t85 -68.5t33 -106.5q0 -67 -33 -149t-82 -166.5t-102 -159.5q97 -54 201 -92l44 -18q12 -5 12 -18q0 -11 -11 -95q-11 -73 -21.5 -168.5t-14.5 -195.5q-1 -29 -1 -56q0 -69 7 -130q11 -86 42.5 -139.5t92.5 -53.5q55 0 111.5 67t111.5 171.5
t104.5 224t92.5 228.5q66 173 105 247q6 10 18 10q5 0 10 -3q10 -6 10 -17q0 -5 -3 -10q-45 -82 -111 -258q-81 -221 -188 -436q-23 -44 -53 -94.5t-67.5 -97t-82.5 -76t-98 -29.5q-68 0 -114.5 31.5t-74 82t-39.5 110.5t-12 116q0 167 12 282.5t23 193.5q7 46 11 82
q-90 36 -172.5 76t-148.5 93.5t-104.5 129.5t-38.5 183q0 152 92 242.5t245 90.5zM32 681q76 108 133.5 232.5t57.5 221.5q0 76 -49 118t-118 42q-72 0 -121.5 -38.5t-75 -98.5t-25.5 -126q0 -85 27 -150.5t71.5 -115t99.5 -85.5z" />
    <glyph glyph-name="s" unicode="s" horiz-adv-x="1040" 
d="M416 239q9 3 18 7q118 43 234.5 94t213.5 121t158 171q7 10 17 10q5 0 10 -3q11 -7 11 -16q0 -5 -4 -11q-23 -40 -53 -75q-78 -91 -182.5 -153.5t-213.5 -106.5q-83 -34 -167 -65q-7 -3 -15 -5q45 -53 88 -134.5t45 -208.5q0 -182 -110 -307t-250 -125q-128 0 -209.5 98
t-81.5 231q0 164 125 273.5t234 152.5q-39 42 -80 82q-52 50 -98.5 102.5t-76.5 113.5t-30 137q0 112 68.5 187t182.5 75q74 0 144 -58q53 -50 53 -128q0 -20 -3 -41q-3 -16 -20 -16q-9 0 -14 5t-5 13q0 5 1.5 16.5t1.5 22.5q0 22 -6 43q-10 36 -38 58.5t-71 22.5
q-73 0 -113.5 -52.5t-40.5 -120.5t28 -123.5t72 -105t94 -97.5q43 -41 83 -84zM311 156q-133 -57 -224.5 -148t-91.5 -227q0 -115 49.5 -199t161.5 -84q106 0 168 96.5t62 238.5q0 129 -41.5 201t-83.5 122z" />
    <glyph glyph-name="t" unicode="t" horiz-adv-x="961" 
d="M44 1105q18 155 30 250q8 46 43 60q19 8 37 8q15 0 30 -6q29 -12 29 -51q0 -7 -2 -25q-8 -69 -24 -202q-1 -4 -1 -8q149 36 285 113q260 147 260 346q0 21 8.5 30t23.5 9t21.5 -10t6.5 -29q0 -233 -279 -381q-157 -83 -331 -121q-27 -233 -43 -468q-13 -193 -13 -387
q0 -36 3 -109t11.5 -164.5t23.5 -185.5t39 -173.5t58.5 -129t81.5 -49.5q46 0 93.5 47.5t92.5 120t83.5 152t67 147t42.5 104.5q78 198 148 400q7 21 16 47q16 50 36 102.5t40 89.5q6 10 17 10q5 0 10 -3q10 -6 10 -17q0 -5 -3 -10q-19 -35 -38 -86t-35 -99l-16 -48
q-70 -202 -148 -401q-12 -29 -25 -63q-24 -65 -56 -141.5t-71.5 -152.5t-87 -139.5t-104 -102t-122.5 -38.5q-69 0 -119 52t-83.5 136.5t-54 186t-31 202t-14 184.5t-3.5 131q0 195 13 390q15 222 40 442q-69 -7 -139 -8q-287 0 -427 103q-111 83 -111 153q1 40 41 41
q35 0 68 -60q112 -184 429 -197q73 0 143 8z" />
    <glyph glyph-name="u" unicode="u" horiz-adv-x="1304" 
d="M689 569q-1 -34 -1 -68q0 -65 3 -131q0 -19 3.5 -72.5t10.5 -122.5t19 -135t30.5 -110t43.5 -44q43 0 101 66t120 165.5t120 205.5t102 191q42 81 63 118q5 10 18 10q5 0 10 -3q10 -6 10 -17q0 -5 -3 -10q-25 -44 -69 -129q-53 -103 -122.5 -229t-144.5 -233
q-47 -67 -88.5 -116t-84.5 -76.5t-95 -27.5t-92.5 63t-64.5 201q-22 140 -26 301q-24 -178 -76 -315q-37 -91 -81.5 -133t-105.5 -42q-59 0 -122 46.5t-102 141.5q-43 122 -54 266.5t-11 245.5v42q1 36 35 49q18 8 37 8q14 0 29 -5q34 -11 37 -48q1 -17 1 -42
q0 -55 2.5 -135t12 -166.5t29.5 -162t55.5 -123.5t90.5 -48q42 0 74 48t55.5 126t40 170.5t28.5 184.5q5 50 11 94q5 58 78 58t73 -57z" />
    <glyph glyph-name="v" unicode="v" horiz-adv-x="1209" 
d="M123 45q-54 149 -86.5 331t-36.5 256q0 49 30 62q14 6 28 6q19 0 40 -12q35 -19 41 -65q14 -148 46 -293q4 -18 18 -74.5t34 -124.5t41.5 -118.5t39.5 -50.5q50 0 102.5 85.5t99 214t79.5 266.5q-81 47 -130 126.5t-49 190.5q0 83 29 135t72 71q24 11 48 11q18 0 36 -6
q43 -15 72 -66t29 -139q0 -90 -46 -311q100 -42 213 -42q54 0 121 12t125 41.5t90 80.5q6 10 17 10q5 0 10 -3q10 -6 10 -17q0 -5 -3 -10q-36 -58 -99 -92t-136 -48t-135 -14q-117 0 -222 43q-34 -146 -88 -288t-126 -236.5t-160 -98.5h-3q-85 0 -151 167zM608 569
q39 175 39 282q0 91 -29 133q-26 38 -59 38h-6q-37 -3 -65.5 -48.5t-28.5 -128.5q0 -96 40.5 -165t108.5 -111z" />
    <glyph glyph-name="w" unicode="w" horiz-adv-x="1558" 
d="M425 104q-20 40 -33 108.5t-17 152.5q-1 23 -1 45q0 61 6 122q8 84 30.5 154t61.5 113.5t97 43.5q31 0 39 -49q3 -23 3 -51q0 -32 -4 -71q-8 -72 -23 -148t-29 -133t-19 -73q-7 -30 -23 -84q18 -79 50 -129t81 -50t102.5 73t102.5 186t85 238q-65 60 -98.5 138t-33.5 165
q0 38 10 86t39 84t72 36q69 0 99 -59q29 -57 29 -148q-1 -113 -52 -303q98 -68 243 -72q92 0 173 30q88 33 143 123q6 10 17 10q5 0 10 -3q10 -6 10 -17q0 -5 -3 -10q-61 -100 -158 -138q-87 -34 -188 -34q-155 3 -258 71q-28 -94 -67 -185.5t-88 -166.5t-107 -120.5
t-123 -45.5q-86 0 -151 70q-12 -32 -32 -73.5t-47 -80.5t-59.5 -65.5t-69.5 -26.5q-50 0 -95 33.5t-75 100.5q-41 99 -57 242q-17 172 -17 313q1 104 5 143q7 42 41 54q15 5 29 5q20 0 38 -9q31 -15 31 -53q0 -17 -3 -118v-44q0 -117 12 -252t42 -233.5t83 -104.5
q39 2 77 64t70 146zM946 596q29 112 40 208q5 42 5 78q0 45 -8 79q-14 60 -60 60q-34 0 -51.5 -31t-23.5 -70q-6 -33 -6 -64q0 -147 104 -260zM497 322q11 41 34 146t37 207q8 52 8 85q0 43 -14 43q-23 0 -39.5 -43.5t-24 -108.5t-8.5 -134v-33q0 -49 2 -89q2 -54 5 -73z
" />
    <glyph glyph-name="x" unicode="x" horiz-adv-x="1211" 
d="M304 324q73 68 134 144.5t97 171.5q6 13 20 13q20 0 26 -11q2 -4 2 -10q0 -3 -1 -6q-40 -101 -107 -182t-147 -153q80 -106 161 -152t164 -46q89 0 180 65t185.5 185.5t192.5 288.5q6 10 17 10q5 0 10 -3q10 -6 10 -17q0 -5 -3 -10q-128 -218 -252 -355
q-90 -100 -191 -158.5t-207 -58.5q-88 0 -175.5 41t-172.5 133q-49 -46 -92 -98t-68 -109q-6 -12 -27 -12q-8 0 -14.5 6t-6.5 13q0 4 2 8q28 63 76 119t102 105q-68 84 -121 177.5t-91 177.5q-7 17 -7 32q0 20 13 37q17 24 46 24q6 0 12 -1q38 -7 71 -74q81 -179 162 -295z
" />
    <glyph glyph-name="y" unicode="y" horiz-adv-x="1244" 
d="M500 729q18 8 38 8q11 0 23 -3q32 -8 42 -46q13 -76 33 -171q37 -175 66 -379q165 93 305.5 213.5t236.5 280.5q6 10 17 10q5 0 10 -3q10 -6 10 -17q0 -5 -3 -10q-99 -165 -242.5 -288.5t-328.5 -228.5q13 -107 13 -214q-2 -151 -29 -262t-87.5 -197.5t-162.5 -147.5
t-256 -61q-88 0 -163.5 24.5t-121.5 86.5t-46 145q0 89 40 160t104 125.5t137 94.5q131 72 267 135q86 41 171 84q-30 238 -75 441l-8 42q-2 -21 -4 -46q-5 -63 -15.5 -140t-33 -148.5t-63 -118.5t-107.5 -47q-81 0 -132 36.5t-79.5 96t-40.5 131t-15 144.5q-1 48 -1 92v72
q2 45 36 56q13 4 27 4q19 0 39 -9q35 -16 37 -52v-42q0 -31 1 -72q1 -62 8.5 -130.5t24 -130t46 -100.5t76.5 -39q42 0 70 54t46.5 134.5t29 165t16.5 149.5q5 52 9 77q5 29 35 41zM577 26q-77 -39 -156 -76q-135 -64 -267 -135q-66 -37 -120.5 -86.5t-87.5 -114t-33 -145.5
q0 -62 31.5 -109.5t81 -64t101.5 -16.5q159 0 254.5 71t142.5 173.5t57 232.5q4 54 4 110q0 78 -8 160z" />
    <glyph glyph-name="z" unicode="z" horiz-adv-x="1123" 
d="M-185 869q0 74 25 122.5t62.5 72.5t79.5 24q40 0 75 -21t56.5 -63.5t21.5 -105.5q0 -65 -26 -137t-58 -133q46 -25 97 -38q89 -21 180 -21q21 0 42 1q38 2 64.5 5t36.5 3q14 0 22 -8q5 -5 5 -11q0 -5 -5 -12q-14 -19 -45 -59q-58 -75 -126 -166.5t-86 -131.5
q75 -42 130 -94q90 45 129 65q105 54 227 124.5t230 157t171 189.5q6 10 17 10q5 0 10 -3q10 -6 10 -17q0 -5 -3 -10q-66 -107 -175.5 -196.5t-234.5 -161.5t-234 -128q-36 -19 -118 -60q144 -160 144 -400q-4 -151 -71.5 -242t-171.5 -138.5t-212 -47.5q-91 0 -170.5 29
t-128.5 89.5t-49 155.5q0 73 36.5 139t95.5 124.5t129.5 108t140 89.5t126.5 70q-63 67 -156 118q-12 7 -12 21q1 26 34 76q46 70 97 136q33 44 67 88q19 24 37 48h-14q-85 0 -169 11q-91 12 -166 47t-121 102.5t-46 178.5zM18 651q29 56 53.5 122t24.5 125q0 24 -8 58
t-26.5 59.5t-50.5 25.5q-35 0 -54.5 -31.5t-27 -72.5t-7.5 -68q0 -65 22.5 -121t73.5 -97zM290 12q-65 -34 -148.5 -85t-162.5 -115.5t-131.5 -140t-52.5 -159.5q0 -80 30 -126.5t83.5 -66.5t125.5 -20q145 0 252.5 99t114.5 264q0 207 -111 350z" />
    <glyph glyph-name="braceleft" unicode="{" horiz-adv-x="1861" 
d="M740 806q-114 209 -179 307t-156.5 161.5t-199.5 63.5q-90 0 -136.5 -59t-46.5 -145q0 -146 70 -284t186 -256q97 -99 213 -177q34 39 65 85q70 98 184 304zM787 806q-121 -217 -197 -324q-31 -47 -66 -87q7 -5 14 -9q144 -89 295.5 -139t287.5 -50q245 0 430.5 112.5
t309.5 322.5q6 11 16 11q6 0 11 -4q10 -7 10 -17q0 -5 -3 -10q-129 -220 -324 -337.5t-450 -117.5q-143 0 -300 52.5t-306 145.5q-9 5 -18 11q-33 -33 -73 -59q-100 -69 -219 -69q-71 0 -120.5 32t-76 87.5t-26.5 123.5q0 118 43 231q7 18 25 18q15 -1 15 -19q0 -7 -2 -13
q-41 -106 -41 -217q0 -86 46.5 -145t136.5 -59q108 0 199 64q32 21 59 47q-118 81 -217 182q-120 123 -192 267t-72 297q0 68 26.5 123.5t76 87.5t120.5 32q119 0 219.5 -68.5t171 -175.5t191.5 -327z" />
    <glyph glyph-name="bar" unicode="|" horiz-adv-x="1020" 
d="M533 1580q-27 -31 -50 -31q-17 0 -44 31q-120 125 -120 224q0 85 84 86q66 0 95 -62q24 39 79 39q74 -1 74 -86q0 -82 -118 -201zM527 1271q-24 -26 -44 -26q-15 0 -38 26q-103 106 -103 190q0 72 72 73q58 0 82 -52q21 32 69 32q64 0 64 -72q0 -70 -102 -171zM522 982
q-21 -24 -39 -24q-13 0 -34 24q-93 98 -93 175q0 66 65 67q52 0 74 -48q19 30 62 30q57 -1 57 -67q0 -64 -92 -157zM442 632q-109 110 -109 185q0 78 68 79q50 0 73 -36q26 57 87 57q76 -1 76 -79q0 -91 -109 -206q-25 -28 -40 -28q-21 0 -46 28zM525 280q-23 -25 -42 -25
q-14 0 -36 25q-99 105 -99 187q0 71 69 72q55 0 79 -52q20 33 66 33q61 -1 61 -72q0 -68 -98 -168zM534 -142q-28 -35 -51 -35q-17 0 -44 35q-121 142 -121 255q0 97 84 98q67 0 96 -70q25 43 80 43q75 -1 75 -97q0 -93 -119 -229zM432 -898q-132 150 -132 253q0 106 82 107
q62 0 89 -48q32 78 106 78q93 -2 93 -109q0 -124 -134 -281q-29 -39 -48 -39q-26 0 -56 39zM452 -448q-83 87 -83 146q0 61 52 62q39 0 56 -28q20 44 66 44q59 0 59 -62q0 -71 -84 -162q-19 -22 -31 -22q-16 1 -35 22z" />
    <glyph glyph-name="braceright" unicode="}" horiz-adv-x="1868" 
d="M1155 806q114 -206 184 -304q31 -46 65 -85q116 78 213 177q116 118 186 256t70 284q0 86 -46.5 145t-136.5 59q-108 0 -199.5 -63.5t-156.5 -161.5t-179 -307zM1108 806q121 220 191.5 327t171 175.5t219.5 68.5q71 0 120.5 -32t76 -87.5t26.5 -123.5q0 -153 -72 -297
t-192 -267q-99 -101 -217 -182q27 -26 59 -47q91 -64 199 -64q90 0 136.5 59t46.5 145q0 111 -41 217q-2 6 -2 13q0 18 15 19q18 0 25 -18q43 -113 43 -231q0 -68 -26.5 -123.5t-76 -87.5t-120.5 -32q-119 0 -219 69q-40 26 -73 59q-9 -6 -18 -11q-149 -93 -306 -145.5
t-300 -52.5q-255 0 -450 117.5t-324 337.5q-3 5 -3 10q0 10 10 17q5 4 11 4q10 0 16 -11q124 -210 309.5 -322.5t430.5 -112.5q136 0 287.5 50t295.5 139q7 4 14 9q-35 40 -66 87q-76 107 -197 324z" />
    <glyph glyph-name="asciitilde" unicode="~" horiz-adv-x="3346" 
d="M1664 645q-74 91 -125 192q-72 144 -72 297q0 68 26.5 123.5t76 87.5t120.5 32t120.5 -32t76 -87.5t26.5 -123.5q0 -153 -72 -297q-51 -101 -125 -192q23 -26 48 -51q116 -119 259.5 -208t295 -139t287.5 -50q245 0 430.5 112.5t309.5 322.5q6 11 16 11q6 0 11 -4
q10 -7 10 -17q0 -5 -3 -10q-129 -220 -324 -337.5t-450 -117.5q-143 0 -300 52.5t-305.5 145t-268.5 215.5q-22 22 -42 45q-20 -23 -41 -45q-121 -123 -269.5 -215.5t-305.5 -145t-300 -52.5q-255 0 -450 117.5t-324 337.5q-3 5 -3 10q0 10 10 17q5 4 11 4q10 0 16 -11
q124 -210 309.5 -322.5t430.5 -112.5q136 0 287.5 50t295 139t260.5 208q24 25 47 51zM1690 1338q-90 0 -136.5 -59t-46.5 -145q0 -146 70 -284q46 -91 113 -174q67 83 113 174q70 138 70 284q0 86 -46.5 145t-136.5 59z" />
    <glyph glyph-name="exclamdown" unicode="&#xa1;" horiz-adv-x="621" 
d="M195 892q0 53 29 92.5t86 39.5q37 0 60 -16t34 -41t11 -51q0 -53 -30 -91t-85 -38q-53 0 -79 33t-26 72zM241.5 296q47.5 312 47.5 388q0 27 23 28q25 0 25 -26q0 -144 42 -527t42 -715q0 -51 -26.5 -83.5t-62.5 -32.5q-134 0 -138 452q0 204 47.5 516z" />
    <glyph glyph-name="dieresis" unicode="&#xa8;" horiz-adv-x="631" 
d="M270 994q0 -38 -22.5 -66t-66.5 -28q-28 0 -46 11.5t-26.5 29t-8.5 35.5q0 38 23 65t66 27q40 0 60.5 -23.5t20.5 -50.5zM499 990q0 -36 -22 -63t-64 -27q-27 0 -44.5 11t-25.5 28t-8 35q0 36 22 62t63 26q40 0 59.5 -22.5t19.5 -49.5z" />
    <glyph glyph-name="acute" unicode="&#xb4;" horiz-adv-x="260" 
d="M194 1104q17 -1 27 -10q9 -9 9 -24q0 -49 -82 -127q-74 -71 -101 -71q-17 1 -17 17q0 13 12 27q29 33 64 100q43 88 88 88z" />
    <glyph glyph-name="periodcentered" unicode="&#xb7;" horiz-adv-x="508" 
d="M187 729q0 -45 -24.5 -78.5t-73.5 -33.5q-31 0 -50.5 13.5t-29 34.5t-9.5 43q0 46 25.5 78t72.5 32q45 0 67 -28t22 -61z" />
    <glyph glyph-name="periodcentered" unicode="&#x2219;" horiz-adv-x="508" 
d="M187 729q0 -45 -24.5 -78.5t-73.5 -33.5q-31 0 -50.5 13.5t-29 34.5t-9.5 43q0 46 25.5 78t72.5 32q45 0 67 -28t22 -61z" />
    <glyph glyph-name="cedilla" unicode="&#xb8;" horiz-adv-x="439" 
d="M198 19q-4 -28 -23 -87q21 8 63 8q41 0 71 -33t30 -75q0 -80 -60 -124q-105 -76 -152 -76q-27 0 -27 17q0 12 8 19q17 16 69 50q68 50 68 110q0 33 -11.5 46.5t-34.5 13.5q-23 -1 -45 -8.5t-27 -7.5q-9 0 -10 13q1 16 6 32q18 71 25 102h50z" />
    <glyph glyph-name="questiondown" unicode="&#xbf;" horiz-adv-x="991" 
d="M414 892q0 53 29 92.5t86 39.5q37 0 60 -16t34 -41t11 -51q0 -53 -30 -91t-85 -38q-53 0 -79 33t-26 72zM506 654q78 -2 129.5 -69t51.5 -170q0 -204 -173.5 -437t-173.5 -452q0 -57 21 -113.5t65.5 -94t113.5 -37.5q93 0 152 71t59 205q0 19 21 19q19 0 19 -19
q0 -174 -76 -258t-215 -84q-143 1 -221.5 103t-78.5 239q2 227 189.5 468t187.5 397q-1 174 -101 178q-39 0 -60.5 -21.5t-28.5 -54.5q-4 -20 -4 -40q0 -14 2 -28q5 -35 18 -63q2 -5 2 -9t-1 -7q-3 -7 -10 -11q-5 -2 -9 -2q-3 0 -6 1q-8 3 -12 11q-22 49 -23 105v4
q0 53 23 95q25 42 62 59q32 15 77 15z" />
    <glyph glyph-name="Agrave" unicode="&#xc0;" 
d="M-44 416q0 53 9.5 109.5t32.5 105.5q33 65 84 100t104 35q40 0 76 -25t62 -75q3 31 22 47q19 14 51 22q12 3 23 3q56 0 56 -36q0 -5 -1 -11q-2 -8 -4 -18q-5 -25 -11.5 -79t-10.5 -124q-4 -55 -4 -111q1 -88 12 -164q11 -61 35 -99.5t66 -38.5q55 0 117.5 45t124.5 115
t118 149t100 150t70 116q7 10 18 10q5 0 9 -3q10 -7 10 -17q0 -5 -3 -10q-33 -57 -83 -135t-112 -161t-127.5 -154.5t-137 -116.5t-156.5 -45q-60 0 -105.5 59t-70 154.5t-24.5 207.5q-30 -142 -70.5 -208.5t-99.5 -66.5q-82 0 -131 71.5t-49 198.5zM307 604q-6 20 -17 43
t-28 40.5t-41 17.5q-20 0 -37 -16.5t-30 -38t-21 -37.5q-21 -44 -29.5 -96.5t-8.5 -100.5q0 -15 3 -49.5t11.5 -71.5t23 -63.5t37.5 -26.5q25 0 47 54.5t38 118.5t23 101q17 79 29 125zM224 1016q35 -66 64 -100q12 -14 12 -27q0 -16 -17 -17q-26 0 -101 72q-82 77 -82 126
q0 15 10 24q9 9 26 10q45 0 88 -88z" />
    <glyph glyph-name="Aacute" unicode="&#xc1;" 
d="M-44 416q0 53 9.5 109.5t32.5 105.5q33 65 84 100t104 35q40 0 76 -25t62 -75q3 31 22 47q19 14 51 22q12 3 23 3q56 0 56 -36q0 -5 -1 -11q-2 -8 -4 -18q-5 -25 -11.5 -79t-10.5 -124q-4 -55 -4 -111q1 -88 12 -164q11 -61 35 -99.5t66 -38.5q55 0 117.5 45t124.5 115
t118 149t100 150t70 116q7 10 18 10q5 0 9 -3q10 -7 10 -17q0 -5 -3 -10q-33 -57 -83 -135t-112 -161t-127.5 -154.5t-137 -116.5t-156.5 -45q-60 0 -105.5 59t-70 154.5t-24.5 207.5q-30 -142 -70.5 -208.5t-99.5 -66.5q-82 0 -131 71.5t-49 198.5zM307 604q-6 20 -17 43
t-28 40.5t-41 17.5q-20 0 -37 -16.5t-30 -38t-21 -37.5q-21 -44 -29.5 -96.5t-8.5 -100.5q0 -15 3 -49.5t11.5 -71.5t23 -63.5t37.5 -26.5q25 0 47 54.5t38 118.5t23 101q17 79 29 125zM436 1104q17 -1 26 -10q10 -9 10 -24q0 -49 -82 -127q-74 -71 -101 -71q-17 1 -17 17
q0 13 12 27q29 33 64 100q43 88 88 88z" />
    <glyph glyph-name="Acircumflex" unicode="&#xc2;" 
d="M-44 416q0 53 9.5 109.5t32.5 105.5q33 65 84 100t104 35q40 0 76 -25t62 -75q3 31 22 47q19 14 51 22q12 3 23 3q56 0 56 -36q0 -5 -1 -11q-2 -8 -4 -18q-5 -25 -11.5 -79t-10.5 -124q-4 -55 -4 -111q1 -88 12 -164q11 -61 35 -99.5t66 -38.5q55 0 117.5 45t124.5 115
t118 149t100 150t70 116q7 10 18 10q5 0 9 -3q10 -7 10 -17q0 -5 -3 -10q-33 -57 -83 -135t-112 -161t-127.5 -154.5t-137 -116.5t-156.5 -45q-60 0 -105.5 59t-70 154.5t-24.5 207.5q-30 -142 -70.5 -208.5t-99.5 -66.5q-82 0 -131 71.5t-49 198.5zM307 604q-6 20 -17 43
t-28 40.5t-41 17.5q-20 0 -37 -16.5t-30 -38t-21 -37.5q-21 -44 -29.5 -96.5t-8.5 -100.5q0 -15 3 -49.5t11.5 -71.5t23 -63.5t37.5 -26.5q25 0 47 54.5t38 118.5t23 101q17 79 29 125zM244 1002q-20 -27 -53 -59q-74 -71 -101 -71q-17 1 -17 17q0 13 12 27q29 33 64 100
q39 87 95 88q56 -1 96 -88q35 -67 64 -100q12 -14 12 -27q0 -16 -17 -17q-27 0 -102 71q-34 32 -53 59z" />
    <glyph glyph-name="Atilde" unicode="&#xc3;" 
d="M-44 416q0 53 9.5 109.5t32.5 105.5q33 65 84 100t104 35q40 0 76 -25t62 -75q3 31 22 47q19 14 51 22q12 3 23 3q56 0 56 -36q0 -5 -1 -11q-2 -8 -4 -18q-5 -25 -11.5 -79t-10.5 -124q-4 -55 -4 -111q1 -88 12 -164q11 -61 35 -99.5t66 -38.5q55 0 117.5 45t124.5 115
t118 149t100 150t70 116q7 10 18 10q5 0 9 -3q10 -7 10 -17q0 -5 -3 -10q-33 -57 -83 -135t-112 -161t-127.5 -154.5t-137 -116.5t-156.5 -45q-60 0 -105.5 59t-70 154.5t-24.5 207.5q-30 -142 -70.5 -208.5t-99.5 -66.5q-82 0 -131 71.5t-49 198.5zM307 604q-6 20 -17 43
t-28 40.5t-41 17.5q-20 0 -37 -16.5t-30 -38t-21 -37.5q-21 -44 -29.5 -96.5t-8.5 -100.5q0 -15 3 -49.5t11.5 -71.5t23 -63.5t37.5 -26.5q25 0 47 54.5t38 118.5t23 101q17 79 29 125zM294 996q45 -27 70 -27q13 0 23 30q4 10 16 10q17 0 17 -21q0 -30 -25.5 -55.5
t-61.5 -25.5q-53 0 -121 40q-45 27 -70 27q-13 0 -23 -30q-4 -10 -16 -10q-17 0 -17 21q0 30 25.5 55.5t61.5 25.5q52 0 121 -40z" />
    <glyph glyph-name="Adieresis" unicode="&#xc4;" 
d="M-44 416q0 53 9.5 109.5t32.5 105.5q33 65 84 100t104 35q40 0 76 -25t62 -75q3 31 22 47q19 14 51 22q12 3 23 3q56 0 56 -36q0 -5 -1 -11q-2 -8 -4 -18q-5 -25 -11.5 -79t-10.5 -124q-4 -55 -4 -111q1 -88 12 -164q11 -61 35 -99.5t66 -38.5q55 0 117.5 45t124.5 115
t118 149t100 150t70 116q7 10 18 10q5 0 9 -3q10 -7 10 -17q0 -5 -3 -10q-33 -57 -83 -135t-112 -161t-127.5 -154.5t-137 -116.5t-156.5 -45q-60 0 -105.5 59t-70 154.5t-24.5 207.5q-30 -142 -70.5 -208.5t-99.5 -66.5q-82 0 -131 71.5t-49 198.5zM307 604q-6 20 -17 43
t-28 40.5t-41 17.5q-20 0 -37 -16.5t-30 -38t-21 -37.5q-21 -44 -29.5 -96.5t-8.5 -100.5q0 -15 3 -49.5t11.5 -71.5t23 -63.5t37.5 -26.5q25 0 47 54.5t38 118.5t23 101q17 79 29 125zM234 979q0 -38 -22.5 -66t-66.5 -28q-28 0 -46 11.5t-26.5 29t-8.5 36.5
q0 38 23.5 64.5t65.5 26.5q41 0 61 -23t20 -51zM463 976q0 -37 -21.5 -64t-64.5 -27q-27 0 -44 11t-25.5 28t-8.5 35q0 37 22.5 62.5t63.5 25.5q39 0 58.5 -22.5t19.5 -48.5z" />
    <glyph glyph-name="Aring" unicode="&#xc5;" 
d="M-44 416q0 53 9.5 109.5t32.5 105.5q33 65 84 100t104 35q40 0 76 -25t62 -75q3 31 22 47q19 14 51 22q12 3 23 3q56 0 56 -36q0 -5 -1 -11q-2 -8 -4 -18q-5 -25 -11.5 -79t-10.5 -124q-4 -55 -4 -111q1 -88 12 -164q11 -61 35 -99.5t66 -38.5q55 0 117.5 45t124.5 115
t118 149t100 150t70 116q7 10 18 10q5 0 9 -3q10 -7 10 -17q0 -5 -3 -10q-33 -57 -83 -135t-112 -161t-127.5 -154.5t-137 -116.5t-156.5 -45q-60 0 -105.5 59t-70 154.5t-24.5 207.5q-30 -142 -70.5 -208.5t-99.5 -66.5q-82 0 -131 71.5t-49 198.5zM307 604q-6 20 -17 43
t-28 40.5t-41 17.5q-20 0 -37 -16.5t-30 -38t-21 -37.5q-21 -44 -29.5 -96.5t-8.5 -100.5q0 -15 3 -49.5t11.5 -71.5t23 -63.5t37.5 -26.5q25 0 47 54.5t38 118.5t23 101q17 79 29 125zM424 1047q0 -68 -40.5 -119t-120.5 -51q-51 0 -83 21t-47.5 53t-15.5 65
q0 69 41.5 117.5t118.5 48.5q74 0 110.5 -42.5t36.5 -92.5zM387 1043q0 38 -27.5 70t-83.5 32q-59 0 -90.5 -36.5t-31.5 -89.5q0 -25 11.5 -49.5t36 -40.5t63.5 -16q60 0 91 39t31 91z" />
    <glyph glyph-name="AE" unicode="&#xc6;" horiz-adv-x="1188" 
d="M307 604q-6 20 -17 43t-28 40.5t-41 17.5q-20 0 -37 -16.5t-30 -38t-21 -37.5q-21 -44 -29.5 -96.5t-8.5 -100.5q0 -15 3 -49.5t11.5 -71.5t23 -63.5t37.5 -26.5q25 0 47 54.5t38 118.5t23 101q17 79 29 125zM754 722q0 51 -30 87.5t-85 36.5q-50 0 -83.5 -30.5t-55 -79
t-33.5 -105.5q35 -17 73 -28.5t77 -11.5q58 0 97.5 35.5t39.5 95.5zM457 575q-5 -47 -8 -105q-4 -55 -4 -111q1 -88 12 -164q11 -61 50 -99.5t121 -38.5q85 0 147.5 45t124.5 115t118 149t100 150t70 116q7 10 18 10q5 0 9 -3q10 -7 10 -17q0 -5 -3 -10q-33 -57 -83 -135
t-112 -161t-127.5 -154.5t-137 -116.5t-186.5 -45q-100 0 -160.5 59t-85 154.5t-24.5 207.5q-30 -142 -70.5 -208.5t-99.5 -66.5q-82 0 -131 71.5t-49 198.5q0 53 9.5 109.5t32.5 105.5q33 65 84 100t104 35q40 0 76 -25t62 -75q2 20 11 34q7 19 15 35q43 84 111.5 123
t144.5 39q83 0 135 -43.5t52 -132.5q0 -76 -51 -123t-125 -47q-81 0 -157 39q-1 -7 -3 -15z" />
    <glyph glyph-name="Ccedilla" unicode="&#xc7;" horiz-adv-x="1070" 
d="M311 45q-154 14 -237 119q-96 121 -96 313q0 176 92 290.5t228 114.5q46 0 83 -17t62 -59q23 -41 23 -95v-4q-1 -56 -23 -105q-4 -8 -12 -11q-3 -1 -6 -1q-4 0 -9 2q-7 4 -10 11q-1 3 -1 7t2 9q13 28 18 63q2 15 2 29q0 20 -4 39q-7 33 -28.5 54.5t-60.5 21.5
q-86 0 -147 -132t-61 -278q0 -156 67.5 -237t185.5 -81q92 0 193.5 53.5t198 136t174.5 174t125 170.5q6 10 18 10q5 0 10 -3q10 -6 10 -17q0 -5 -3 -10q-51 -86 -134 -184t-186 -185t-213 -143q-109 -57 -211 -57q-6 -27 -20 -71q21 8 63 8q41 0 71 -33t30 -75
q0 -80 -60 -124q-105 -76 -152 -76q-27 0 -27 17q0 12 8 19q17 16 69 50q68 50 68 110q0 33 -11.5 46.5t-34.5 13.5q-23 -1 -45 -8.5t-27 -7.5q-9 0 -9 13q1 16 6 32q14 57 21 88z" />
    <glyph glyph-name="Egrave" unicode="&#xc8;" horiz-adv-x="1076" 
d="M-11 515q0 136 43 220t111.5 123t144.5 39q83 0 135 -43.5t52 -132.5q0 -76 -51 -123t-125 -47q-81 0 -157 39q-12 -67 -15 -139v-15q0 -64 15 -119q18 -62 66.5 -101t141.5 -39q131 0 274.5 68.5t264 172t187.5 214.5q6 10 17 10q5 0 10 -3q10 -6 10 -17q0 -5 -3 -10
q-71 -118 -196.5 -225.5t-275.5 -178.5t-288 -71q-110 0 -191 34.5t-125.5 117t-44.5 226.5zM436 721q0 52 -30.5 88t-84.5 36q-50 0 -83.5 -30.5t-55 -79t-33.5 -104.5q35 -18 73 -29t77 -11q58 0 97.5 35.5t39.5 94.5zM242 1125q35 -67 64 -100q12 -14 12 -27
q0 -16 -17 -17q-27 0 -102 71q-81 78 -81 127q0 15 9 24q10 9 27 10q44 0 88 -88z" />
    <glyph glyph-name="Eacute" unicode="&#xc9;" horiz-adv-x="1076" 
d="M-11 515q0 136 43 220t111.5 123t144.5 39q83 0 135 -43.5t52 -132.5q0 -76 -51 -123t-125 -47q-81 0 -157 39q-12 -67 -15 -139v-15q0 -64 15 -119q18 -62 66.5 -101t141.5 -39q131 0 274.5 68.5t264 172t187.5 214.5q6 10 17 10q5 0 10 -3q10 -6 10 -17q0 -5 -3 -10
q-71 -118 -196.5 -225.5t-275.5 -178.5t-288 -71q-110 0 -191 34.5t-125.5 117t-44.5 226.5zM436 721q0 52 -30.5 88t-84.5 36q-50 0 -83.5 -30.5t-55 -79t-33.5 -104.5q35 -18 73 -29t77 -11q58 0 97.5 35.5t39.5 94.5zM347 1211q17 -1 27 -10q9 -9 9 -24q0 -49 -81 -127
q-75 -71 -102 -71q-17 1 -17 17q0 13 12 27q29 33 64 100q44 88 88 88z" />
    <glyph glyph-name="Ecircumflex" unicode="&#xca;" horiz-adv-x="1076" 
d="M-11 515q0 136 43 220t111.5 123t144.5 39q83 0 135 -43.5t52 -132.5q0 -76 -51 -123t-125 -47q-81 0 -157 39q-12 -67 -15 -139v-15q0 -64 15 -119q18 -62 66.5 -101t141.5 -39q131 0 274.5 68.5t264 172t187.5 214.5q6 10 17 10q5 0 10 -3q10 -6 10 -17q0 -5 -3 -10
q-71 -118 -196.5 -225.5t-275.5 -178.5t-288 -71q-110 0 -191 34.5t-125.5 117t-44.5 226.5zM436 721q0 52 -30.5 88t-84.5 36q-50 0 -83.5 -30.5t-55 -79t-33.5 -104.5q35 -18 73 -29t77 -11q58 0 97.5 35.5t39.5 94.5zM243 1107q-20 -27 -53 -59q-74 -71 -101 -71
q-17 1 -17 17q0 13 12 27q29 33 64 100q39 87 95 88q56 -1 96 -88q35 -67 64 -100q12 -14 12 -27q0 -16 -17 -17q-27 0 -102 71q-34 32 -53 59z" />
    <glyph glyph-name="Edieresis" unicode="&#xcb;" horiz-adv-x="1076" 
d="M-11 515q0 136 43 220t111.5 123t144.5 39q83 0 135 -43.5t52 -132.5q0 -76 -51 -123t-125 -47q-81 0 -157 39q-12 -67 -15 -139v-15q0 -64 15 -119q18 -62 66.5 -101t141.5 -39q131 0 274.5 68.5t264 172t187.5 214.5q6 10 17 10q5 0 10 -3q10 -6 10 -17q0 -5 -3 -10
q-71 -118 -196.5 -225.5t-275.5 -178.5t-288 -71q-110 0 -191 34.5t-125.5 117t-44.5 226.5zM436 721q0 52 -30.5 88t-84.5 36q-50 0 -83.5 -30.5t-55 -79t-33.5 -104.5q35 -18 73 -29t77 -11q58 0 97.5 35.5t39.5 94.5zM216 1112q0 -38 -22.5 -66t-66.5 -28
q-28 0 -45.5 11.5t-26 29t-8.5 35.5q0 38 23 65t65 27q41 0 61 -23.5t20 -50.5zM445 1108q0 -36 -21.5 -63t-64.5 -27q-27 0 -44 11t-25.5 28t-8.5 35q0 36 22.5 62t63.5 26q39 0 58.5 -22.5t19.5 -49.5z" />
    <glyph glyph-name="Igrave" unicode="&#xcc;" horiz-adv-x="789" 
d="M162 622q0 -23 -4 -58q-2 -18 -3 -34q-5 -58 -7 -133q-1 -25 -1 -50q0 -50 3 -101q3 -76 14.5 -141.5t34.5 -106t60 -40.5q59 0 125.5 62.5t133 156.5t124.5 194t100 178q29 51 47 83q6 10 17 10q5 0 10 -2q11 -5 11 -17q0 -5 -4 -11q-21 -36 -51 -91q-70 -133 -173 -295
q-9 -14 -19 -29q-30 -49 -68.5 -103t-84.5 -102t-101 -78.5t-119 -30.5q-65 0 -105.5 49.5t-62.5 129t-31 172t-10 180.5v155q1 32 1 56t25.5 37t56.5 13q30 0 55.5 -13t25.5 -40zM56 1039q35 -67 64 -100q12 -14 12 -27q0 -16 -17 -17q-27 0 -101 71q-82 78 -82 127
q0 15 10 24q9 9 26 10q45 0 88 -88z" />
    <glyph glyph-name="Iacute" unicode="&#xcd;" horiz-adv-x="789" 
d="M162 622q0 -23 -4 -58q-2 -18 -3 -34q-5 -58 -7 -133q-1 -25 -1 -50q0 -50 3 -101q3 -76 14.5 -141.5t34.5 -106t60 -40.5q59 0 125.5 62.5t133 156.5t124.5 194t100 178q29 51 47 83q6 10 17 10q5 0 10 -2q11 -5 11 -17q0 -5 -4 -11q-21 -36 -51 -91q-70 -133 -173 -295
q-9 -14 -19 -29q-30 -49 -68.5 -103t-84.5 -102t-101 -78.5t-119 -30.5q-65 0 -105.5 49.5t-62.5 129t-31 172t-10 180.5v155q1 32 1 56t25.5 37t56.5 13q30 0 55.5 -13t25.5 -40zM194 1118q17 -1 26 -10q10 -9 10 -24q0 -49 -82 -127q-74 -71 -101 -71q-17 1 -17 17
q0 13 12 27q29 33 64 100q43 88 88 88z" />
    <glyph glyph-name="Icircumflex" unicode="&#xce;" horiz-adv-x="789" 
d="M162 622q0 -23 -4 -58q-2 -18 -3 -34q-5 -58 -7 -133q-1 -25 -1 -50q0 -50 3 -101q3 -76 14.5 -141.5t34.5 -106t60 -40.5q59 0 125.5 62.5t133 156.5t124.5 194t100 178q29 51 47 83q6 10 17 10q5 0 10 -2q11 -5 11 -17q0 -5 -4 -11q-21 -36 -51 -91q-70 -133 -173 -295
q-9 -14 -19 -29q-30 -49 -68.5 -103t-84.5 -102t-101 -78.5t-119 -30.5q-65 0 -105.5 49.5t-62.5 129t-31 172t-10 180.5v155q1 32 1 56t25.5 37t56.5 13q30 0 55.5 -13t25.5 -40zM78 1003q-19 -27 -53 -59q-74 -71 -101 -71q-17 1 -17 17q0 13 12 27q29 33 64 100
q39 87 95 88q57 -1 96 -88q35 -67 64 -100q12 -14 12 -27q0 -16 -17 -17q-27 0 -102 71q-33 32 -53 59z" />
    <glyph glyph-name="Idieresis" unicode="&#xcf;" horiz-adv-x="789" 
d="M162 622q0 -23 -4 -58q-2 -18 -3 -34q-5 -58 -7 -133q-1 -25 -1 -50q0 -50 3 -101q3 -76 14.5 -141.5t34.5 -106t60 -40.5q59 0 125.5 62.5t133 156.5t124.5 194t100 178q29 51 47 83q6 10 17 10q5 0 10 -2q11 -5 11 -17q0 -5 -4 -11q-21 -36 -51 -91q-70 -133 -173 -295
q-9 -14 -19 -29q-30 -49 -68.5 -103t-84.5 -102t-101 -78.5t-119 -30.5q-65 0 -105.5 49.5t-62.5 129t-31 172t-10 180.5v155q1 32 1 56t25.5 37t56.5 13q30 0 55.5 -13t25.5 -40zM51 977q0 -38 -22.5 -66t-66.5 -28q-28 0 -46 11.5t-26.5 29t-8.5 35.5q0 38 23 65t66 27
q40 0 60.5 -23.5t20.5 -50.5zM280 973q0 -36 -22 -63t-64 -27q-27 0 -44.5 11t-25.5 28t-8 35q0 36 22 62t63 26q40 0 59.5 -22.5t19.5 -49.5z" />
    <glyph glyph-name="Eth" unicode="&#xd0;" horiz-adv-x="1298" 
d="M411 306q-80 153 -108 367q-39 19 -80 19q-46 0 -73 -24t-41 -61t-18.5 -78.5t-4.5 -76.5q0 -31 6 -75.5t21 -87.5t42.5 -72.5t69.5 -29.5q43 0 90.5 33t95.5 86zM429 859q2 -103 16 -203q18 -128 56 -235q78 111 137.5 218t86.5 166q25 53 69 163t80.5 238t39.5 236
q0 119 -51 156q-31 21 -68 21q-91 0 -158.5 -58.5t-113 -158t-68.5 -223.5q-22 -116 -26 -264h233q32 0 32 -33q0 -23 -28 -23h-237zM289 915q2 91 15 186q15 109 49.5 208.5t92.5 178.5t144 125t205 46q88 0 124 -65q33 -57 33 -149q0 -12 -1 -25q-5 -108 -42.5 -243.5
t-98 -279.5t-136 -278.5t-155.5 -241.5q43 -101 105 -161t144 -60q69 0 148 53t154 130.5t135 156.5t93 136q6 10 17 10q5 0 10 -3q10 -6 10 -17q0 -5 -3 -10q-58 -101 -172.5 -235t-245.5 -214q-86 -48 -179 -48q-90 0 -171.5 39.5t-132.5 117.5q-30 -31 -65.5 -60.5
t-76.5 -49t-86 -19.5q-79 0 -136.5 41.5t-88 111.5t-30.5 156q0 121 67 200.5t173 84.5h9q48 0 101 -19q-8 70 -9 141h-312q-29 0 -29 28q1 28 35 28h306z" />
    <glyph glyph-name="Ntilde" unicode="&#xd1;" horiz-adv-x="1199" 
d="M653 725v-84q-6 -146 -24 -292q-4 -36 -7 -72q-1 -7 -3 -20q-4 -34 -10 -95.5t-9 -132.5q-1 -36 -1 -70t1 -67q4 -66 19 -108.5t46 -42.5q54 0 121.5 75.5t138.5 190t136.5 238.5t116.5 228q55 109 84 159q6 10 17 10q5 0 10 -3q10 -6 10 -17q0 -5 -3 -10
q-33 -57 -89 -171q-62 -124 -141 -271.5t-164 -270.5q-33 -47 -82.5 -102.5t-108 -97t-116.5 -41.5q-56 0 -92.5 62.5t-42.5 199.5q-1 25 -1 49q0 66 6 131q7 89 14 148q3 20 4 33q1 7 2 23q6 43 14.5 124.5t12.5 169.5q2 40 2 76q0 42 -3 76q-6 63 -30 63q-22 0 -47.5 -49
t-49 -117t-41 -130t-25.5 -92q-2 -6 -3 -10q-10 -37 -20 -75q-16 -62 -33 -123l-2 -6q-6 -24 -19.5 -65t-32 -76t-38.5 -35q-45 0 -71 31.5t-39.5 74t-20.5 79.5q-1 3 -1 5q-19 89 -28.5 197t-10.5 199q2 45 36 61q18 9 35 9q16 0 32 -7q33 -14 36 -62q0 -34 7.5 -130.5
t21.5 -196.5t34 -143q30 99 56 199q10 38 20 75q2 10 6 25q13 52 37.5 134.5t58.5 157.5q35 73 72.5 104.5t83.5 31.5q61 0 89.5 -44.5t28.5 -109.5zM333 1099q45 -27 70 -27q13 0 23 30q4 10 16 10q17 0 17 -21q0 -30 -25.5 -55.5t-61.5 -25.5q-52 0 -121 40q-45 27 -70 27
q-13 0 -23 -30q-4 -10 -16 -10q-17 0 -17 21q0 30 25.5 55.5t61.5 25.5q52 0 121 -40z" />
    <glyph glyph-name="Ograve" unicode="&#xd2;" horiz-adv-x="1104" 
d="M-14 462q0 81 12 163q6 27 29 37q18 8 37 8q7 0 14 -1q28 -3 46 -18q-8 30 -8 65q1 110 59.5 175.5t167.5 65.5q72 0 112 -36.5t56 -94t16 -122.5q0 -63 -9 -124.5t-19 -105.5q-4 -14 -7 -27q51 -6 96 -6q78 0 182.5 18t196 60t137.5 113q6 10 17 10q5 0 10 -3
q10 -6 10 -17q0 -5 -3 -10q-50 -79 -146.5 -125t-207 -65.5t-196.5 -19.5q-51 0 -108 7q-51 -146 -131 -212q-70 -56 -141 -56q-11 0 -22 1q-83 9 -139.5 90.5t-60.5 229.5zM136 614q-5 -30 -9.5 -74t-4.5 -93q0 -59 10 -116t38.5 -94.5t82.5 -37.5q45 0 81 34.5t63 83.5
t44 98q-99 17 -183 64.5t-122 134.5zM454 453q5 17 8 31q17 69 17 140q0 39 -8 83t-26.5 83t-50.5 64t-80 25q-74 0 -116 -44.5t-42 -118.5q5 -122 93.5 -183.5t204.5 -79.5zM230 1178q35 -67 64 -100q12 -14 12 -27q0 -16 -17 -17q-27 0 -101 71q-82 78 -82 127q0 15 10 24
q9 9 26 10q45 0 88 -88z" />
    <glyph glyph-name="Oacute" unicode="&#xd3;" horiz-adv-x="1104" 
d="M-14 462q0 81 12 163q6 27 29 37q18 8 37 8q7 0 14 -1q28 -3 46 -18q-8 30 -8 65q1 110 59.5 175.5t167.5 65.5q72 0 112 -36.5t56 -94t16 -122.5q0 -63 -9 -124.5t-19 -105.5q-4 -14 -7 -27q51 -6 96 -6q78 0 182.5 18t196 60t137.5 113q6 10 17 10q5 0 10 -3
q10 -6 10 -17q0 -5 -3 -10q-50 -79 -146.5 -125t-207 -65.5t-196.5 -19.5q-51 0 -108 7q-51 -146 -131 -212q-70 -56 -141 -56q-11 0 -22 1q-83 9 -139.5 90.5t-60.5 229.5zM136 614q-5 -30 -9.5 -74t-4.5 -93q0 -59 10 -116t38.5 -94.5t82.5 -37.5q45 0 81 34.5t63 83.5
t44 98q-99 17 -183 64.5t-122 134.5zM454 453q5 17 8 31q17 69 17 140q0 39 -8 83t-26.5 83t-50.5 64t-80 25q-74 0 -116 -44.5t-42 -118.5q5 -122 93.5 -183.5t204.5 -79.5zM348 1244q17 -1 26 -10q10 -9 10 -24q0 -49 -82 -127q-74 -71 -101 -71q-17 1 -17 17q0 13 12 27
q29 33 64 100q43 88 88 88z" />
    <glyph glyph-name="Ocircumflex" unicode="&#xd4;" horiz-adv-x="1104" 
d="M-14 462q0 81 12 163q6 27 29 37q18 8 37 8q7 0 14 -1q28 -3 46 -18q-8 30 -8 65q1 110 59.5 175.5t167.5 65.5q72 0 112 -36.5t56 -94t16 -122.5q0 -63 -9 -124.5t-19 -105.5q-4 -14 -7 -27q51 -6 96 -6q78 0 182.5 18t196 60t137.5 113q6 10 17 10q5 0 10 -3
q10 -6 10 -17q0 -5 -3 -10q-50 -79 -146.5 -125t-207 -65.5t-196.5 -19.5q-51 0 -108 7q-51 -146 -131 -212q-70 -56 -141 -56q-11 0 -22 1q-83 9 -139.5 90.5t-60.5 229.5zM136 614q-5 -30 -9.5 -74t-4.5 -93q0 -59 10 -116t38.5 -94.5t82.5 -37.5q45 0 81 34.5t63 83.5
t44 98q-99 17 -183 64.5t-122 134.5zM454 453q5 17 8 31q17 69 17 140q0 39 -8 83t-26.5 83t-50.5 64t-80 25q-74 0 -116 -44.5t-42 -118.5q5 -122 93.5 -183.5t204.5 -79.5zM261 1164q-19 -27 -53 -59q-74 -71 -101 -71q-17 1 -17 17q0 13 12 27q29 33 64 100q39 87 95 88
q57 -1 96 -88q35 -67 64 -100q12 -14 12 -27q0 -16 -17 -17q-27 0 -102 71q-33 32 -53 59z" />
    <glyph glyph-name="Otilde" unicode="&#xd5;" horiz-adv-x="1104" 
d="M-14 462q0 81 12 163q6 27 29 37q18 8 37 8q7 0 14 -1q28 -3 46 -18q-8 30 -8 65q1 110 59.5 175.5t167.5 65.5q72 0 112 -36.5t56 -94t16 -122.5q0 -63 -9 -124.5t-19 -105.5q-4 -14 -7 -27q51 -6 96 -6q78 0 182.5 18t196 60t137.5 113q6 10 17 10q5 0 10 -3
q10 -6 10 -17q0 -5 -3 -10q-50 -79 -146.5 -125t-207 -65.5t-196.5 -19.5q-51 0 -108 7q-51 -146 -131 -212q-70 -56 -141 -56q-11 0 -22 1q-83 9 -139.5 90.5t-60.5 229.5zM136 614q-5 -30 -9.5 -74t-4.5 -93q0 -59 10 -116t38.5 -94.5t82.5 -37.5q45 0 81 34.5t63 83.5
t44 98q-99 17 -183 64.5t-122 134.5zM454 453q5 17 8 31q17 69 17 140q0 39 -8 83t-26.5 83t-50.5 64t-80 25q-74 0 -116 -44.5t-42 -118.5q5 -122 93.5 -183.5t204.5 -79.5zM314 1141q45 -27 70 -27q13 0 23 30q4 10 16 10q17 0 17 -21q0 -30 -25.5 -55.5t-61.5 -25.5
q-53 0 -121 40q-45 27 -70 27q-13 0 -23 -30q-4 -10 -16 -10q-17 0 -17 21q0 30 25.5 55.5t61.5 25.5q52 0 121 -40z" />
    <glyph glyph-name="Odieresis" unicode="&#xd6;" horiz-adv-x="1104" 
d="M-14 462q0 81 12 163q6 27 29 37q18 8 37 8q7 0 14 -1q28 -3 46 -18q-8 30 -8 65q1 110 59.5 175.5t167.5 65.5q72 0 112 -36.5t56 -94t16 -122.5q0 -63 -9 -124.5t-19 -105.5q-4 -14 -7 -27q51 -6 96 -6q78 0 182.5 18t196 60t137.5 113q6 10 17 10q5 0 10 -3
q10 -6 10 -17q0 -5 -3 -10q-50 -79 -146.5 -125t-207 -65.5t-196.5 -19.5q-51 0 -108 7q-51 -146 -131 -212q-70 -56 -141 -56q-11 0 -22 1q-83 9 -139.5 90.5t-60.5 229.5zM136 614q-5 -30 -9.5 -74t-4.5 -93q0 -59 10 -116t38.5 -94.5t82.5 -37.5q45 0 81 34.5t63 83.5
t44 98q-99 17 -183 64.5t-122 134.5zM454 453q5 17 8 31q17 69 17 140q0 39 -8 83t-26.5 83t-50.5 64t-80 25q-74 0 -116 -44.5t-42 -118.5q5 -122 93.5 -183.5t204.5 -79.5zM231 1128q0 -38 -22.5 -66t-66.5 -28q-28 0 -46 11.5t-26.5 29t-8.5 35.5q0 38 23 65t66 27
q40 0 60.5 -23.5t20.5 -50.5zM460 1124q0 -36 -22 -63t-64 -27q-27 0 -44.5 11t-25.5 28t-8 35q0 36 22 62t63 26q40 0 59.5 -22.5t19.5 -49.5z" />
    <glyph glyph-name="Oslash" unicode="&#xd8;" horiz-adv-x="1104" 
d="M303 501q68 -35 151 -48q5 17 8 31q17 69 17 140q0 39 -8 83t-26 83l-10 18q-58 -134 -132 -307zM287 464q-4 -9 -8 -19q-51 -120 -96 -222q27 -24 70 -24q45 0 81 34.5t63 83.5t44 98q-82 14 -154 49zM116 165q-39 23 -69 68q-57 81 -61 229q0 81 12 163q6 27 29 37
q18 8 37 8q7 0 14 -1q28 -3 46 -18q-8 30 -8 65q1 110 59.5 175.5t167.5 65.5q63 0 102 -28q131 301 155 346q6 10 17 10q5 0 10 -3q10 -6 10 -17q0 -5 -3 -10q-24 -44 -159 -356q24 -30 36 -72q16 -58 16 -123q0 -63 -9 -124.5t-19 -105.5q-4 -14 -7 -27q51 -6 96 -6
q78 0 182.5 18t196 60t137.5 113q6 10 17 10q5 0 10 -3q10 -6 10 -17q0 -5 -3 -10q-50 -79 -146.5 -125t-207 -65.5t-196.5 -19.5q-51 0 -108 7q-51 -146 -131 -212q-70 -56 -141 -56q-11 0 -22 1q-18 2 -34 7q-199 -460 -229 -516q-6 -10 -17 -10q-5 0 -10 3q-10 6 -10 17
q0 5 3 10q29 54 227 512zM407 842q-6 7 -13 12q-32 25 -80 25q-74 0 -116 -44.5t-42 -118.5q5 -122 94 -183q9 -7 18 -13zM252 483q-79 47 -116 131q-5 -30 -9.5 -74t-4.5 -93q0 -59 10 -116q7 -41 24 -72q41 94 88 204z" />
    <glyph glyph-name="Ugrave" unicode="&#xd9;" horiz-adv-x="1205" 
d="M446 474q-20 -65 -48 -134.5t-64 -129.5t-80.5 -98t-97.5 -38q-60 0 -96.5 47.5t-53.5 123.5t-17 161q0 113 10 216q2 38 35 48q15 4 29 4q19 0 38 -7q34 -13 37 -44q1 -12 1 -28t-1 -37q0 -56 1 -127.5t6 -139t18 -112.5t37 -45q17 0 34 14.5t26 26.5q70 90 117 221.5
t67 209.5q1 2 1 4v4q4 30 38 43q20 8 40 8q14 0 27 -4q33 -10 34 -49v-3q-1 -33 -2 -104v-29q0 -60 3 -130q5 -87 19.5 -168.5t44 -135t78.5 -53.5q55 0 112.5 53.5t112.5 135t104 171.5t87 166q38 75 62 117q6 10 17 10q5 0 10 -3q10 -6 10 -17q0 -5 -3 -10
q-27 -48 -67 -126q-66 -137 -157 -286q-3 -3 -5 -7q-42 -68 -86 -126t-100 -93.5t-137 -35.5q-72 0 -118 35.5t-71.5 93.5t-36.5 126.5t-13 137.5t-2 126v17zM261 1015q35 -67 64 -100q12 -14 12 -27q0 -16 -17 -17q-27 0 -101 71q-82 78 -82 127q0 15 10 24q9 9 26 10
q45 0 88 -88z" />
    <glyph glyph-name="Uacute" unicode="&#xda;" horiz-adv-x="1205" 
d="M446 474q-20 -65 -48 -134.5t-64 -129.5t-80.5 -98t-97.5 -38q-60 0 -96.5 47.5t-53.5 123.5t-17 161q0 113 10 216q2 38 35 48q15 4 29 4q19 0 38 -7q34 -13 37 -44q1 -12 1 -28t-1 -37q0 -56 1 -127.5t6 -139t18 -112.5t37 -45q17 0 34 14.5t26 26.5q70 90 117 221.5
t67 209.5q1 2 1 4v4q4 30 38 43q20 8 40 8q14 0 27 -4q33 -10 34 -49v-3q-1 -33 -2 -104v-29q0 -60 3 -130q5 -87 19.5 -168.5t44 -135t78.5 -53.5q55 0 112.5 53.5t112.5 135t104 171.5t87 166q38 75 62 117q6 10 17 10q5 0 10 -3q10 -6 10 -17q0 -5 -3 -10
q-27 -48 -67 -126q-66 -137 -157 -286q-3 -3 -5 -7q-42 -68 -86 -126t-100 -93.5t-137 -35.5q-72 0 -118 35.5t-71.5 93.5t-36.5 126.5t-13 137.5t-2 126v17zM368 1098q17 -1 26 -10q10 -9 10 -24q0 -49 -82 -127q-74 -71 -101 -71q-17 1 -17 17q0 13 12 27q29 33 64 100
q43 88 88 88z" />
    <glyph glyph-name="Ucircumflex" unicode="&#xdb;" horiz-adv-x="1205" 
d="M446 474q-20 -65 -48 -134.5t-64 -129.5t-80.5 -98t-97.5 -38q-60 0 -96.5 47.5t-53.5 123.5t-17 161q0 113 10 216q2 38 35 48q15 4 29 4q19 0 38 -7q34 -13 37 -44q1 -12 1 -28t-1 -37q0 -56 1 -127.5t6 -139t18 -112.5t37 -45q17 0 34 14.5t26 26.5q70 90 117 221.5
t67 209.5q1 2 1 4v4q4 30 38 43q20 8 40 8q14 0 27 -4q33 -10 34 -49v-3q-1 -33 -2 -104v-29q0 -60 3 -130q5 -87 19.5 -168.5t44 -135t78.5 -53.5q55 0 112.5 53.5t112.5 135t104 171.5t87 166q38 75 62 117q6 10 17 10q5 0 10 -3q10 -6 10 -17q0 -5 -3 -10
q-27 -48 -67 -126q-66 -137 -157 -286q-3 -3 -5 -7q-42 -68 -86 -126t-100 -93.5t-137 -35.5q-72 0 -118 35.5t-71.5 93.5t-36.5 126.5t-13 137.5t-2 126v17zM302 1007q-19 -27 -53 -59q-74 -71 -101 -71q-17 1 -17 17q0 13 12 27q29 33 64 100q39 87 95 88q57 -1 96 -88
q35 -67 64 -100q12 -14 12 -27q0 -16 -17 -17q-27 0 -102 71q-33 32 -53 59z" />
    <glyph glyph-name="Udieresis" unicode="&#xdc;" horiz-adv-x="1205" 
d="M446 474q-20 -65 -48 -134.5t-64 -129.5t-80.5 -98t-97.5 -38q-60 0 -96.5 47.5t-53.5 123.5t-17 161q0 113 10 216q2 38 35 48q15 4 29 4q19 0 38 -7q34 -13 37 -44q1 -12 1 -28t-1 -37q0 -56 1 -127.5t6 -139t18 -112.5t37 -45q17 0 34 14.5t26 26.5q70 90 117 221.5
t67 209.5q1 2 1 4v4q4 30 38 43q20 8 40 8q14 0 27 -4q33 -10 34 -49v-3q-1 -33 -2 -104v-29q0 -60 3 -130q5 -87 19.5 -168.5t44 -135t78.5 -53.5q55 0 112.5 53.5t112.5 135t104 171.5t87 166q38 75 62 117q6 10 17 10q5 0 10 -3q10 -6 10 -17q0 -5 -3 -10
q-27 -48 -67 -126q-66 -137 -157 -286q-3 -3 -5 -7q-42 -68 -86 -126t-100 -93.5t-137 -35.5q-72 0 -118 35.5t-71.5 93.5t-36.5 126.5t-13 137.5t-2 126v17zM273 1004q0 -38 -22.5 -66t-66.5 -28q-28 0 -46 11.5t-26.5 29t-8.5 35.5q0 38 23 65t66 27q40 0 60.5 -23.5
t20.5 -50.5zM502 1000q0 -36 -22 -63t-64 -27q-27 0 -44.5 11t-25.5 28t-8 35q0 36 22 62t63 26q40 0 59.5 -22.5t19.5 -49.5z" />
    <glyph glyph-name="Yacute" unicode="&#xdd;" horiz-adv-x="1243" 
d="M489 544q-12 -73 -34 -155t-55.5 -154.5t-81 -119.5t-112.5 -47q-62 0 -101.5 40t-62 103t-32 135.5t-11.5 140.5q-1 45 -1 82v53q2 35 36 49q18 8 36 8q15 0 30 -6q34 -11 37 -49v-53q0 -40 1 -93q2 -79 10.5 -160t28 -138t55.5 -57q27 0 47.5 14t35.5 32q64 88 99 221
t47 229q3 15 4 22.5t1 12.5v11q-1 6 -1 18q0 27 14.5 42t34.5 15q29 0 56 -15t35 -51q10 -59 24 -131q37 -186 70 -418q150 103 302 232t242 275q7 10 17 10q5 0 10 -3q10 -6 10 -17q0 -5 -3 -10q-96 -155 -256 -290t-317 -241q22 -166 22 -326q0 -141 -25 -267.5
t-85.5 -224t-164 -153.5t-260.5 -56q-81 0 -152.5 28.5t-116 88.5t-44.5 153q0 76 39 146t95 130t111 107q193 161 407 301q14 10 28 19q-12 164 -32.5 300t-36.5 217zM-82 -676q0 -73 36.5 -120t93 -69t116.5 -22q120 0 197.5 60.5t122 163t62.5 231.5t18 267q0 73 -4 146
q-4 -3 -8 -5q-211 -140 -403 -299q-50 -42 -103 -98t-90.5 -121t-37.5 -134zM396 1120q17 -1 27 -10q9 -9 9 -24q0 -49 -81 -127q-75 -71 -102 -71q-17 1 -17 17q0 13 12 27q29 33 64 100q44 88 88 88z" />
    <glyph glyph-name="Thorn" unicode="&#xde;" horiz-adv-x="1460" 
d="M708 139q4 36 4 72q0 15 -1 30v22q0 113 -33.5 191t-82.5 78q-38 0 -80 -52.5t-82 -175.5q-48 -155 -77.5 -307.5t-40.5 -226.5q-1 -8 -2 -14q-31 -195 -57 -391q-15 -105 -30 -209q-1 -7 -2 -20q-5 -39 -15 -102t-26.5 -116t-41.5 -53q-27 0 -45.5 29.5t-30 72t-18 83.5
t-8.5 66q-1 5 -2 9q-28 266 -30 535q-4 200 -4 400v156q1 35 1 680q0 69 -4 136q0 28 19.5 45.5t46.5 18.5q62 0 73 -63q11 -806 11 -1004q0 -66 -1 -132v-90q0 -11 -1 -35v-229q0 -149 4.5 -291t17.5 -199q7 43 12.5 78.5t7.5 52.5q1 2 1 4l24 174q27 201 59 400q2 12 4 26
q8 51 22 130.5t34.5 173.5t48.5 187.5t63.5 171t79.5 125t97 47.5q61 0 107 -43t75.5 -114t40.5 -155q6 -45 6 -89q0 -41 -5 -81q122 3 235.5 26.5t210 85.5t167.5 179q6 10 17 10q5 0 10 -3q10 -6 10 -17q0 -5 -3 -10q-76 -125 -178.5 -191t-223.5 -91.5t-250 -28.5
q-13 -78 -45.5 -141.5t-85.5 -101.5t-128 -38q-41 0 -78 15t-61 44.5t-24 73.5q0 70 38 110.5t96 58t118 17.5h36zM597 -103q81 70 104 202h-29q-48 0 -97 -12.5t-82 -44t-33 -89.5q0 -37 22 -57.5t53 -20.5h3q29 0 59 22z" />
    <glyph glyph-name="germandbls" unicode="&#xdf;" horiz-adv-x="1360" 
d="M618 153q-5 -1 -11 -3q-46 -12 -96.5 -32.5t-87 -54t-36.5 -87.5q0 -60 49.5 -108t108.5 -48q66 0 95 39.5t29 93.5q0 60 -13.5 109.5t-37.5 90.5zM462 675q0 -61 22.5 -109.5t58 -90.5t76.5 -83q74 -70 132 -159q108 30 220.5 75.5t213 122.5t175.5 201q6 10 17 10
q5 0 10 -3q10 -6 10 -17q0 -5 -3 -10q-77 -128 -180.5 -208t-218.5 -128t-225 -79q18 -38 28.5 -82t10.5 -96q0 -111 -67 -177t-176 -66q-54 0 -109.5 26t-92.5 71t-37 102q0 49 25.5 83.5t65 58.5t84.5 40.5t86 28.5q5 1 9 2q-53 74 -116 136q-42 42 -79 86.5t-60 95.5
t-23 115q0 197 250 394t250 456q0 105 -60.5 169.5t-163.5 64.5t-181 -59t-134 -161.5t-92.5 -236.5t-54.5 -288t-21 -314q0 -240 20 -425q10 -88 23 -169q4 -20 4 -33q-1 -32 -55 -51q-19 -8 -34 -8q-31 0 -41 38q-23 97 -36 196q-17 119 -23.5 221.5t-6.5 166.5
q0 186 19 358t63.5 318t117.5 255t179.5 170t252.5 61q119 0 201.5 -75.5t82.5 -197.5q0 -270 -208.5 -458t-208.5 -338z" />
    <glyph glyph-name="agrave" unicode="&#xe0;" horiz-adv-x="1086" 
d="M327 654q12 12 30 15q10 2 19 2q22 0 41 -12q27 -16 27 -53q0 -73 4.5 -173.5t20.5 -194.5q11 -63 30 -112.5t47 -79.5t69 -30q56 0 113 51.5t112 130.5t103 166t86 161q34 67 57 107q6 10 17 10q5 0 10 -3q10 -6 10 -17q0 -5 -3 -10q-29 -51 -66 -124q-42 -82 -94 -174
t-113 -173.5t-131 -133.5t-147 -52q-53 0 -92 22.5t-66.5 61.5t-45.5 87q-29 78 -41 161t-16 147q-2 -9 -4 -21q-8 -37 -21 -85t-33.5 -94t-51 -76.5t-74.5 -30.5q-50 0 -83 29.5t-52 75t-27 95t-8 88.5q0 91 31 179.5t97 145.5t170 59h6q65 0 110 -43q21 -21 35 -54
q2 -4 2 -8q0 -3 -2 -7q-7 -12 -19 -12q-13 0 -18 12q-13 32 -35 49t-58 17q-55 0 -90 -36.5t-55 -91t-27.5 -112t-7.5 -98.5q0 -20 6 -71t22.5 -94t46.5 -46q27 5 53.5 78.5t47.5 164.5t31 147q5 25 10 37t17 23zM171 1016q35 -67 63 -101q13 -13 13 -26q0 -16 -17 -17
q-27 0 -102 71q-81 77 -81 127v3q0 12 9 20q10 9 27 11q44 0 88 -88z" />
    <glyph glyph-name="aacute" unicode="&#xe1;" horiz-adv-x="1086" 
d="M327 654q12 12 30 15q10 2 19 2q22 0 41 -12q27 -16 27 -53q0 -73 4.5 -173.5t20.5 -194.5q11 -63 30 -112.5t47 -79.5t69 -30q56 0 113 51.5t112 130.5t103 166t86 161q34 67 57 107q6 10 17 10q5 0 10 -3q10 -6 10 -17q0 -5 -3 -10q-29 -51 -66 -124q-42 -82 -94 -174
t-113 -173.5t-131 -133.5t-147 -52q-53 0 -92 22.5t-66.5 61.5t-45.5 87q-29 78 -41 161t-16 147q-2 -9 -4 -21q-8 -37 -21 -85t-33.5 -94t-51 -76.5t-74.5 -30.5q-50 0 -83 29.5t-52 75t-27 95t-8 88.5q0 91 31 179.5t97 145.5t170 59h6q65 0 110 -43q21 -21 35 -54
q2 -4 2 -8q0 -3 -2 -7q-7 -12 -19 -12q-13 0 -18 12q-13 32 -35 49t-58 17q-55 0 -90 -36.5t-55 -91t-27.5 -112t-7.5 -98.5q0 -20 6 -71t22.5 -94t46.5 -46q27 5 53.5 78.5t47.5 164.5t31 147q5 25 10 37t17 23zM375 1104q17 -1 26 -10q10 -9 10 -24q0 -49 -82 -127
q-74 -71 -101 -71q-17 1 -17 17q0 13 12 27q29 33 64 100q43 88 88 88z" />
    <glyph glyph-name="acircumflex" unicode="&#xe2;" horiz-adv-x="1086" 
d="M327 654q12 12 30 15q10 2 19 2q22 0 41 -12q27 -16 27 -53q0 -73 4.5 -173.5t20.5 -194.5q11 -63 30 -112.5t47 -79.5t69 -30q56 0 113 51.5t112 130.5t103 166t86 161q34 67 57 107q6 10 17 10q5 0 10 -3q10 -6 10 -17q0 -5 -3 -10q-29 -51 -66 -124q-42 -82 -94 -174
t-113 -173.5t-131 -133.5t-147 -52q-53 0 -92 22.5t-66.5 61.5t-45.5 87q-29 78 -41 161t-16 147q-2 -9 -4 -21q-8 -37 -21 -85t-33.5 -94t-51 -76.5t-74.5 -30.5q-50 0 -83 29.5t-52 75t-27 95t-8 88.5q0 91 31 179.5t97 145.5t170 59h6q65 0 110 -43q21 -21 35 -54
q2 -4 2 -8q0 -3 -2 -7q-7 -12 -19 -12q-13 0 -18 12q-13 32 -35 49t-58 17q-55 0 -90 -36.5t-55 -91t-27.5 -112t-7.5 -98.5q0 -20 6 -71t22.5 -94t46.5 -46q27 5 53.5 78.5t47.5 164.5t31 147q5 25 10 37t17 23zM222 1002q-20 -27 -53 -59q-74 -71 -101 -71q-17 1 -17 17
q0 13 12 27q29 33 64 100q39 87 95 88q57 -1 96 -88q35 -67 64 -100q12 -14 12 -27q0 -16 -17 -17q-27 0 -102 71q-33 32 -53 59z" />
    <glyph glyph-name="atilde" unicode="&#xe3;" horiz-adv-x="1086" 
d="M327 654q12 12 30 15q10 2 19 2q22 0 41 -12q27 -16 27 -53q0 -73 4.5 -173.5t20.5 -194.5q11 -63 30 -112.5t47 -79.5t69 -30q56 0 113 51.5t112 130.5t103 166t86 161q34 67 57 107q6 10 17 10q5 0 10 -3q10 -6 10 -17q0 -5 -3 -10q-29 -51 -66 -124q-42 -82 -94 -174
t-113 -173.5t-131 -133.5t-147 -52q-53 0 -92 22.5t-66.5 61.5t-45.5 87q-29 78 -41 161t-16 147q-2 -9 -4 -21q-8 -37 -21 -85t-33.5 -94t-51 -76.5t-74.5 -30.5q-50 0 -83 29.5t-52 75t-27 95t-8 88.5q0 91 31 179.5t97 145.5t170 59h6q65 0 110 -43q21 -21 35 -54
q2 -4 2 -8q0 -3 -2 -7q-7 -12 -19 -12q-13 0 -18 12q-13 32 -35 49t-58 17q-55 0 -90 -36.5t-55 -91t-27.5 -112t-7.5 -98.5q0 -20 6 -71t22.5 -94t46.5 -46q27 5 53.5 78.5t47.5 164.5t31 147q5 25 10 37t17 23zM272 1019q45 -27 70 -27q13 0 23 30q4 10 16 10q17 0 17 -21
q0 -30 -25.5 -55.5t-61.5 -25.5q-53 0 -121 40q-45 27 -70 27q-13 0 -23 -30q-4 -10 -16 -10q-17 0 -17 21q0 30 25.5 55.5t61.5 25.5q52 0 121 -40z" />
    <glyph glyph-name="adieresis" unicode="&#xe4;" horiz-adv-x="1086" 
d="M327 654q12 12 30 15q10 2 19 2q22 0 41 -12q27 -16 27 -53q0 -73 4.5 -173.5t20.5 -194.5q11 -63 30 -112.5t47 -79.5t69 -30q56 0 113 51.5t112 130.5t103 166t86 161q34 67 57 107q6 10 17 10q5 0 10 -3q10 -6 10 -17q0 -5 -3 -10q-29 -51 -66 -124q-42 -82 -94 -174
t-113 -173.5t-131 -133.5t-147 -52q-53 0 -92 22.5t-66.5 61.5t-45.5 87q-29 78 -41 161t-16 147q-2 -9 -4 -21q-8 -37 -21 -85t-33.5 -94t-51 -76.5t-74.5 -30.5q-50 0 -83 29.5t-52 75t-27 95t-8 88.5q0 91 31 179.5t97 145.5t170 59h6q65 0 110 -43q21 -21 35 -54
q2 -4 2 -8q0 -3 -2 -7q-7 -12 -19 -12q-13 0 -18 12q-13 32 -35 49t-58 17q-55 0 -90 -36.5t-55 -91t-27.5 -112t-7.5 -98.5q0 -20 6 -71t22.5 -94t46.5 -46q27 5 53.5 78.5t47.5 164.5t31 147q5 25 10 37t17 23zM194 993q0 -37 -22.5 -65.5t-66.5 -28.5q-28 0 -45.5 11.5
t-26 29.5t-8.5 36q0 38 23 65t65 27q41 0 61 -23.5t20 -51.5zM423 990q0 -36 -21.5 -63.5t-64.5 -27.5q-27 0 -44 11t-25 28t-8 35q0 37 22 63t63 26q39 0 58.5 -22.5t19.5 -49.5z" />
    <glyph glyph-name="aring" unicode="&#xe5;" horiz-adv-x="1086" 
d="M327 654q12 12 30 15q10 2 19 2q22 0 41 -12q27 -16 27 -53q0 -73 4.5 -173.5t20.5 -194.5q11 -63 30 -112.5t47 -79.5t69 -30q56 0 113 51.5t112 130.5t103 166t86 161q34 67 57 107q6 10 17 10q5 0 10 -3q10 -6 10 -17q0 -5 -3 -10q-29 -51 -66 -124q-42 -82 -94 -174
t-113 -173.5t-131 -133.5t-147 -52q-53 0 -92 22.5t-66.5 61.5t-45.5 87q-29 78 -41 161t-16 147q-2 -9 -4 -21q-8 -37 -21 -85t-33.5 -94t-51 -76.5t-74.5 -30.5q-50 0 -83 29.5t-52 75t-27 95t-8 88.5q0 91 31 179.5t97 145.5t170 59h6q65 0 110 -43q21 -21 35 -54
q2 -4 2 -8q0 -3 -2 -7q-7 -12 -19 -12q-13 0 -18 12q-13 32 -35 49t-58 17q-55 0 -90 -36.5t-55 -91t-27.5 -112t-7.5 -98.5q0 -20 6 -71t22.5 -94t46.5 -46q27 5 53.5 78.5t47.5 164.5t31 147q5 25 10 37t17 23zM371 1046q0 -68 -41 -119t-120 -51q-51 0 -83 21t-47.5 53
t-15.5 65q0 69 41.5 117.5t118.5 48.5q74 0 110.5 -42.5t36.5 -92.5zM334 1042q0 38 -27.5 70t-83.5 32q-59 0 -91 -36.5t-32 -89.5q0 -25 12 -49.5t36.5 -40.5t63.5 -16q60 0 91 39t31 91z" />
    <glyph glyph-name="ae" unicode="&#xe6;" horiz-adv-x="1459" 
d="M472 632q43 -22 96 -38t99 -16q67 0 113 35.5t46 112.5q0 59 -34 89.5t-88 30.5q-89 0 -146.5 -59.5t-85.5 -154.5zM361 670q4 7 7 13l-2 4q-13 32 -35 49t-58 17q-55 0 -90 -36.5t-55 -91t-27.5 -112t-7.5 -98.5q0 -20 6 -71t22.5 -94t46.5 -46q27 5 53.5 78.5
t47.5 164.5t31 147q5 25 10 37t17 23q12 12 30 15q2 0 4 1zM306 426q-1 -6 -2 -13q-8 -37 -21 -85t-33.5 -94t-51 -76.5t-74.5 -30.5q-50 0 -83 29.5t-52 75t-27 95t-8 88.5q0 91 31 179.5t97 145.5t170 59h6q65 0 110 -43q14 -14 24 -32q39 57 94 97q88 64 218 64
q47 0 88.5 -18.5t67.5 -54.5t26 -86q0 -63 -31.5 -105t-81.5 -62.5t-106 -20.5q-49 0 -104 16.5t-102 38.5q-17 -77 -17 -162q0 -147 38.5 -268.5t113 -196t183.5 -74.5q76 0 150.5 46t144.5 121t133 164t116.5 178t95.5 162q22 39 40 70q6 10 17 10q5 0 10 -3q10 -6 10 -17
q0 -5 -3 -10q-19 -33 -42 -73q-68 -122 -163.5 -269.5t-209.5 -264.5q-84 -84 -172.5 -128t-199.5 -44q-102 0 -177 55.5t-124.5 142.5t-74 186t-24.5 185v23z" />
    <glyph glyph-name="ccedilla" unicode="&#xe7;" horiz-adv-x="1059" 
d="M348 -98q-100 1 -174 43q-75 42 -123.5 114.5t-71.5 165t-23 192.5q0 82 26.5 168t75.5 158t116.5 117t149.5 45q46 0 75 -22.5t42.5 -58t13.5 -75.5q0 -56 -24 -108q-3 -8 -11 -10q-3 -1 -7 -1t-8 1q-7 4 -10 12q-1 3 -1 6q0 4 2 9q19 50 19 104q0 41 -22.5 72t-68.5 31
q-56 0 -106.5 -76.5t-82 -187.5t-31.5 -214q0 -75 15.5 -150.5t50 -138t91 -100.5t136.5 -38q83 0 157.5 39.5t141.5 105t125.5 145.5t108.5 162.5t92 154.5q20 35 37 65q6 10 17 10q5 0 10 -3q10 -6 10 -17q0 -5 -3 -10q-16 -28 -33 -57q-47 -83 -102.5 -172.5t-120.5 -175
t-139.5 -154.5t-160.5 -110q-65 -31 -137 -38q-6 -26 -18 -64q21 8 63 8q41 0 71 -33t30 -75q0 -80 -60 -124q-105 -76 -152 -76q-27 0 -27 17q0 12 8 19q17 16 69 50q68 50 68 110q0 33 -11.5 46.5t-34.5 13.5q-24 -1 -46 -8.5t-27 -7.5q-9 0 -9 13q1 16 6 32q11 47 18 76z
" />
    <glyph glyph-name="egrave" unicode="&#xe8;" horiz-adv-x="1114" 
d="M-39 403q0 135 45.5 244.5t134 173.5t218.5 64q47 0 88.5 -18.5t67.5 -54.5t26 -86q0 -63 -31.5 -105t-81.5 -62.5t-106 -20.5q-49 0 -104 16.5t-102 38.5q-17 -77 -17 -162q0 -147 38.5 -268.5t113 -196t183.5 -74.5q76 0 150.5 46t144.5 121t133 164t116.5 178
t95.5 162q22 39 40 70q6 10 17 10q5 0 10 -3q10 -6 10 -17q0 -5 -3 -10q-19 -33 -42 -73q-68 -122 -163.5 -269.5t-209.5 -264.5q-84 -84 -172.5 -128t-199.5 -44q-102 0 -177 55.5t-124.5 142.5t-74 186t-24.5 185zM127 632q43 -22 96 -38t99 -16q67 0 113 35.5t46 112.5
q0 59 -34 89.5t-88 30.5q-89 0 -146.5 -59.5t-85.5 -154.5zM317 1105q35 -67 64 -100q12 -14 12 -27q0 -16 -17 -17q-27 0 -102 71q-81 78 -81 127q0 15 9 24q10 9 27 10q44 0 88 -88z" />
    <glyph glyph-name="eacute" unicode="&#xe9;" horiz-adv-x="1114" 
d="M-39 403q0 135 45.5 244.5t134 173.5t218.5 64q47 0 88.5 -18.5t67.5 -54.5t26 -86q0 -63 -31.5 -105t-81.5 -62.5t-106 -20.5q-49 0 -104 16.5t-102 38.5q-17 -77 -17 -162q0 -147 38.5 -268.5t113 -196t183.5 -74.5q76 0 150.5 46t144.5 121t133 164t116.5 178
t95.5 162q22 39 40 70q6 10 17 10q5 0 10 -3q10 -6 10 -17q0 -5 -3 -10q-19 -33 -42 -73q-68 -122 -163.5 -269.5t-209.5 -264.5q-84 -84 -172.5 -128t-199.5 -44q-102 0 -177 55.5t-124.5 142.5t-74 186t-24.5 185zM127 632q43 -22 96 -38t99 -16q67 0 113 35.5t46 112.5
q0 59 -34 89.5t-88 30.5q-89 0 -146.5 -59.5t-85.5 -154.5zM463 1214q17 -1 27 -10q9 -9 9 -24q0 -49 -81 -127q-75 -71 -102 -71q-17 1 -17 17q0 13 12 27q29 33 64 100q44 88 88 88z" />
    <glyph glyph-name="ecircumflex" unicode="&#xea;" horiz-adv-x="1114" 
d="M-39 403q0 135 45.5 244.5t134 173.5t218.5 64q47 0 88.5 -18.5t67.5 -54.5t26 -86q0 -63 -31.5 -105t-81.5 -62.5t-106 -20.5q-49 0 -104 16.5t-102 38.5q-17 -77 -17 -162q0 -147 38.5 -268.5t113 -196t183.5 -74.5q76 0 150.5 46t144.5 121t133 164t116.5 178
t95.5 162q22 39 40 70q6 10 17 10q5 0 10 -3q10 -6 10 -17q0 -5 -3 -10q-19 -33 -42 -73q-68 -122 -163.5 -269.5t-209.5 -264.5q-84 -84 -172.5 -128t-199.5 -44q-102 0 -177 55.5t-124.5 142.5t-74 186t-24.5 185zM127 632q43 -22 96 -38t99 -16q67 0 113 35.5t46 112.5
q0 59 -34 89.5t-88 30.5q-89 0 -146.5 -59.5t-85.5 -154.5zM291 1115q-20 -27 -53 -59q-74 -71 -101 -71q-17 1 -17 17q0 13 12 27q29 33 64 100q39 87 95 88q56 -1 96 -88q35 -67 64 -100q12 -14 12 -27q0 -16 -17 -17q-27 0 -102 71q-34 32 -53 59z" />
    <glyph glyph-name="edieresis" unicode="&#xeb;" horiz-adv-x="1114" 
d="M-39 403q0 135 45.5 244.5t134 173.5t218.5 64q47 0 88.5 -18.5t67.5 -54.5t26 -86q0 -63 -31.5 -105t-81.5 -62.5t-106 -20.5q-49 0 -104 16.5t-102 38.5q-17 -77 -17 -162q0 -147 38.5 -268.5t113 -196t183.5 -74.5q76 0 150.5 46t144.5 121t133 164t116.5 178
t95.5 162q22 39 40 70q6 10 17 10q5 0 10 -3q10 -6 10 -17q0 -5 -3 -10q-19 -33 -42 -73q-68 -122 -163.5 -269.5t-209.5 -264.5q-84 -84 -172.5 -128t-199.5 -44q-102 0 -177 55.5t-124.5 142.5t-74 186t-24.5 185zM127 632q43 -22 96 -38t99 -16q67 0 113 35.5t46 112.5
q0 59 -34 89.5t-88 30.5q-89 0 -146.5 -59.5t-85.5 -154.5zM261 1109q0 -38 -22.5 -66t-66.5 -28q-28 0 -45.5 11.5t-26 29t-8.5 35.5q0 38 23 65t65 27q41 0 61 -23.5t20 -50.5zM490 1105q0 -36 -21.5 -63t-64.5 -27q-27 0 -44 11t-25.5 28t-8.5 35q0 36 22.5 62t63.5 26
q39 0 58.5 -22.5t19.5 -49.5z" />
    <glyph glyph-name="igrave" unicode="&#xec;" horiz-adv-x="763" 
d="M-1 627q6 32 41 40q13 3 25 3q22 0 42 -9q30 -13 30 -40q0 -9 -6 -89.5t-8 -178.5q-1 -39 -1 -79q0 -59 2 -121q3 -103 14.5 -192.5t34 -145.5t60.5 -56q51 0 109 67t116.5 170.5t112.5 219t98 217.5q61 139 94 199q6 10 17 10q5 0 10 -3q10 -6 10 -17q0 -5 -3 -10
q-43 -79 -107 -233q-47 -110 -102.5 -230t-118 -225.5t-130.5 -172.5t-140 -67q-63 0 -104.5 51.5t-66.5 137t-36 189.5t-12 210v30q0 89 5 168q5 93 14 157zM43 1016q35 -67 63 -100q13 -14 13 -27q0 -16 -17 -17q-27 0 -102 71q-81 77 -81 127v3q0 13 9 20q9 9 27 11
q44 0 88 -88z" />
    <glyph glyph-name="iacute" unicode="&#xed;" horiz-adv-x="763" 
d="M-1 627q6 32 41 40q13 3 25 3q22 0 42 -9q30 -13 30 -40q0 -9 -6 -89.5t-8 -178.5q-1 -39 -1 -79q0 -59 2 -121q3 -103 14.5 -192.5t34 -145.5t60.5 -56q51 0 109 67t116.5 170.5t112.5 219t98 217.5q61 139 94 199q6 10 17 10q5 0 10 -3q10 -6 10 -17q0 -5 -3 -10
q-43 -79 -107 -233q-47 -110 -102.5 -230t-118 -225.5t-130.5 -172.5t-140 -67q-63 0 -104.5 51.5t-66.5 137t-36 189.5t-12 210v30q0 89 5 168q5 93 14 157zM227 1104q17 -1 26 -10q10 -9 10 -24q0 -49 -82 -126q-74 -72 -101 -72q-17 1 -17 17q0 13 12 27q29 34 64 100
q43 88 88 88z" />
    <glyph glyph-name="icircumflex" unicode="&#xee;" horiz-adv-x="763" 
d="M-1 627q6 32 41 40q13 3 25 3q22 0 42 -9q30 -13 30 -40q0 -9 -6 -89.5t-8 -178.5q-1 -39 -1 -79q0 -59 2 -121q3 -103 14.5 -192.5t34 -145.5t60.5 -56q51 0 109 67t116.5 170.5t112.5 219t98 217.5q61 139 94 199q6 10 17 10q5 0 10 -3q10 -6 10 -17q0 -5 -3 -10
q-43 -79 -107 -233q-47 -110 -102.5 -230t-118 -225.5t-130.5 -172.5t-140 -67q-63 0 -104.5 51.5t-66.5 137t-36 189.5t-12 210v30q0 89 5 168q5 93 14 157zM85 1002q-20 -27 -53 -59q-74 -71 -101 -71q-17 1 -17 17q0 13 12 27q29 33 64 100q39 87 95 88q56 -1 96 -88
q35 -67 64 -100q12 -14 12 -27q0 -16 -17 -17q-27 0 -102 71q-34 32 -53 59z" />
    <glyph glyph-name="idieresis" unicode="&#xef;" horiz-adv-x="763" 
d="M-1 627q6 32 41 40q13 3 25 3q22 0 42 -9q30 -13 30 -40q0 -9 -6 -89.5t-8 -178.5q-1 -39 -1 -79q0 -59 2 -121q3 -103 14.5 -192.5t34 -145.5t60.5 -56q51 0 109 67t116.5 170.5t112.5 219t98 217.5q61 139 94 199q6 10 17 10q5 0 10 -3q10 -6 10 -17q0 -5 -3 -10
q-43 -79 -107 -233q-47 -110 -102.5 -230t-118 -225.5t-130.5 -172.5t-140 -67q-63 0 -104.5 51.5t-66.5 137t-36 189.5t-12 210v30q0 89 5 168q5 93 14 157zM48 993q0 -37 -22.5 -65.5t-66.5 -28.5q-28 0 -45.5 11.5t-26 29.5t-8.5 36q0 38 23 65t65 27q41 0 61 -23.5
t20 -51.5zM277 990q0 -36 -21.5 -63.5t-64.5 -27.5q-27 0 -44 11t-25 28t-8 35q0 37 22 62.5t63 25.5q39 0 58.5 -22.5t19.5 -48.5z" />
    <glyph glyph-name="eth" unicode="&#xf0;" horiz-adv-x="1343" 
d="M382 589q-2 21 -4 43q-28 26 -64.5 43t-74.5 17q-61 -3 -95.5 -47t-47.5 -107t-13 -118q0 -63 10 -140t32 -132.5t57 -55.5q17 2 31.5 16t23.5 27q62 89 97 220t48 232v2zM371 915q3 98 17 198q17 125 56.5 237.5t103 200.5t154.5 140t213 52q64 0 107 -31.5t64 -81.5
q21 -49 21 -106v-5q-3 -99 -53.5 -199.5t-114.5 -174.5q-83 -100 -192 -171q-52 -34 -108 -59h158q32 0 32 -33q0 -23 -28 -23h-291v-19q0 -154 18 -301q21 -162 62.5 -293t100.5 -209.5t134 -78.5q57 0 121 60.5t127 152t119 189t98 176.5q32 60 53 96q6 10 17 10
q5 0 10 -3q10 -6 10 -17q0 -5 -3 -10q-24 -41 -58 -105q-62 -118 -147.5 -259.5t-181.5 -240.5q-45 -46 -90.5 -71t-106.5 -25q-81 0 -141 36t-103.5 95.5t-72.5 131.5t-47 146t-29 139q-13 -68 -44 -167t-85 -177t-137 -83q-61 0 -103.5 54.5t-65 139.5t-22.5 175
q0 152 67.5 248t184.5 96q44 0 88.5 -14t90.5 -46q-4 87 -4 174h-258q-29 0 -29 28q1 28 35 28h253zM511 915h11q112 30 208 95q101 67 179 160q57 69 97 163.5t42 185.5v7q0 45 -11 83q-12 42 -40.5 68t-81.5 26q-101 0 -175 -65.5t-123 -177t-75 -252.5q-26 -140 -31 -293
z" />
    <glyph glyph-name="ntilde" unicode="&#xf1;" horiz-adv-x="1259" 
d="M596 546q20 -67 23 -160q2 -46 2 -94t-2 -98q-1 -50 -1 -97v-47q1 -70 9.5 -125t29 -87.5t60.5 -32.5q53 0 113.5 66.5t122.5 169t119 215t103 208.5q54 114 84 168q6 10 17 10q5 0 10 -3q10 -6 10 -17q0 -5 -3 -10q-34 -61 -90 -179q-69 -148 -158 -314t-185 -271
q-45 -49 -95 -79t-115 -30q-50 0 -90.5 34.5t-61.5 111.5q-17 68 -19 158q-1 45 -1 91t1 93q1 49 1 95v46q-1 67 -8.5 120t-27.5 84t-56 31q-32 0 -56.5 -48t-43 -119.5t-31.5 -144.5t-21 -126q-5 -34 -8 -52q-9 -42 -30 -59t-45 -18q-46 0 -71.5 52.5t-34.5 94.5
q-24 93 -37 219q-13 118 -13 209q3 53 36 64q14 4 28 4q20 0 39 -8q33 -15 36 -59q0 -36 6 -117q7 -93 20.5 -191.5t32.5 -146.5q6 32 12 65q19 120 47 237q11 48 36 105q51 112 154 112q47 0 88.5 -33t63.5 -97zM293 953q45 -27 70 -27q13 0 23 30q4 10 16 10q17 0 17 -21
q0 -30 -25.5 -55.5t-61.5 -25.5q-52 1 -121 40q-45 27 -70 27q-13 0 -23 -30q-4 -10 -16 -10q-17 0 -17 21q0 30 25.5 55.5t61.5 25.5q52 0 121 -40z" />
    <glyph glyph-name="ograve" unicode="&#xf2;" horiz-adv-x="1063" 
d="M29 155q-29 101 -29 243q2 134 19 233q-6 31 -6 61q0 107 66 163t168 56q76 0 130 -35.5t87.5 -92.5t49.5 -124.5t16 -131.5q0 -45 -9 -106h20q76 0 188 23t210.5 70t143.5 118q6 10 17 10q5 0 10 -3q10 -6 10 -17q0 -5 -3 -10q-49 -79 -152.5 -130t-221.5 -75.5
t-202 -24.5h-26q-23 -128 -84 -238q-39 -67 -92.5 -103.5t-132.5 -36.5q-56 0 -103.5 37t-73.5 114zM140 512q64 -47 151 -66.5t173 -22.5q6 62 6 104q0 55 -10 115.5t-34.5 112t-68 84t-110.5 32.5q-76 0 -127.5 -35t-64.5 -105q28 26 67 26q24 0 39 -14q13 -12 13 -33
q0 -10 -3 -22q-24 -86 -31 -176zM458 384q-84 3 -168.5 21.5t-152.5 60.5q-1 -13 -1 -32q2 -225 36.5 -297.5t85.5 -72.5q52 0 96 49.5t68.5 122.5t35.5 148zM179 1194q35 -67 64 -100q12 -14 12 -27q0 -16 -17 -17q-27 0 -102 71q-81 78 -81 127q0 15 9 24q10 9 27 10
q44 0 88 -88z" />
    <glyph glyph-name="oacute" unicode="&#xf3;" horiz-adv-x="1063" 
d="M29 155q-29 101 -29 243q2 134 19 233q-6 31 -6 61q0 107 66 163t168 56q76 0 130 -35.5t87.5 -92.5t49.5 -124.5t16 -131.5q0 -45 -9 -106h20q76 0 188 23t210.5 70t143.5 118q6 10 17 10q5 0 10 -3q10 -6 10 -17q0 -5 -3 -10q-49 -79 -152.5 -130t-221.5 -75.5
t-202 -24.5h-26q-23 -128 -84 -238q-39 -67 -92.5 -103.5t-132.5 -36.5q-56 0 -103.5 37t-73.5 114zM140 512q64 -47 151 -66.5t173 -22.5q6 62 6 104q0 55 -10 115.5t-34.5 112t-68 84t-110.5 32.5q-76 0 -127.5 -35t-64.5 -105q28 26 67 26q24 0 39 -14q13 -12 13 -33
q0 -10 -3 -22q-24 -86 -31 -176zM458 384q-84 3 -168.5 21.5t-152.5 60.5q-1 -13 -1 -32q2 -225 36.5 -297.5t85.5 -72.5q52 0 96 49.5t68.5 122.5t35.5 148zM382 1288q17 -1 27 -10q9 -9 9 -24q0 -49 -81 -127q-75 -71 -102 -71q-17 1 -17 17q0 13 12 27q29 33 64 100
q44 88 88 88z" />
    <glyph glyph-name="ocircumflex" unicode="&#xf4;" horiz-adv-x="1063" 
d="M29 155q-29 101 -29 243q2 134 19 233q-6 31 -6 61q0 107 66 163t168 56q76 0 130 -35.5t87.5 -92.5t49.5 -124.5t16 -131.5q0 -45 -9 -106h20q76 0 188 23t210.5 70t143.5 118q6 10 17 10q5 0 10 -3q10 -6 10 -17q0 -5 -3 -10q-49 -79 -152.5 -130t-221.5 -75.5
t-202 -24.5h-26q-23 -128 -84 -238q-39 -67 -92.5 -103.5t-132.5 -36.5q-56 0 -103.5 37t-73.5 114zM140 512q64 -47 151 -66.5t173 -22.5q6 62 6 104q0 55 -10 115.5t-34.5 112t-68 84t-110.5 32.5q-76 0 -127.5 -35t-64.5 -105q28 26 67 26q24 0 39 -14q13 -12 13 -33
q0 -10 -3 -22q-24 -86 -31 -176zM458 384q-84 3 -168.5 21.5t-152.5 60.5q-1 -13 -1 -32q2 -225 36.5 -297.5t85.5 -72.5q52 0 96 49.5t68.5 122.5t35.5 148zM209 1186q-20 -27 -53 -59q-74 -71 -101 -71q-17 1 -17 17q0 13 12 27q29 33 64 100q39 87 95 88q56 -1 96 -88
q35 -67 64 -100q12 -14 12 -27q0 -16 -17 -17q-27 0 -102 71q-34 32 -53 59z" />
    <glyph glyph-name="otilde" unicode="&#xf5;" horiz-adv-x="1063" 
d="M29 155q-29 101 -29 243q2 134 19 233q-6 31 -6 61q0 107 66 163t168 56q76 0 130 -35.5t87.5 -92.5t49.5 -124.5t16 -131.5q0 -45 -9 -106h20q76 0 188 23t210.5 70t143.5 118q6 10 17 10q5 0 10 -3q10 -6 10 -17q0 -5 -3 -10q-49 -79 -152.5 -130t-221.5 -75.5
t-202 -24.5h-26q-23 -128 -84 -238q-39 -67 -92.5 -103.5t-132.5 -36.5q-56 0 -103.5 37t-73.5 114zM140 512q64 -47 151 -66.5t173 -22.5q6 62 6 104q0 55 -10 115.5t-34.5 112t-68 84t-110.5 32.5q-76 0 -127.5 -35t-64.5 -105q28 26 67 26q24 0 39 -14q13 -12 13 -33
q0 -10 -3 -22q-24 -86 -31 -176zM458 384q-84 3 -168.5 21.5t-152.5 60.5q-1 -13 -1 -32q2 -225 36.5 -297.5t85.5 -72.5q52 0 96 49.5t68.5 122.5t35.5 148zM293 1180q45 -27 70 -27q13 0 23 30q4 10 16 10q17 0 17 -21q0 -30 -25.5 -55.5t-61.5 -25.5q-52 0 -121 40
q-45 27 -70 27q-13 0 -23 -30q-4 -10 -16 -10q-17 0 -17 21q0 30 25.5 55.5t61.5 25.5q52 0 121 -40z" />
    <glyph glyph-name="odieresis" unicode="&#xf6;" horiz-adv-x="1063" 
d="M29 155q-29 101 -29 243q2 134 19 233q-6 31 -6 61q0 107 66 163t168 56q76 0 130 -35.5t87.5 -92.5t49.5 -124.5t16 -131.5q0 -45 -9 -106h20q76 0 188 23t210.5 70t143.5 118q6 10 17 10q5 0 10 -3q10 -6 10 -17q0 -5 -3 -10q-49 -79 -152.5 -130t-221.5 -75.5
t-202 -24.5h-26q-23 -128 -84 -238q-39 -67 -92.5 -103.5t-132.5 -36.5q-56 0 -103.5 37t-73.5 114zM140 512q64 -47 151 -66.5t173 -22.5q6 62 6 104q0 55 -10 115.5t-34.5 112t-68 84t-110.5 32.5q-76 0 -127.5 -35t-64.5 -105q28 26 67 26q24 0 39 -14q13 -12 13 -33
q0 -10 -3 -22q-24 -86 -31 -176zM458 384q-84 3 -168.5 21.5t-152.5 60.5q-1 -13 -1 -32q2 -225 36.5 -297.5t85.5 -72.5q52 0 96 49.5t68.5 122.5t35.5 148zM212 1150q0 -38 -22.5 -66t-66.5 -28q-28 0 -45.5 11.5t-26 29t-8.5 35.5q0 38 23 65t65 27q41 0 61 -23.5
t20 -50.5zM441 1146q0 -36 -21.5 -63t-64.5 -27q-27 0 -44 11t-25.5 28t-8.5 35q0 36 22.5 62t63.5 26q39 0 58.5 -22.5t19.5 -49.5z" />
    <glyph glyph-name="oslash" unicode="&#xf8;" horiz-adv-x="1063" 
d="M309 438q68 -13 135 -15q6 62 6 104q0 55 -10 116q-6 33 -16 64q-51 -120 -115 -269zM293 401q-8 -18 -16 -37q-60 -139 -109 -255q30 -45 70 -45q52 0 96 49.5t68.5 122.5t35.5 148q-72 3 -145 17zM92 34q-5 3 -9 7q-48 37 -74 114q-29 101 -29 243q2 134 19 233
q-6 31 -6 61q0 107 66 163t168 56q76 0 130 -35q40 -27 69 -66q146 337 172 384q6 10 17 10q5 0 10 -3q10 -6 10 -17q0 -5 -3 -10q-26 -48 -180 -404q28 -52 42 -111q16 -68 16 -132q0 -45 -9 -106h20q76 0 188 23t210.5 70t143.5 118q6 10 17 10q5 0 10 -3q10 -6 10 -17
q0 -5 -3 -10q-49 -79 -152.5 -130t-221.5 -75.5t-202 -24.5h-26q-23 -128 -84 -238q-39 -67 -92.5 -103.5t-132.5 -36.5q-31 0 -59 11q-177 -410 -206 -463q-6 -10 -17 -10q-5 0 -10 3q-10 6 -10 17q0 5 3 10q28 51 205 462zM404 758q-25 49 -66 81q-44 32 -111 32
q-76 0 -127.5 -35t-64.5 -105q28 26 67 26q24 0 39 -14q13 -12 13 -33q0 -10 -3 -22q-24 -86 -31 -176q63 -47 149 -66q76 177 135 312zM254 409q-75 19 -137 57q-1 -13 -1 -32q2 -199 29 -278q45 104 97 226q6 14 12 27z" />
    <glyph glyph-name="ugrave" unicode="&#xf9;" horiz-adv-x="1304" 
d="M689 569q-1 -34 -1 -68q0 -65 3 -131q0 -19 3.5 -72.5t10.5 -122.5t19 -135t30.5 -110t43.5 -44q43 0 101 66t120 165.5t120 205.5t102 191q42 81 63 118q5 10 18 10q5 0 10 -3q10 -6 10 -17q0 -5 -3 -10q-25 -44 -69 -129q-53 -103 -122.5 -229t-144.5 -233
q-47 -67 -88.5 -116t-84.5 -76.5t-95 -27.5t-92.5 63t-64.5 201q-22 140 -26 301q-24 -178 -76 -315q-37 -91 -81.5 -133t-105.5 -42q-59 0 -122 46.5t-102 141.5q-43 122 -54 266.5t-11 245.5v42q1 36 35 49q18 8 37 8q14 0 29 -5q34 -11 37 -48q1 -17 1 -42
q0 -55 2.5 -135t12 -166.5t29.5 -162t55.5 -123.5t90.5 -48q42 0 74 48t55.5 126t40 170.5t28.5 184.5q5 50 11 94q5 58 78 58t73 -57zM317 1016q35 -66 63 -100q13 -14 13 -27q0 -16 -17 -17q-27 0 -102 72q-81 77 -81 126v3q0 13 9 21q9 9 27 10q44 0 88 -88z" />
    <glyph glyph-name="uacute" unicode="&#xfa;" horiz-adv-x="1304" 
d="M689 569q-1 -34 -1 -68q0 -65 3 -131q0 -19 3.5 -72.5t10.5 -122.5t19 -135t30.5 -110t43.5 -44q43 0 101 66t120 165.5t120 205.5t102 191q42 81 63 118q5 10 18 10q5 0 10 -3q10 -6 10 -17q0 -5 -3 -10q-25 -44 -69 -129q-53 -103 -122.5 -229t-144.5 -233
q-47 -67 -88.5 -116t-84.5 -76.5t-95 -27.5t-92.5 63t-64.5 201q-22 140 -26 301q-24 -178 -76 -315q-37 -91 -81.5 -133t-105.5 -42q-59 0 -122 46.5t-102 141.5q-43 122 -54 266.5t-11 245.5v42q1 36 35 49q18 8 37 8q14 0 29 -5q34 -11 37 -48q1 -17 1 -42
q0 -55 2.5 -135t12 -166.5t29.5 -162t55.5 -123.5t90.5 -48q42 0 74 48t55.5 126t40 170.5t28.5 184.5q5 50 11 94q5 58 78 58t73 -57zM456 1104q17 -1 26 -10q10 -9 10 -24q0 -49 -82 -127q-75 -71 -101 -71q-17 1 -17 17q0 13 12 27q29 33 64 100q43 88 88 88z" />
    <glyph glyph-name="ucircumflex" unicode="&#xfb;" horiz-adv-x="1304" 
d="M689 569q-1 -34 -1 -68q0 -65 3 -131q0 -19 3.5 -72.5t10.5 -122.5t19 -135t30.5 -110t43.5 -44q43 0 101 66t120 165.5t120 205.5t102 191q42 81 63 118q5 10 18 10q5 0 10 -3q10 -6 10 -17q0 -5 -3 -10q-25 -44 -69 -129q-53 -103 -122.5 -229t-144.5 -233
q-47 -67 -88.5 -116t-84.5 -76.5t-95 -27.5t-92.5 63t-64.5 201q-22 140 -26 301q-24 -178 -76 -315q-37 -91 -81.5 -133t-105.5 -42q-59 0 -122 46.5t-102 141.5q-43 122 -54 266.5t-11 245.5v42q1 36 35 49q18 8 37 8q14 0 29 -5q34 -11 37 -48q1 -17 1 -42
q0 -55 2.5 -135t12 -166.5t29.5 -162t55.5 -123.5t90.5 -48q42 0 74 48t55.5 126t40 170.5t28.5 184.5q5 50 11 94q5 58 78 58t73 -57zM347 1002q-20 -27 -54 -59q-74 -71 -101 -71q-17 1 -17 17q0 13 12 27q29 33 64 100q40 87 96 88q56 -1 95 -88q35 -67 64 -100
q12 -14 12 -27q0 -16 -17 -17q-27 0 -102 71q-33 32 -52 59z" />
    <glyph glyph-name="udieresis" unicode="&#xfc;" horiz-adv-x="1304" 
d="M689 569q-1 -34 -1 -68q0 -65 3 -131q0 -19 3.5 -72.5t10.5 -122.5t19 -135t30.5 -110t43.5 -44q43 0 101 66t120 165.5t120 205.5t102 191q42 81 63 118q5 10 18 10q5 0 10 -3q10 -6 10 -17q0 -5 -3 -10q-25 -44 -69 -129q-53 -103 -122.5 -229t-144.5 -233
q-47 -67 -88.5 -116t-84.5 -76.5t-95 -27.5t-92.5 63t-64.5 201q-22 140 -26 301q-24 -178 -76 -315q-37 -91 -81.5 -133t-105.5 -42q-59 0 -122 46.5t-102 141.5q-43 122 -54 266.5t-11 245.5v42q1 36 35 49q18 8 37 8q14 0 29 -5q34 -11 37 -48q1 -17 1 -42
q0 -55 2.5 -135t12 -166.5t29.5 -162t55.5 -123.5t90.5 -48q42 0 74 48t55.5 126t40 170.5t28.5 184.5q5 50 11 94q5 58 78 58t73 -57zM328 994q0 -38 -22.5 -66t-66.5 -28q-28 0 -46 11.5t-26.5 29t-8.5 36.5q0 37 23.5 64t65.5 27q41 0 61 -23.5t20 -50.5zM557 990
q0 -36 -21.5 -63t-64.5 -27q-27 0 -44 11t-25.5 28t-8.5 35q0 36 22.5 62t63.5 26q39 0 58.5 -22.5t19.5 -49.5z" />
    <glyph glyph-name="yacute" unicode="&#xfd;" horiz-adv-x="1244" 
d="M500 729q18 8 38 8q11 0 23 -3q32 -8 42 -46q13 -76 33 -171q37 -175 66 -379q165 93 305.5 213.5t236.5 280.5q6 10 17 10q5 0 10 -3q10 -6 10 -17q0 -5 -3 -10q-99 -165 -242.5 -288.5t-328.5 -228.5q13 -107 13 -214q-2 -151 -29 -262t-87.5 -197.5t-162.5 -147.5
t-256 -61q-88 0 -163.5 24.5t-121.5 86.5t-46 145q0 89 40 160t104 125.5t137 94.5q131 72 267 135q86 41 171 84q-30 238 -75 441l-8 42q-2 -21 -4 -46q-5 -63 -15.5 -140t-33 -148.5t-63 -118.5t-107.5 -47q-81 0 -132 36.5t-79.5 96t-40.5 131t-15 144.5q-1 48 -1 92v72
q2 45 36 56q13 4 27 4q19 0 39 -9q35 -16 37 -52v-42q0 -31 1 -72q1 -62 8.5 -130.5t24 -130t46 -100.5t76.5 -39q42 0 70 54t46.5 134.5t29 165t16.5 149.5q5 52 9 77q5 29 35 41zM577 26q-77 -39 -156 -76q-135 -64 -267 -135q-66 -37 -120.5 -86.5t-87.5 -114t-33 -145.5
q0 -62 31.5 -109.5t81 -64t101.5 -16.5q159 0 254.5 71t142.5 173.5t57 232.5q4 54 4 110q0 78 -8 160zM433 1104q17 -1 26 -10q10 -9 10 -24q0 -49 -82 -127q-74 -71 -101 -71q-17 1 -17 17q0 13 12 27q29 33 64 100q43 88 88 88z" />
    <glyph glyph-name="thorn" unicode="&#xfe;" horiz-adv-x="1362" 
d="M293 149q0 -40 27 -65t66 -25q69 0 115 33t72 87.5t33 119.5h-131q-47 0 -88.5 -16t-67.5 -49.5t-26 -84.5zM79 268q-51 -127 -90 -265.5t-61 -269.5t-22 -238q0 -108 24 -170q24 -64 79 -64q23 0 43 10q61 33 83 137q19 88 19 249q-4 146 -25.5 306t-49.5 305zM166 522
q56 86 117 138q86 73 181 73q42 0 83 -14t78 -43q58 -48 90 -129t32 -171q0 -16 -1 -32q122 7 239 34t215 87.5t162 166.5q7 10 17 10q5 0 10 -3q10 -6 10 -16q0 -4 -3 -11q-69 -115 -173 -179.5t-228 -93t-253 -35.5q-10 -77 -46.5 -142.5t-103 -106.5t-167.5 -41
q-42 0 -79.5 11.5t-61.5 39.5q-30 34 -30 84q0 62 31 104.5t81.5 63.5t123.5 21q57 0 119 1v13q0 77 -21 147q-23 77 -68 127.5t-107 50.5q-60 0 -120 -56t-115 -150q34 -150 68 -357q45 -257 47 -491q0 -149 -30 -257q-27 -82 -83 -126t-118 -44q-52 0 -98 29.5t-71 93.5
q-26 76 -26 186q0 44 4 92q13 173 65 369.5t130 369.5q-32 131 -53 277t-21 345q3 157 43 298t113.5 250.5t178.5 173.5t242 64q19 0 19 -18q0 -21 -19 -21q-146 0 -289 -167.5t-153 -604.5q0 -197 13 -276t26 -135z" />
    <glyph glyph-name="ydieresis" unicode="&#xff;" horiz-adv-x="1244" 
d="M500 729q18 8 38 8q11 0 23 -3q32 -8 42 -46q13 -76 33 -171q37 -175 66 -379q165 93 305.5 213.5t236.5 280.5q6 10 17 10q5 0 10 -3q10 -6 10 -17q0 -5 -3 -10q-99 -165 -242.5 -288.5t-328.5 -228.5q13 -107 13 -214q-2 -151 -29 -262t-87.5 -197.5t-162.5 -147.5
t-256 -61q-88 0 -163.5 24.5t-121.5 86.5t-46 145q0 89 40 160t104 125.5t137 94.5q131 72 267 135q86 41 171 84q-30 238 -75 441l-8 42q-2 -21 -4 -46q-5 -63 -15.5 -140t-33 -148.5t-63 -118.5t-107.5 -47q-81 0 -132 36.5t-79.5 96t-40.5 131t-15 144.5q-1 48 -1 92v72
q2 45 36 56q13 4 27 4q19 0 39 -9q35 -16 37 -52v-42q0 -31 1 -72q1 -62 8.5 -130.5t24 -130t46 -100.5t76.5 -39q42 0 70 54t46.5 134.5t29 165t16.5 149.5q5 52 9 77q5 29 35 41zM577 26q-77 -39 -156 -76q-135 -64 -267 -135q-66 -37 -120.5 -86.5t-87.5 -114t-33 -145.5
q0 -62 31.5 -109.5t81 -64t101.5 -16.5q159 0 254.5 71t142.5 173.5t57 232.5q4 54 4 110q0 78 -8 160zM538 994q0 -38 -22.5 -66t-66.5 -28q-28 0 -46 11.5t-26.5 29t-8.5 35.5q0 38 23 65t66 27q40 0 60.5 -23.5t20.5 -50.5zM767 990q0 -36 -22 -63t-64 -27
q-27 0 -44.5 11t-25.5 28t-8 35q0 36 22 62t63 26q40 0 59.5 -22.5t19.5 -49.5z" />
    <glyph glyph-name="dotlessi" unicode="&#x131;" horiz-adv-x="763" 
d="M-1 627q6 32 41 40q13 3 25 3q22 0 42 -9q30 -13 30 -40q0 -9 -6 -89.5t-8 -178.5q-1 -39 -1 -79q0 -59 2 -121q3 -103 14.5 -192.5t34 -145.5t60.5 -56q51 0 109 67t116.5 170.5t112.5 219t98 217.5q61 139 94 199q6 10 17 10q5 0 10 -3q10 -6 10 -17q0 -5 -3 -10
q-43 -79 -107 -233q-47 -110 -102.5 -230t-118 -225.5t-130.5 -172.5t-140 -67q-63 0 -104.5 51.5t-66.5 137t-36 189.5t-12 210v30q0 89 5 168q5 93 14 157z" />
    <glyph glyph-name="circumflex" unicode="&#x2c6;" horiz-adv-x="543" 
d="M271 1002q-19 -27 -53 -59q-74 -71 -101 -71q-17 1 -17 17q0 13 12 27q29 33 64 100q39 87 95 88q57 -1 96 -88q35 -67 64 -100q12 -14 12 -27q0 -16 -17 -17q-27 0 -102 71q-33 32 -53 59z" />
    <glyph glyph-name="caron" unicode="&#x2c7;" horiz-adv-x="543" 
d="M271 974q20 27 53 59q75 71 102 71q17 -1 17 -17q0 -13 -12 -27q-29 -33 -64 -100q-39 -87 -96 -88q-56 1 -95 88q-35 67 -64 100q-12 14 -12 27q0 16 17 17q27 0 101 -71q34 -32 53 -59z" />
    <glyph glyph-name="dotaccent" unicode="&#x2d9;" horiz-adv-x="370" 
d="M270 994q0 -38 -22.5 -66t-66.5 -28q-28 0 -46 11.5t-26.5 29t-8.5 35.5q0 38 23 65t66 27q40 0 60.5 -23.5t20.5 -50.5z" />
    <glyph glyph-name="ring" unicode="&#x2da;" horiz-adv-x="507" 
d="M407 969q0 -68 -41 -119t-120 -51q-51 0 -83 21t-47.5 53t-15.5 65q0 69 41.5 117.5t118.5 48.5q74 0 110.5 -42.5t36.5 -92.5zM370 965q0 38 -27.5 70t-83.5 32q-59 0 -91 -36.5t-32 -89.5q0 -25 12 -49.5t36.5 -40.5t63.5 -16q60 0 91 39t31 91z" />
    <glyph glyph-name="tilde" unicode="&#x2dc;" horiz-adv-x="534" 
d="M308 953q45 -27 70 -27q13 0 23 30q4 10 16 10q17 0 17 -21q0 -30 -25.5 -55.5t-61.5 -25.5q-52 0 -121 40q-45 27 -70 27q-13 0 -23 -30q-4 -10 -16 -10q-17 0 -17 21q0 30 25.5 55.5t61.5 25.5q52 0 121 -40z" />
    <glyph glyph-name="quoteleft" unicode="&#x2018;" horiz-adv-x="816" 
d="M257 727q4 0 9 6q29 40 86 40q37 0 60 -16t34 -41t11 -51q0 -53 -35 -90.5t-90 -37.5q-79 0 -125 79t-46 209q0 178 71 328t178.5 275.5t225.5 196.5q5 3 10 3q11 -1 17 -10q3 -5 3 -10q0 -11 -10 -17q-111 -67 -214.5 -187.5t-162.5 -254t-59 -264.5q0 -93 30 -152
q2 -6 7 -6z" />
    <glyph glyph-name="quoteright" unicode="&#x2019;" horiz-adv-x="816" 
d="M570 1438q-4 0 -9 -6q-29 -40 -86 -40q-37 0 -60 16t-34 41t-11 51q0 53 35 90.5t90 37.5q79 0 125 -79t46 -209q0 -178 -71 -328t-178.5 -275.5t-225.5 -196.5q-5 -3 -10 -3q-11 1 -17 10q-3 5 -3 10q0 11 10 17q111 67 214.5 187.5t162.5 254t59 264.5q0 93 -29 152
q-3 6 -8 6z" />
    <glyph glyph-name="quotesinglbase" unicode="&#x201a;" horiz-adv-x="596" 
d="M200 -22q-4 0 -9 -6q-29 -40 -86 -40q-37 0 -60 16t-34 41t-11 51q0 53 35 90.5t90 37.5q79 0 125 -79t46 -209q0 -178 -71 -328t-178.5 -275.5t-225.5 -196.5q-5 -3 -10 -3q-11 1 -17 10q-3 5 -3 10q0 11 10 17q111 67 214.5 187.5t162.5 254t59 264.5q0 93 -29 152
q-3 6 -8 6z" />
    <glyph glyph-name="quotedblleft" unicode="&#x201c;" horiz-adv-x="1309" 
d="M257 627q4 0 9 6q29 40 86 40q37 0 60 -16t34 -41t11 -51q0 -53 -35 -90.5t-90 -37.5q-79 0 -125 79t-46 209q0 178 71 328t178.5 275.5t225.5 196.5q5 3 10 3q11 -1 17 -10q3 -5 3 -10q0 -11 -10 -17q-111 -67 -214.5 -187.5t-162.5 -254t-59 -264.5q0 -93 30 -152
q2 -6 7 -6zM750 815q4 0 9 7q29 39 86 39q37 0 60 -16t34 -41t11 -51q0 -53 -35 -90.5t-90 -37.5q-79 0 -125 79t-46 209q0 178 71 328t178.5 275.5t225.5 196.5q5 3 10 3q11 -1 17 -10q3 -5 3 -10q0 -11 -10 -17q-111 -67 -214.5 -187.5t-162.5 -254t-59 -264.5
q0 -93 30 -151q2 -6 7 -7z" />
    <glyph glyph-name="quotedblright" unicode="&#x201d;" horiz-adv-x="1309" 
d="M1063 1022q-4 0 -9 -7q-29 -39 -86 -39q-37 0 -60 16t-34 41t-11 51q0 53 35 90.5t90 37.5q79 0 125 -79t46 -209q0 -178 -71 -328t-178.5 -275.5t-225.5 -196.5q-5 -3 -10 -3q-11 1 -17 10q-3 5 -3 10q0 11 10 17q111 67 214.5 187.5t162.5 254t59 264.5q0 93 -29 151
q-3 6 -8 7zM570 1338q-4 0 -9 -7q-29 -39 -86 -39q-37 0 -60 16t-34 41t-11 51q0 53 35 90.5t90 37.5q79 0 125 -79t46 -209q0 -178 -71 -328t-178.5 -275.5t-225.5 -196.5q-5 -3 -10 -3q-11 1 -17 10q-3 5 -3 10q0 11 10 17q111 67 214.5 187.5t162.5 254t59 264.5
q0 93 -30 151q-2 6 -7 7z" />
    <glyph glyph-name="quotedblbase" unicode="&#x201e;" horiz-adv-x="1309" 
d="M1063 -61q-4 0 -9 -6q-29 -40 -86 -40q-37 0 -60 16t-34 41t-11 51q0 53 35 90.5t90 37.5q79 0 125 -79t46 -209q0 -178 -71 -328t-178.5 -275.5t-225.5 -196.5q-5 -3 -10 -3q-11 1 -17 10q-3 5 -3 10q0 11 10 17q111 67 214.5 187.5t162.5 254t59 264.5q0 93 -29 152
q-3 6 -8 6zM570 255q-4 0 -9 -6q-29 -40 -86 -40q-37 0 -60 16t-34 41t-11 51q0 53 35 90.5t90 37.5q79 0 125 -79t46 -209q0 -178 -71 -328t-178.5 -275.5t-225.5 -196.5q-5 -3 -10 -3q-11 1 -17 10q-3 5 -3 10q0 11 10 17q111 67 214.5 187.5t162.5 254t59 264.5
q0 93 -30 152q-2 6 -7 6z" />
    <glyph glyph-name="bullet" unicode="&#x2022;" horiz-adv-x="1138" 
d="M675 183q-61 -71 -112 -72q-38 0 -97 72q-266 292 -266 523q0 199 185 201q148 0 212 -144q54 90 176 90q165 -2 165 -200q0 -191 -263 -470z" />
    <glyph glyph-name="ellipsis" unicode="&#x2026;" horiz-adv-x="2048" 
d="M220 64q0 -53 -29 -92.5t-86 -39.5q-37 0 -60 16t-34 41t-11 51q0 53 30 90.5t85 37.5q53 0 79 -32.5t26 -71.5zM903 64q0 -53 -29 -92.5t-86 -39.5q-37 0 -60 16t-34 41t-11 51q0 53 30 90.5t85 37.5q53 0 79 -32.5t26 -71.5zM1586 64q0 -53 -29 -92.5t-86 -39.5
q-37 0 -60 16t-34 41t-11 51q0 53 30 90.5t85 37.5q53 0 79 -32.5t26 -71.5z" />
    <glyph glyph-name="guilsinglleft" unicode="&#x2039;" horiz-adv-x="1390" 
d="M675 183q-61 -71 -112 -72q-38 0 -97 72q-266 292 -266 523q0 199 185 201q148 0 212 -144q54 90 176 90q165 -2 165 -200q0 -191 -263 -470zM973 777q-120 128 -120 215q0 90 75 91q56 0 80 -41q30 66 97 66q85 -1 85 -92q0 -105 -122 -239q-27 -33 -44 -33
q-23 1 -51 33z" />
    <glyph glyph-name="guilsinglright" unicode="&#x203a;" horiz-adv-x="1390" 
d="M715 183q-263 279 -263 470q0 198 165 200q122 0 176 -90q64 144 212 144q185 -2 185 -201q0 -231 -266 -523q-59 -72 -97 -72q-51 1 -112 72zM320 777q-120 128 -120 215q0 90 75 91q56 0 80 -41q30 66 97 66q85 -1 85 -92q0 -105 -122 -239q-27 -33 -44 -33
q-23 1 -51 33z" />
    <glyph glyph-name="approxequal" unicode="&#x2248;" horiz-adv-x="3346" 
d="M1690 1693q-90 0 -136.5 -59t-46.5 -145q0 -146 70 -284q46 -91 113 -174q67 83 113 174q70 138 70 284q0 86 -46.5 145t-136.5 59zM1690 -279q90 0 136.5 59t46.5 145q0 146 -70 284q-46 91 -113 174q-67 -83 -113 -174q-70 -138 -70 -284q0 -86 46.5 -145t136.5 -59z
M1299 707q-116 65 -237 105q-152 50 -288 50q-245 0 -430 -112q-33 -20 -64 -43q31 -23 64 -42q185 -113 430 -113q136 0 288 50q121 40 237 105zM2081 707q116 -65 238 -105q151 -50 287 -50q245 0 431 113q32 19 63 42q-31 23 -63 43q-186 112 -431 112q-136 0 -287 -50
q-122 -40 -238 -105zM2005 707q-2 1 -4 3q-149 92 -269 215q-22 22 -42 45q-20 -23 -41 -45q-121 -123 -269 -215q-3 -2 -5 -3q2 -1 5 -2q148 -93 269 -216q21 -22 41 -45q20 23 42 45q120 123 269 216zM1338 730q9 5 19 11q143 89 260 208q24 25 47 51q-74 91 -125 192
q-72 144 -72 297q0 68 26.5 123.5t76 87.5t120.5 32t120.5 -32t76 -87.5t26.5 -123.5q0 -153 -72 -297q-51 -101 -125 -192q23 -26 48 -51q116 -119 260 -208q9 -6 18 -11q129 74 264 120q157 52 300 52q255 0 450 -117q40 -24 76 -52q124 101 214 254q6 11 16 11q6 0 11 -4
q10 -7 10 -17q0 -5 -3 -10q-91 -156 -216 -260q125 -104 216 -260q3 -5 3 -10q0 -10 -10 -17q-5 -4 -11 -4q-10 0 -16 11q-90 153 -214 254q-36 -28 -76 -51q-195 -118 -450 -118q-143 0 -300 53q-135 45 -264 119q-9 -5 -18 -11q-144 -89 -260 -207q-25 -26 -48 -52
q74 -91 125 -192q72 -144 72 -297q0 -68 -26.5 -123.5t-76 -87.5t-120.5 -32t-120.5 32t-76 87.5t-26.5 123.5q0 153 72 297q51 101 125 192q-23 26 -47 52q-117 118 -260 207q-10 6 -19 11q-129 -74 -264 -119q-157 -53 -300 -53q-255 0 -450 118q-40 23 -76 51
q-124 -101 -214 -254q-6 -11 -16 -11q-6 0 -11 4q-10 7 -10 17q0 5 3 10q91 156 216 260q-125 104 -216 260q-3 5 -3 10q0 10 10 17q5 4 11 4q10 0 16 -11q90 -153 214 -254q36 28 76 52q195 117 450 117q143 0 300 -52q135 -46 264 -120z" />
    <glyph glyph-name="uniE010" unicode="&#xe010;" horiz-adv-x="996" 
d="M307 604q-6 20 -17 43t-28 40.5t-41 17.5q-20 0 -37 -16.5t-30 -38t-21 -37.5q-21 -44 -29.5 -96.5t-8.5 -100.5q0 -15 3 -49.5t11.5 -71.5t23 -63.5t37.5 -26.5q25 0 47 54.5t38 118.5t23 101q17 79 29 125zM576 0q-139 0 -204.5 112t-65.5 309q-30 -142 -70.5 -208.5
t-99.5 -66.5q-82 0 -131 71.5t-49 198.5q0 53 9.5 109.5t32.5 105.5q33 65 84 100t104 35q40 0 76 -25t62 -75q3 31 22 47q19 14 51 22q12 3 23 3q56 0 56 -36q0 -5 -1 -11q-2 -8 -4 -18q-5 -25 -11.5 -79t-10.5 -124q-4 -55 -4 -111q1 -88 12 -164q29 -138 171 -138
q134 0 256 203t122 558q0 207 -71 295q-60 81 -163 83q-30 0 -63 -8q-4 -1 -6 -1q-13 0 -16 16q-1 4 -1 8q0 12 14 15q40 10 77 10q79 0 145 -44q142 -106 142 -381q0 -333 -143.5 -572t-344.5 -239z" />
    <glyph glyph-name="uniE011" unicode="&#xe011;" horiz-adv-x="1251" 
d="M106 648q114 30 234 101t223 170t168 216t65 238q0 105 -71 169t-174 64q-93 0 -168.5 -48t-128.5 -124q-61 -89 -94 -198t-45.5 -224t-12.5 -219q0 -65 4 -145zM474 221q-86 -36 -153 -73.5t-106.5 -79.5t-39.5 -90q0 -28 12 -45.5t43 -17.5q60 0 108.5 44t83 113.5
t52.5 148.5zM212 119q101 83 271 150q9 57 9 108q0 19 -1 38q-6 67 -30.5 110t-71.5 43q-41 0 -70.5 -34t-49 -87.5t-31.5 -114.5t-18 -117.5t-8 -95.5zM1014 442q-156 -75 -337 -141l-52 -20q-21 -146 -79.5 -241.5t-133.5 -142.5t-141 -47q-58 0 -96.5 32t-38.5 96
q0 53 35 97q-87 73 -132 201.5t-60.5 271t-15.5 245.5q0 166 32 319t102 273t182 190.5t272 70.5q119 0 201.5 -76t82.5 -197q0 -129 -68 -253t-176.5 -229t-234.5 -179t-247 -105q12 -223 68 -420q6 81 26 174t61 163q40 66 89 100.5t98 34.5q61 0 97.5 -35.5t55 -89
t24.5 -109.5q3 -35 3 -65q0 -18 -1 -34q23 9 46 17q174 63 319 132q286 143 475.5 355.5t189.5 537.5q0 206 -89 305q-62 71 -165 73q-30 0 -63 -8q-4 -1 -6 -1q-12 0 -16 16q-1 4 -1 8q0 12 14 15q40 10 77 10q79 0 146 -44q161 -106 161 -362q0 -332 -204 -560.5
t-500 -377.5z" />
    <glyph glyph-name="uniE012" unicode="&#xe012;" horiz-adv-x="1052" 
d="M380 43q-210 0 -306 121t-96 313q0 176 92 290.5t228 114.5q46 0 83 -17t62 -59q23 -41 23 -95v-4q-1 -56 -23 -105q-4 -8 -12 -11q-3 -1 -6 -1q-4 0 -9 2q-7 4 -10 11q-1 3 -1 7t2 9q13 28 18 63q2 15 2 29q0 20 -4 39q-7 33 -28.5 54.5t-60.5 21.5q-86 0 -147 -132
t-61 -278q0 -156 67.5 -237t205.5 -81q242 0 457.5 192t215.5 549q-8 356 -233 358q-30 -1 -46.5 -5t-22.5 -4q-13 0 -16 15q-1 5 -1 8q0 12 14 15q40 10 77 10q271 -10 287 -375q0 -372 -249.5 -595t-501.5 -223z" />
    <glyph glyph-name="uniE013" unicode="&#xe013;" horiz-adv-x="1374" 
d="M411 306q-80 153 -108 367q-39 19 -80 19q-46 0 -73 -24t-41 -61t-18.5 -78.5t-4.5 -76.5q0 -31 6 -75.5t21 -87.5t42.5 -72.5t69.5 -29.5q43 0 90.5 33t95.5 86zM501 421q78 111 137.5 218t86.5 166q25 53 69 163t80.5 238t39.5 236q0 119 -51 156q-31 21 -68 21
q-91 0 -158.5 -58.5t-113 -158t-69 -224t-25.5 -286.5q0 -120 16 -236q18 -128 56 -235zM735 115q-90 0 -171.5 39.5t-132.5 117.5q-30 -31 -65.5 -60.5t-76.5 -49t-86 -19.5q-79 0 -136.5 41.5t-88 111.5t-30.5 156q0 121 67 200.5t173 84.5h9q48 0 101 -19q-9 83 -9 168
q0 105 15 214.5t49.5 209t92.5 178.5t144 125t205 46q88 0 124 -65q33 -57 33 -149q0 -12 -1 -25q-5 -108 -42.5 -243.5t-98 -279.5t-136 -278.5t-155.5 -241.5q43 -101 105 -161t144 -60q287 0 546 379.5t259 823.5q0 206 -70 294q-61 81 -164 83q-30 0 -63 -8h-6
q-12 0 -16 15q-1 4 -1 8q0 12 14 15q40 10 77 10q80 0 146 -44q141 -106 142 -361q0 -451 -275.5 -853.5t-621.5 -402.5z" />
    <glyph glyph-name="uniE014" unicode="&#xe014;" horiz-adv-x="1062" 
d="M436 721q0 52 -30.5 88t-84.5 36q-50 0 -83.5 -30.5t-55 -79t-33.5 -104.5q35 -18 73 -29t77 -11q58 0 97.5 35.5t39.5 94.5zM-11 515q0 136 43 220t111.5 123t144.5 39q83 0 135 -43.5t52 -132.5q0 -76 -51 -123t-125 -47q-81 0 -157 39q-7 -37 -8 -114
q3 -176 70.5 -277t205.5 -101q242 0 457.5 192t215.5 549q-8 356 -233 358q-30 -1 -46.5 -5t-22.5 -4q-13 0 -16 15q-1 5 -1 8q0 12 14 15q40 10 77 10q271 -11 287 -375q0 -372 -249.5 -595t-501.5 -223q-210 0 -306 121t-96 351z" />
    <glyph glyph-name="uniE015" unicode="&#xe015;" horiz-adv-x="1143" 
d="M840 1373q0 105 -61 169t-164 64q-115 0 -200 -78.5t-143.5 -213t-92 -306.5t-44.5 -361q113 30 235 100.5t228.5 170t174 216.5t67.5 239zM333 225q131 -108 202 -288.5t71 -334.5q0 -45 -8.5 -93.5t-29.5 -89t-57.5 -66t-91.5 -25.5q-110 0 -195 87t-143 235.5
t-88 337.5t-30 392q0 184 25 366t75.5 344t128 286.5t183 197t240.5 72.5q120 0 202 -76t82 -197q0 -105 -48.5 -206t-130 -192.5t-181.5 -166.5t-205 -127t-201 -75q-4 -86 -4 -172q0 -203 21 -394t59.5 -342.5t91.5 -241t118 -89.5q46 0 74.5 23t44.5 58.5t22 76.5t6 77
q0 105 -36 230t-104 231t-165 162q-10 6 -10 17q0 3 1 6q5 15 19 15q487 0 857.5 356t370.5 755q0 207 -71 295q-60 81 -163 83q-30 0 -63 -8q-4 -1 -6 -1q-13 0 -16 16q-1 4 -1 8q0 12 14 15q40 10 77 10q79 0 145 -44q142 -106 142 -361q0 -407 -373 -774.5t-851 -387.5z
" />
    <glyph glyph-name="uniE016" unicode="&#xe016;" horiz-adv-x="1190" 
d="M-72 -676q0 -65 26.5 -111t68.5 -70.5t90 -24.5q224 0 322 215.5t105 645.5q-211 -140 -402 -301q-50 -42 -97.5 -98t-80 -121.5t-32.5 -134.5zM228 383q37 0 77 63t73 150.5t52 168.5q-3 -1 -6 -1q-8 0 -15 7q-45 55 -85 76t-74 21q-35 0 -58 -28.5t-33.5 -75.5
t-10.5 -100q0 -121 23 -201t57 -80zM689 84q4 -74 4 -148q0 -427 -156 -653t-420 -226q-112 0 -180.5 70.5t-68.5 196.5q0 76 38.5 146.5t94.5 130.5t111 107q191 161 403 302l26 18v33q0 298 -67 716q-15 -70 -39 -148.5t-59 -149t-81 -115.5t-104 -45q-52 0 -96 53
t-70.5 134t-26.5 165q0 66 20.5 125t66.5 96t123 37q70 0 127.5 -37.5t101.5 -92.5q12 56 16 90q4 23 19.5 35t35.5 12q31 0 46.5 -16.5t23 -41.5t11.5 -52q0 -1 1 -3q4 -24 9 -51q23 -129 48.5 -294.5t38.5 -346.5q279 226 518.5 517.5t239.5 623.5q0 207 -71 295
q-60 81 -163 83q-30 0 -63 -8q-4 -1 -6 -1q-13 0 -16 16q-1 4 -1 8q0 12 14 15q40 10 77 10q79 0 145 -44q142 -106 142 -361q0 -340 -263.5 -655.5t-549.5 -545.5z" />
    <glyph glyph-name="uniE017" unicode="&#xe017;" horiz-adv-x="1512" 
d="M120 652q113 29 228 99t211.5 169t156 215.5t59.5 237.5q0 105 -61 169t-164 64q-57 0 -109.5 -15t-99.5 -48q-106 -78 -160 -219.5t-66 -317.5q-6 -73 -6 -147q0 -103 11 -207zM640 -487q-57 4 -89 39.5t-45.5 90t-13.5 112.5q0 87 11 172.5t26 171.5q15 91 26 184
q10 84 10 171v16q0 51 -13 82t-37 31q-29 0 -76 -56q-75 -101 -124 -230.5t-63 -211.5q-2 -7 -7.5 -11.5t-12.5 -4.5q-4 0 -7 1q-64 26 -129 172t-104 354q-29 153 -29 310q0 56 4 113q14 215 109 381q70 115 188 183q115 67 262 67h5q69 0 131.5 -23t111.5 -81
q60 -71 60 -173q0 -129 -65.5 -252.5t-170.5 -227.5t-229 -177.5t-245 -103.5q33 -270 102 -458q19 73 52.5 160t81 167t107 132t129.5 52q41 0 65 -27.5t34 -77t10 -113.5q0 -87 -13 -189.5t-29 -207.5q-16 -100 -28 -194t-12 -171q0 -52 13.5 -82.5t42.5 -30.5
q199 0 586 589.5t390 1191.5q0 207 -70 295q-60 81 -163 83q-30 0 -63 -8q-5 -1 -6 -1q-13 0 -16 16q-1 4 -1 8q0 12 13 15q41 10 78 10q79 0 145 -44q142 -106 142 -361q0 -568 -404 -1210.5t-670 -642.5z" />
    <glyph glyph-name="uniE018" unicode="&#xe018;" horiz-adv-x="795" 
d="M234 940q0 -53 -29.5 -92.5t-86.5 -39.5q-36 0 -59.5 16t-34.5 41t-11 51q0 53 30 90.5t85 37.5q53 0 79.5 -32.5t26.5 -71.5zM207 -117q-65 0 -105.5 49.5t-62.5 129t-31 172t-10 180.5v155q1 32 1 56t25.5 37t56.5 13q30 0 55.5 -13t25.5 -40q0 -23 -4 -58
q-2 -18 -3 -34q-5 -58 -7 -133q-1 -25 -1 -50q0 -50 3 -101q3 -76 14.5 -141.5t34.5 -106t60 -40.5q135 0 371 350.5t236 733.5q0 207 -71 295q-60 81 -163 83q-30 0 -63 -8q-4 -1 -6 -1q-13 0 -16 16q-1 4 -1 8q0 12 14 15q40 10 77 10q79 0 145 -44q142 -106 142 -361
q0 -357 -267.5 -764.5t-449.5 -407.5z" />
    <glyph glyph-name="uniE019" unicode="&#xe019;" horiz-adv-x="794" 
d="M-113 980q0 39 26.5 72t79.5 33q55 0 85 -37.5t30 -91.5q0 -26 -11 -50.5t-34 -41t-60 -16.5q-57 0 -86.5 40t-29.5 92zM-472 -676q0 -69 35 -119.5t90 -77.5t116 -27q140 0 235.5 53.5t152.5 146.5t80 213q19 99 19 207q0 23 -1 47q-5 134 -33 270q-43 -29 -86 -59
q-209 -140 -399 -300q-49 -42 -97 -98t-80 -121.5t-32 -134.5zM368 142q36 -154 38 -308v-9q0 -150 -34 -287q-35 -140 -107.5 -250t-185 -174.5t-265.5 -64.5q-61 0 -122 17t-111.5 51.5t-81.5 86t-31 120.5q0 76 38.5 146.5t94 130.5t110.5 107q191 161 403 302
q50 35 99 70q-73 315 -213 531q-3 5 -3 10q0 11 12 23q18 19 47 23q5 1 9 1q24 0 47 -23q173 -191 245 -462q250 201 423.5 430.5t173.5 541.5q0 206 -70 294q-61 81 -164 84q-30 -1 -46.5 -5t-22.5 -4q-12 0 -16 15q-1 4 -1 8q0 12 14 15q40 10 77 10q80 0 146 -44
q141 -105 142 -361q0 -310 -184.5 -558.5t-460.5 -466.5z" />
    <glyph glyph-name="uniE01A" unicode="&#xe01a;" horiz-adv-x="1476" 
d="M821 1373q0 105 -61 169t-164 64q-107 0 -188.5 -56t-140 -152t-96.5 -219t-57.5 -260.5t-22.5 -274.5q90 22 189.5 72t195.5 121t173.5 158t124.5 183t47 195zM746 -312q-96 0 -167.5 63t-136.5 153.5t-108 181t-43 145.5q0 32 37 63.5t86 64.5q37 25 71.5 52t57 56
t22.5 62q-5 53 -54 53q-36 0 -78 -32q-87 -78 -148 -213t-92 -248q-2 -6 -4 -16q-4 -15 -9 -33.5t-12.5 -32t-17.5 -13.5q-7 0 -13 4q-40 36 -70.5 115t-43.5 131q-58 217 -60 441v26q0 156 33 347q36 207 135 373q72 111 183 167t233 56q83 0 162.5 -30t128.5 -102
q42 -64 42 -149q0 -106 -51 -208.5t-136 -194t-188.5 -167t-211 -127t-203.5 -73.5q0 -314 63 -511q21 77 56 169t84 177t112 140.5t139 55.5q35 0 61.5 -17.5t26.5 -55.5q0 -40 -26.5 -80.5t-64 -76.5t-74.5 -63.5t-62 -43.5q4 -35 43 -121t96 -183.5t116.5 -169.5
t121.5 -72q224 0 525.5 526t301.5 1066q0 206 -70 294q-61 81 -164 84q-30 -1 -46.5 -5t-22.5 -4q-12 0 -16 15q-1 5 -1 8q0 12 14 15q40 10 77 10q79 0 146 -44q141 -105 142 -361q0 -547 -332 -1107t-590 -560z" />
    <glyph glyph-name="uniE01B" unicode="&#xe01b;" horiz-adv-x="1277" 
d="M114 647q114 30 234.5 96t224.5 160t170 208t66 238q0 109 -68 183t-180 74q-117 0 -201 -80t-137.5 -215.5t-80 -307t-28.5 -356.5zM430 -523q-108 0 -176.5 56t-124.5 174q-43 91 -77.5 221t-57.5 284t-29 319q-2 52 -2 104q0 111 10 221q15 160 55 302.5t110 251.5
t174.5 172.5t248.5 63.5q128 0 207.5 -85.5t79.5 -211.5q0 -133 -69 -254.5t-179 -221t-237.5 -168.5t-248.5 -99q0 -199 24 -387t67.5 -339.5t103.5 -242t152 -90.5q254 0 600.5 610.5t346.5 1243.5q0 207 -71 295q-60 81 -163 83q-30 0 -63 -8q-4 -1 -6 -1q-13 0 -16 16
q-1 4 -1 8q0 12 14 15q40 10 77 10q79 0 145 -44q142 -106 142 -361q0 -641 -374.5 -1289t-661.5 -648z" />
    <glyph glyph-name="uniE01C" unicode="&#xe01c;" horiz-adv-x="1678" 
d="M945 -539q-79 0 -127 51.5t-63 157.5q-8 66 -10 193q-2 85 -2 250q1 123 3 220q0 37 1 113v51q0 52 -1 107q-3 83 -10 143t-22 60q-19 0 -38 -41t-33 -86t-19 -62v-1q-50 -189 -90 -382q-14 -64 -28 -127q-19 -80 -53 -80q-44 0 -62.5 20.5t-22.5 51.5q-4 22 -4 45
q0 10 1 58q0 59 -2 117q0 26 -6 110t-18.5 163t-32.5 91q-26 0 -51 -77t-45.5 -174t-32.5 -165q-2 -14 -5 -32q-4 -28 -15.5 -52t-44.5 -27q-56 3 -79 47t-27 93q-10 106 -10 213q0 56 3 113q5 47 39 61q15 6 29 6q19 0 38 -10q32 -16 33 -59v-131q1 -95 7 -178
q11 70 29.5 154t44.5 154q24 65 54.5 98.5t76.5 33.5q40 0 74.5 -36t51.5 -109q27 -150 27 -325q37 175 83 345l2 10q11 44 35 108q26 66 59.5 97t83.5 31q38 0 60.5 -21.5t34 -53.5t16 -67t6.5 -63q3 -83 3 -166q0 -55 -1 -110q-1 -39 -1 -77v-26q-2 -44 -3 -129l-1 -59
q0 -61 2 -129q2 -213 26 -313.5t107 -100.5q201 0 442.5 422t241.5 952q0 206 -70 295q-61 81 -164 83q-30 0 -63 -8q-4 -1 -6 -1q-12 0 -16 15q-1 5 -1 8q1 12 14 16q40 9 78 9q79 0 145 -43q141 -106 142 -362q0 -537 -287.5 -1010t-525.5 -473z" />
    <glyph glyph-name="uniE01D" unicode="&#xe01d;" horiz-adv-x="1368" 
d="M635 -342q-96 0 -132.5 62.5t-42.5 199.5q-1 25 -1 49q0 66 6 131q7 89 14 148q12 99 20.5 180.5t12.5 169.5q2 40 2 76q0 42 -3 76q-6 63 -30 63q-22 0 -47.5 -49t-49 -117t-41 -130t-25.5 -92q-13 -47 -23 -85q-16 -62 -33 -123q-8 -30 -30 -106t-62 -76
q-45 0 -71 31.5t-39.5 74t-21.5 84.5q-19 89 -28.5 197t-10.5 199q2 45 36 61q18 9 35 9q16 0 32 -7q33 -14 36 -62q0 -34 7.5 -130.5t21.5 -196.5t34 -143q30 99 56 199q10 38 26 100q13 52 37.5 134.5t58.5 157.5q35 73 72.5 104.5t83.5 31.5q61 0 89.5 -44.5t28.5 -109.5
v-84q-6 -146 -24 -292q-14 -126 -20 -187.5t-9 -132.5q-1 -36 -1 -70t1 -67q4 -66 19 -108.5t76 -42.5q204 0 476.5 460.5t272.5 897.5q0 207 -71 295q-60 81 -163 83q-30 0 -63 -8q-4 -1 -6 -1q-13 0 -16 16q-1 4 -1 8q0 12 14 15q40 10 77 10q79 0 145 -44
q142 -106 142 -361q0 -445 -309.5 -949.5t-557.5 -504.5z" />
    <glyph glyph-name="uniE01E" unicode="&#xe01e;" horiz-adv-x="1056" 
d="M136 614q-5 -30 -9.5 -74t-4.5 -93q0 -59 10 -116t38.5 -94.5t82.5 -37.5q45 0 81 34.5t63 83.5t44 98q-99 17 -183 64.5t-122 134.5zM454 453q5 17 8 31q17 69 17 140q0 39 -8 83t-26.5 83t-50.5 64t-80 25q-74 0 -116 -44.5t-42 -118.5q5 -122 93.5 -183.5t204.5 -79.5
zM588 402q-51 0 -108 7q-51 -146 -131 -212q-70 -56 -141 -56q-11 0 -22 1q-83 9 -139.5 90.5t-60.5 229.5q0 81 12 163q6 27 29 37q18 8 37 8q7 0 14 -1q28 -3 46 -18q-8 30 -8 65q1 110 59.5 175.5t167.5 65.5q72 0 112 -36.5t56 -94t16 -122.5q0 -63 -9 -124.5
t-19 -105.5q-4 -14 -7 -27q51 -6 96 -6q289 0 520.5 241t231.5 592q0 207 -71 295q-60 81 -163 83q-30 0 -63 -8q-4 -1 -6 -1q-13 0 -16 16q-1 4 -1 8q0 12 14 15q40 10 77 10q79 0 145 -44q142 -106 142 -361q0 -359 -256.5 -622t-553.5 -263z" />
    <glyph glyph-name="uniE01F" unicode="&#xe01f;" horiz-adv-x="1494" 
d="M597 97q81 70 104 202h-29q-48 0 -97 -12.5t-82 -44t-33 -89.5q0 -37 22 -57.5t53 -20.5q34 0 62 22zM1346 439q-133 -84 -254 -109.5t-250 -28.5q-13 -78 -45.5 -141.5t-85.5 -101.5t-128 -38q-41 0 -78 15t-61 44.5t-24 73.5q0 70 38 110.5t96 58t118 17.5h36
q4 36 4 72q0 15 -1 30v22q0 113 -33.5 191t-82.5 78q-38 0 -80 -52.5t-82 -175.5q-48 -155 -77.5 -307.5t-40.5 -226.5q-33 -209 -59 -405q-15 -105 -32 -229q-5 -39 -15 -102t-26.5 -116t-41.5 -53q-27 0 -45.5 29.5t-30 72t-18 83.5t-10.5 75q-28 266 -30 535
q-4 200 -4 400v156q1 35 1 70q0 69 -4 136q0 28 19.5 45.5t46.5 18.5q62 0 73 -63q11 -196 11 -394q0 -66 -1 -132v-90q0 -11 -1 -35v-229q0 -149 4.5 -291t17.5 -199q7 43 12.5 78.5t8.5 56.5l24 174q27 201 63 426q8 51 22 130.5t34.5 173.5t48.5 187.5t63.5 171t79.5 125
t97 47.5q61 0 107 -43t75.5 -114t40.5 -155q6 -45 6 -89q0 -41 -5 -81q122 3 235.5 26.5t240.5 103.5q158 107 281.5 323t123.5 480q0 207 -71 295q-60 81 -163 83q-30 0 -63 -8q-4 -1 -6 -1q-13 0 -16 16q-1 4 -1 8q0 12 14 15q40 10 77 10q79 0 145 -44q142 -106 142 -361
q0 -272 -135.5 -502.5t-304.5 -345.5z" />
    <glyph glyph-name="uniE020" unicode="&#xe020;" horiz-adv-x="1183" 
d="M914 235q-100 -80 -212 -110q90 -114 126 -272q24 -108 24 -207q0 -47 -5 -92q-9 -68 -42 -130t-87.5 -102t-129.5 -40q-74 0 -121.5 44t-72.5 108t-31 129q-5 76 -5 153q0 131 15 262q21 194 52 387q5 32 11 67q3 17 6 35q-30 -61 -69 -118.5t-87 -95.5t-104 -38
q-54 0 -92 28t-62 72t-35 94t-11 95q0 78 26.5 152.5t82.5 123t146 48.5q73 0 143 -29.5t119 -86.5q4 -6 4 -12v-3q-1 -7 -7 -13q-6 -4 -12 -4h-2q-8 0 -14 7q-80 91 -191 91q-51 0 -84 -37t-50.5 -95t-21.5 -123q-1 -20 -1 -39q0 -43 6 -83q8 -58 26.5 -95t45.5 -37
q32 0 59 16.5t48.5 40.5t38.5 49q38 58 67 118.5t46 102.5q16 34 60 34q32 -2 56.5 -16t24.5 -31q0 -28 -20 -131q-27 -160 -56 -388q-25 -206 -25 -389v-39q4 -107 24 -171.5t50 -92.5t65 -28q29 0 66 25t66.5 73t39.5 118q5 43 5 87q0 101 -27 212q-40 160 -136 265
q-6 7 -6 14q0 3 1 6q4 11 16 13q113 21 214 99q162 131 285.5 337t123.5 464q0 207 -71 295q-60 81 -163 83q-30 0 -63 -8q-4 -1 -6 -1q-13 0 -16 16q-1 4 -1 8q0 12 14 15q40 10 77 10q79 0 145 -44q142 -106 142 -361q0 -273 -127 -482.5t-301 -352.5z" />
    <glyph glyph-name="uniE021" unicode="&#xe021;" horiz-adv-x="1029" 
d="M17 656q28 56 51.5 120.5t23.5 122.5q0 24 -8 57.5t-26.5 59.5t-49.5 26q-36 0 -55.5 -32t-27 -72.5t-7.5 -67.5q0 -70 27 -122.5t72 -91.5zM285 -400q-71 0 -119 56.5t-69 147.5t-29 198t-8 211q0 103 4.5 184.5t8.5 122.5q-79 32 -145.5 78t-107.5 112.5t-41 159.5
q0 77 26.5 127t67.5 74t86 24q42 0 81.5 -18.5t65 -61.5t25.5 -116q0 -65 -25.5 -136.5t-56.5 -131.5q69 -48 151 -80q13 -6 13 -20q-3 -25 -6 -96.5t-5 -169.5q-1 -40 -1 -80q0 -61 2 -123q3 -105 13.5 -196t31 -148.5t74.5 -57.5q180 0 482 473t302 1071q0 207 -71 295
q-60 81 -163 83q-30 0 -63 -8q-4 -1 -6 -1q-13 0 -16 16q-1 4 -1 8q0 12 14 15q40 10 77 10q79 0 145 -44q142 -106 142 -361q0 -606 -335 -1111.5t-544 -505.5z" />
    <glyph glyph-name="uniE022" unicode="&#xe022;" horiz-adv-x="1067" 
d="M299 154q-129 -48 -180 -113.5t-51 -174.5q0 -75 27 -125.5t91 -50.5q76 0 120 85t44 179q0 60 -13.5 109.5t-37.5 90.5zM451 198q18 -38 34.5 -87t16.5 -131q0 -146 -88 -239.5t-227 -93.5q-84 0 -131.5 65.5t-47.5 153.5q0 126 70.5 200.5t199.5 122.5q-53 74 -116 136
q-42 42 -79 86.5t-60 95.5t-23 115q0 87 37.5 142t95.5 81.5t118 26.5q86 0 148 -56q49 -44 49 -120q0 -18 -3 -39q-2 -8 -9 -12q-5 -4 -12 -4h-3q-8 2 -12 9q-4 4 -4 10q0 2 1 5q3 16 3 32q0 23 -6 44q-11 36 -38.5 59t-71.5 23q-67 0 -108.5 -45.5t-41.5 -101.5
q0 -61 22.5 -109.5t58 -90.5t76.5 -83q72 -67 129 -157q362 84 604 355q245 274 245 640q0 207 -71 295q-60 81 -163 83q-30 0 -63 -8q-4 -1 -6 -1q-13 0 -16 16q-1 4 -1 8q0 12 14 15q40 10 77 10q79 0 145 -44q142 -106 142 -361q0 -374 -263.5 -668t-621.5 -378z" />
    <glyph glyph-name="uniE023" unicode="&#xe023;" horiz-adv-x="1465" 
d="M403 -423q-145 0 -215 57t-113.5 157.5t-64 232t-22.5 332.5q0 126 8 258q11 157 31 308.5t43 285.5q-97 -17 -196 -29.5t-193 -12.5q-132 0 -205.5 61.5t-73.5 198.5q0 12 8.5 21.5t21.5 9.5t21.5 -9.5t8.5 -20.5q0 -60 20 -110t67.5 -80.5t131.5 -30.5q95 0 196.5 13
t200.5 31q43 235 77 354q9 26 45 31q10 1 19 1q24 0 46 -9q26 -11 26 -33q0 -4 -1 -8q-22 -81 -58 -309q77 15 139 30q68 16 133.5 27.5t149.5 11.5q100 0 159.5 -43.5t59.5 -150.5q0 -12 -8.5 -21t-21.5 -9t-21.5 8.5t-8.5 21.5q0 79 -32.5 116.5t-126.5 37.5
q-85 0 -151.5 -11.5t-134.5 -28.5q-64 -15 -142 -30q-22 -146 -41.5 -319t-30.5 -354q-10 -144 -10 -279q3 -234 25 -366t68.5 -210t166.5 -78q402 0 768 464t366 1012q0 207 -71 295q-60 81 -163 83q-30 0 -63 -8q-4 -1 -6 -1q-13 0 -16 16q-1 4 -1 8q0 12 14 15
q40 10 77 10q79 0 145 -44q142 -106 142 -361q0 -556 -397.5 -1049t-795.5 -493z" />
    <glyph glyph-name="uniE024" unicode="&#xe024;" horiz-adv-x="1349" 
d="M687 -62q-72 0 -118 35.5t-71.5 93.5t-36.5 126.5t-13 137.5t-2 126v17q-20 -65 -48 -134.5t-64 -129.5t-80.5 -98t-97.5 -38q-60 0 -96.5 47.5t-53.5 123.5t-17 161q0 113 10 216q2 38 35 48q15 4 29 4q19 0 38 -7q34 -13 37 -44q1 -12 1 -28t-1 -37q0 -56 1 -127.5
t6 -139t18 -112.5t37 -45q17 0 34 14.5t26 26.5q70 90 117 221.5t67 209.5q1 2 1 4v4q4 30 38 43q20 8 40 8q14 0 27 -4q33 -10 34 -49v-3q-1 -33 -2 -104v-29q0 -60 3 -130q5 -87 19.5 -168.5t44 -135t78.5 -53.5q210 0 470.5 375.5t260.5 747.5q0 206 -70 295
q-61 81 -164 83q-30 0 -63 -8q-4 -1 -6 -1q-12 0 -16 15q-1 5 -1 8q0 12 14 16q40 9 77 9q79 0 146 -43q141 -106 142 -362q0 -379 -287 -782.5t-543 -403.5z" />
    <glyph glyph-name="uniE025" unicode="&#xe025;" horiz-adv-x="1286" 
d="M638 577q21 136 21 261q0 24 -5 65t-21 75t-48 42q-30 -8 -45 -39.5t-19.5 -70t-4.5 -61.5q0 -84 32.5 -153t89.5 -119zM914 440q-131 3 -226 54q-11 -70 -36.5 -171.5t-63 -212.5t-87.5 -208t-111 -159t-133 -62q-49 0 -86.5 51t-64.5 135t-45.5 184.5t-30 202.5
t-18.5 189t-10 143q-1 22 -2 39q0 39 32 56q19 11 39 11q13 0 27 -5q34 -12 40 -64q3 -44 18 -179t38 -293.5t50.5 -277t55.5 -118.5q44 0 87.5 62t83.5 158t72.5 203t55.5 201t32 150q-81 55 -129.5 138.5t-48.5 181.5q0 108 36.5 163.5t94.5 55.5q59 0 98.5 -57t39.5 -173
q0 -145 -27 -302q91 -53 221 -56q275 0 457 251t182 602q0 207 -71 295q-60 81 -163 83q-30 0 -63 -8q-4 -1 -6 -1q-13 0 -16 16q-1 4 -1 8q0 12 14 15q40 10 77 10q79 0 145 -44q142 -106 142 -361q0 -359 -206 -632.5t-493 -273.5z" />
    <glyph glyph-name="uniE026" unicode="&#xe026;" horiz-adv-x="1605" 
d="M998 549q6 80 6 161l-1 46q-3 104 -24.5 178t-69.5 86q-53 -14 -67 -100q-4 -24 -4 -49q0 -66 26 -142q36 -105 134 -180zM517 383q14 66 30.5 157.5t23.5 167.5q3 27 3 46q0 37 -9 50q-15 0 -25.5 -39t-15.5 -80t-6 -54q-4 -65 -4 -131q0 -58 3 -117zM1238 440
q-109 2 -181 32q-41 -397 -163 -679q-49 -102 -104.5 -153t-112.5 -51q-56 0 -109 57t-95 170q-26 73 -46 161q-41 -84 -86.5 -127t-106.5 -43q-43 0 -85.5 36.5t-76.5 120.5q-37 101 -54.5 235.5t-20.5 252.5q-1 45 -1 80q0 59 3 92q7 54 42 67q15 6 28 6q20 0 38 -12
q31 -18 31 -62v-3q-2 -25 -2 -73q0 -37 1 -86q4 -116 19.5 -248.5t48 -229t86.5 -102.5q32 1 63.5 48t59.5 116q-7 35 -14.5 107t-11.5 164q-2 46 -2 92q0 47 2 94q4 94 20 174t48.5 130t86.5 50q42 0 57 -43q13 -37 13 -93v-15q-2 -66 -14.5 -138.5t-27.5 -135.5t-24 -98
q-3 -12 -5 -19q-5 -22 -15 -58q2 -19 4 -37q3 -35 16.5 -119.5t37 -181.5t57.5 -170t79 -87q50 15 93 101t76.5 200t54.5 213t27 139q9 48 22 189q-170 99 -210 293q-7 34 -7 72q0 34 5 70q12 79 75 112q22 11 63 11q65 0 100 -75.5t44 -199.5q4 -53 4 -111q0 -77 -7 -162
q68 -31 179 -33q252 0 455.5 247.5t203.5 634.5q0 206 -70 294q-61 81 -164 84q-29 -1 -63 -9h-6q-12 0 -16 15q-1 4 -1 8q1 12 14 15q40 10 78 10q79 0 145 -44q141 -105 142 -361q0 -394 -228.5 -664t-491.5 -270z" />
    <glyph glyph-name="uniE027" unicode="&#xe027;" horiz-adv-x="1294" 
d="M598 -60q-90 0 -192 60q-104 61 -209 192l-8 10q-54 -47 -101.5 -103.5t-83.5 -128.5q-3 -7 -10 -10q-3 -2 -7 -2q-3 0 -6 1q-2 -1 -4 -1q-5 0 -10 3q-8 3 -10 11q-1 3 -1 6q0 4 2 9q40 79 93.5 139t113.5 110q-58 84 -107 191t-59 195q1 30 32 48q23 13 47 13
q10 0 19 -2q34 -8 41 -57q8 -68 42.5 -151t79.5 -158q77 64 144 140.5t109 185.5q3 7 10 11q4 2 9 2q2 0 5 -1q3 1 6 1q4 0 7 -2q8 -3 11 -10q2 -3 2 -7t-2 -8q-49 -119 -123 -199.5t-157 -145.5q24 -37 46 -65q42 -54 94 -98.5t113.5 -71.5t131.5 -27q298 13 496.5 330
t198.5 724q0 207 -71 295q-60 81 -163 83q-30 0 -63 -8q-4 -1 -6 -1q-13 0 -16 16q-1 4 -1 8q0 12 14 15q40 10 77 10q79 0 145 -44q142 -106 142 -361q0 -415 -237.5 -773.5t-583.5 -373.5z" />
    <glyph glyph-name="uniE028" unicode="&#xe028;" horiz-adv-x="1271" 
d="M-82 -676q0 -73 36.5 -120t93 -69t116.5 -22q120 0 197.5 60.5t122 163t62.5 231.5t18 267q0 73 -4 146q-4 -3 -8 -5q-211 -140 -403 -299q-50 -42 -103 -98t-90.5 -121t-37.5 -134zM704 81q22 -166 22 -326q0 -141 -25 -267.5t-85.5 -224t-164 -153.5t-260.5 -56
q-81 0 -152.5 28.5t-116 88.5t-44.5 153q0 76 39 146t95 130t111 107q193 161 407 301q14 10 28 19q-12 164 -32.5 300t-36.5 217q-12 -73 -34 -155t-55.5 -154.5t-81 -119.5t-112.5 -47q-62 0 -101.5 40t-62 103t-32 135.5t-11.5 140.5q-1 45 -1 82v53q2 35 36 49
q18 8 36 8q15 0 30 -6q34 -11 37 -49v-53q0 -40 1 -93q2 -79 10.5 -160t28 -138t55.5 -57q27 0 47.5 14t35.5 32q64 88 99 221t47 229q3 15 4 22.5t1 12.5v11q-1 6 -1 18q0 27 14.5 42t34.5 15q29 0 56 -15t35 -51q10 -59 24 -131q37 -186 70 -418q300 183 544 472.5
t244 639.5q0 207 -71 295q-60 81 -163 83q-30 0 -63 -8q-4 -1 -6 -1q-13 0 -16 16q-1 4 -1 8q0 12 14 15q40 10 77 10q79 0 145 -44q142 -106 142 -361q0 -358 -267 -670.5t-574 -498.5z" />
    <glyph glyph-name="uniE029" unicode="&#xe029;" horiz-adv-x="1075" 
d="M388 -475q0 98 -24.5 183.5t-69.5 158.5q-78 -60 -153 -126.5t-136 -138t-98 -144.5t-37 -144q0 -61 32.5 -106t84.5 -69.5t111 -24.5q70 0 136.5 41.5t110 132t43.5 237.5zM14 651q29 56 53 122.5t24 125.5q0 24 -7.5 57.5t-26 59.5t-50.5 26q-36 0 -55.5 -32
t-26.5 -72.5t-7 -67.5q0 -66 22 -122t74 -97zM391 -60q65 -85 100.5 -189t35.5 -226q0 -133 -52.5 -238.5t-151 -166t-236.5 -60.5q-109 0 -183 72.5t-74 181.5q0 78 38.5 156t102.5 153.5t142 145t159 131.5q-16 22 -30 42q-44 67 -94 121t-136 94q-9 5 -11 16v4q0 7 6 13
q151 137 278 293q20 24 40 47h-17q-84 0 -166 9q-91 10 -166 44t-120.5 102.5t-45.5 185.5q0 70 26.5 119.5t68 75t84.5 25.5q37 0 69 -20.5t52.5 -63t20.5 -108.5t-26 -137.5t-58 -132.5q46 -26 96 -38q89 -21 180 -21q21 0 42 1q36 2 72 5q13 2 27 3h3q14 0 22 -9
q4 -4 4 -10t-5 -13q-58 -77 -139 -149.5t-166 -140.5q-49 -40 -94 -78q166 -80 277 -208q263 218 629.5 578t366.5 688q0 207 -71 295q-60 81 -163 83q-30 0 -63 -8q-4 -1 -6 -1q-13 0 -16 16q-1 4 -1 8q0 12 14 15q40 10 77 10q79 0 145 -44q142 -106 142 -361
q0 -336 -382.5 -713.5t-646.5 -596.5z" />
    <glyph glyph-name="uniE02A" unicode="&#xe02a;" horiz-adv-x="996" 
d="M307 604q-6 20 -17 43t-28 40.5t-41 17.5q-20 0 -37 -16.5t-30 -38t-21 -37.5q-21 -44 -29.5 -96.5t-8.5 -100.5q0 -15 3 -49.5t11.5 -71.5t23 -63.5t37.5 -26.5q25 0 47 54.5t38 118.5t23 101q17 79 29 125zM777 1236q79 0 145 -44q142 -106 142 -381q0 -125 -20 -236
q32 -3 66 -3q154 0 253.5 83t99.5 211q0 90 -50.5 136.5t-113.5 46.5q-82 0 -123 -46q-36 -41 -40 -115q-1 -24 -20 -24t-19 24q5 83 54 139q54 62 148 62q85 0 144 -62.5t59 -160.5q0 -139 -108.5 -236.5t-283.5 -97.5q-38 0 -74 3q-35 -162 -115 -296q-144 -239 -345 -239
q-139 0 -204.5 112t-65.5 309q-30 -142 -70.5 -208.5t-99.5 -66.5q-82 0 -131 71.5t-49 198.5q0 53 9.5 109.5t32.5 105.5q33 65 84 100t104 35q40 0 76 -25t62 -75q3 31 22 47q19 14 51 22q12 3 23 3q56 0 56 -36q0 -5 -1 -11q-2 -8 -4 -18q-5 -25 -11.5 -79t-10.5 -124
q-4 -55 -4 -111q1 -88 12 -164q29 -138 171 -138q134 0 256 203q70 116 100 283q-164 28 -284 135q-166 146 -166 335q0 99 70.5 161t172.5 62zM990 582q16 108 16 236q0 207 -71 295q-59 79 -158 83q-86 0 -145 -48.5t-59 -134.5q0 -178 152 -309q110 -97 265 -122z" />
    <glyph glyph-name="uniE02B" unicode="&#xe02b;" horiz-adv-x="1251" 
d="M106 648q114 30 234 101t223 170t168 216t65 238q0 105 -71 169t-174 64q-93 0 -168.5 -48t-128.5 -124q-61 -89 -94 -198t-45.5 -224t-12.5 -219q0 -65 4 -145zM474 221q-86 -36 -153 -73.5t-106.5 -79.5t-39.5 -90q0 -28 12 -45.5t43 -17.5q60 0 108.5 44t83 113.5
t52.5 148.5zM212 119q101 83 271 150q9 57 9 108q0 19 -1 38q-6 67 -30.5 110t-71.5 43q-41 0 -70.5 -34t-49 -87.5t-31.5 -114.5t-18 -117.5t-8 -95.5zM1411 1786q79 0 146 -44q161 -106 161 -362q0 -137 -35 -256q30 -2 61 -2q154 0 253.5 83t99.5 211q0 90 -50.5 136.5
t-113.5 46.5q-82 0 -123 -46q-36 -41 -40 -115q-1 -24 -20 -24t-19 24q5 83 54 139q54 62 148 62q85 0 144 -62.5t59 -160.5q0 -139 -108.5 -236.5t-283.5 -97.5q-37 0 -73 3q-51 -147 -157 -265q-204 -229 -500 -378q-156 -75 -337 -141l-52 -20q-21 -146 -79.5 -241.5
t-133.5 -142.5t-141 -47q-58 0 -96.5 32t-38.5 96q0 53 35 97q-87 73 -132 201.5t-60.5 271t-15.5 245.5q0 166 32 319t102 273t182 190.5t272 70.5q119 0 201.5 -76t82.5 -197q0 -129 -68 -253t-176.5 -229t-234.5 -179t-247 -105q12 -223 68 -420q6 81 26 174t61 163
q40 66 89 100.5t98 34.5q61 0 97.5 -35.5t55 -89t24.5 -109.5q3 -35 3 -65q0 -18 -1 -34q23 9 46 17q174 63 319 132q286 143 476 356q102 114 149 261q-165 29 -286 136q-166 146 -166 335q0 99 70.5 161t172.5 62zM1631 1130q29 111 29 238q0 206 -89 305q-60 69 -160 73
q-86 0 -145 -48.5t-59 -134.5q0 -178 152 -309q113 -99 272 -124z" />
    <glyph glyph-name="uniE02C" unicode="&#xe02c;" horiz-adv-x="1052" 
d="M844 1236q271 -10 287 -375q0 -155 -43 -284q43 -5 89 -5q154 0 253.5 83t99.5 211q0 90 -50.5 136.5t-113.5 46.5q-82 0 -123 -46q-36 -41 -40 -115q-1 -24 -20 -24t-19 24q5 83 54 139q54 62 148 62q85 0 144 -62.5t59 -160.5q0 -139 -108.5 -236.5t-283.5 -97.5
q-53 0 -103 7q-62 -157 -192 -273q-250 -223 -502 -223q-210 0 -306 121t-96 313q0 176 92 290.5t228 114.5q46 0 83 -17t62 -59q23 -41 23 -95v-4q-1 -56 -23 -105q-4 -8 -12 -11q-3 -1 -6 -1q-4 0 -9 2q-7 4 -10 11q-1 3 -1 7t2 9q13 28 18 63q2 15 2 29q0 20 -4 39
q-7 33 -28.5 54.5t-60.5 21.5q-86 0 -147 -132t-61 -278q0 -156 67.5 -237t205.5 -81q242 0 458 192q117 104 170 257q-148 32 -260 131q-166 146 -166 335q0 99 70.5 161t172.5 62zM1039 585q33 114 33 254q-8 352 -228 358q-86 -1 -145 -49.5t-59 -134.5q0 -178 152 -309
q104 -91 247 -119z" />
    <glyph glyph-name="uniE02D" unicode="&#xe02d;" horiz-adv-x="1374" 
d="M411 306q-80 153 -108 367q-39 19 -80 19q-46 0 -73 -24t-41 -61t-18.5 -78.5t-4.5 -76.5q0 -31 6 -75.5t21 -87.5t42.5 -72.5t69.5 -29.5q43 0 90.5 33t95.5 86zM501 421q78 111 137.5 218t86.5 166q25 53 69 163t80.5 238t39.5 236q0 119 -51 156q-31 21 -68 21
q-91 0 -158.5 -58.5t-113 -158t-69 -224t-25.5 -286.5q0 -120 16 -236q18 -128 56 -235zM1344 1776q80 0 146 -44q141 -106 142 -361q0 -130 -23 -256q33 -3 68 -3q154 0 253.5 83t99.5 211q0 90 -50.5 136.5t-113.5 46.5q-82 0 -123 -46q-36 -41 -40 -115q-1 -24 -20 -24
t-19 24q5 83 54 139q54 62 148 62q85 0 144 -62.5t59 -160.5q0 -139 -108.5 -236.5t-283.5 -97.5q-39 0 -76 4q-61 -290 -244 -558q-276 -403 -622 -403q-90 0 -171.5 39.5t-132.5 117.5q-30 -31 -65.5 -60.5t-76.5 -49t-86 -19.5q-79 0 -136.5 41.5t-88 111.5t-30.5 156
q0 121 67 200.5t173 84.5h9q48 0 101 -19q-9 83 -9 168q0 105 15 214.5t49.5 209t92.5 178.5t144 125t205 46q88 0 124 -65q33 -57 33 -149q0 -12 -1 -25q-5 -108 -42.5 -243.5t-98 -279.5t-136 -278.5t-155.5 -241.5q43 -101 105 -161t144 -60q287 0 546 380
q177 258 233 547q-161 30 -280 135q-166 146 -166 335q0 99 70.5 161t172.5 62zM1554 1122q19 116 19 237q0 206 -70 294q-60 79 -159 83q-86 0 -145 -48.5t-59 -134.5q0 -178 152 -309q109 -96 262 -122z" />
    <glyph glyph-name="uniE02E" unicode="&#xe02e;" horiz-adv-x="1062" 
d="M436 721q0 52 -30.5 88t-84.5 36q-50 0 -83.5 -30.5t-55 -79t-33.5 -104.5q35 -18 73 -29t77 -11q58 0 97.5 35.5t39.5 94.5zM855 1236q271 -11 287 -375q0 -155 -43 -284q43 -5 89 -5q154 0 253.5 83t99.5 211q0 90 -50.5 136.5t-113.5 46.5q-82 0 -123 -46
q-36 -41 -40 -115q-1 -24 -20 -24t-19 24q5 83 54 139q54 62 148 62q85 0 144 -62.5t59 -160.5q0 -139 -108.5 -236.5t-283.5 -97.5q-53 0 -103 7q-62 -157 -192 -273q-250 -223 -502 -223q-210 0 -306 121t-96 351q0 136 43 220t111.5 123t144.5 39q83 0 135 -43.5
t52 -132.5q0 -76 -51 -123t-125 -47q-81 0 -157 39q-7 -37 -8 -114q3 -176 70.5 -277t205.5 -101q242 0 458 192q117 104 170 257q-148 32 -260 131q-166 146 -166 335q0 99 70.5 161t172.5 62zM1050 585q33 114 33 254q-8 352 -228 358q-86 -1 -145 -49.5t-59 -134.5
q0 -178 152 -309q104 -91 247 -119z" />
    <glyph glyph-name="uniE02F" unicode="&#xe02f;" horiz-adv-x="1143" 
d="M840 1373q0 105 -61 169t-164 64q-115 0 -200 -78.5t-143.5 -213t-92 -306.5t-44.5 -361q113 30 235 100.5t228.5 170t174 216.5t67.5 239zM1270 1792q79 0 145 -44q142 -106 142 -361q0 -129 -38 -255q41 -4 84 -4q154 0 253.5 83t99.5 211q0 90 -50.5 136.5
t-113.5 46.5q-82 0 -123 -46q-36 -41 -40 -115q-1 -24 -20 -24t-19 24q5 83 54 139q54 62 148 62q85 0 144 -62.5t59 -160.5q0 -139 -108.5 -236.5t-283.5 -97.5q-50 0 -96 6q-87 -249 -323 -481q-373 -368 -851 -388q131 -108 202 -288.5t71 -334.5q0 -45 -8.5 -93.5
t-29.5 -89t-57.5 -66t-91.5 -25.5q-110 0 -195 87t-143 235.5t-88 337.5t-30 392q0 184 25 366t75.5 344t128 286.5t183 197t240.5 72.5q120 0 202 -76t82 -197q0 -105 -48.5 -206t-130 -192.5t-181.5 -166.5t-205 -127t-201 -75q-4 -86 -4 -172q0 -203 21 -394t59.5 -342.5
t91.5 -241t118 -89.5q46 0 74.5 23t44.5 58.5t22 76.5t6 77q0 105 -36 230t-104 231t-165 162q-10 6 -10 17q0 3 1 6q5 15 19 15q487 0 858 356q242 233 326 484q-150 32 -262 131q-166 146 -166 335q0 99 70.5 161t172.5 62zM1466 1141q33 114 33 233q0 207 -71 295
q-59 79 -158 83q-86 0 -145 -48.5t-59 -134.5q0 -178 152 -309q104 -91 248 -119z" />
    <glyph glyph-name="uniE030" unicode="&#xe030;" horiz-adv-x="1190" 
d="M-72 -676q0 -65 26.5 -111t68.5 -70.5t90 -24.5q224 0 322 215.5t105 645.5q-211 -140 -402 -301q-50 -42 -97.5 -98t-80 -121.5t-32.5 -134.5zM228 383q37 0 77 63t73 150.5t52 168.5q-3 -1 -6 -1q-8 0 -15 7q-45 55 -85 76t-74 21q-35 0 -58 -28.5t-33.5 -75.5
t-10.5 -100q0 -121 23 -201t57 -80zM1215 1690q79 0 145 -44q142 -106 142 -361q0 -129 -38 -254q41 -5 84 -5q154 0 253.5 83t99.5 211q0 90 -50.5 136.5t-113.5 46.5q-82 0 -123 -46q-36 -41 -40 -115q-1 -24 -20 -24t-19 24q5 83 54 139q54 62 148 62q85 0 144 -62.5
t59 -160.5q0 -139 -108.5 -236.5t-283.5 -97.5q-50 0 -96 6q-65 -185 -213 -362q-264 -316 -550 -546q4 -74 4 -148q0 -427 -156 -653t-420 -226q-112 0 -180.5 70.5t-68.5 196.5q0 76 38.5 146.5t94.5 130.5t111 107q191 161 403 302l26 18v33q0 298 -67 716
q-15 -70 -39 -148.5t-59 -149t-81 -115.5t-104 -45q-52 0 -96 53t-70.5 134t-26.5 165q0 66 20.5 125t66.5 96t123 37q70 0 127.5 -37.5t101.5 -92.5q12 56 16 90q4 23 19.5 35t35.5 12q31 0 46.5 -16.5t23 -41.5t11.5 -52q0 -1 1 -3q4 -24 9 -51q23 -129 48.5 -294.5
t38.5 -346.5q279 226 519 518q138 169 197 351q-151 32 -264 132q-166 146 -166 335q0 99 70.5 161t172.5 62zM1413 1038q31 114 31 234q0 207 -71 295q-59 79 -158 83q-86 0 -145 -48.5t-59 -134.5q0 -178 152 -309q105 -92 250 -120z" />
    <glyph glyph-name="uniE031" unicode="&#xe031;" horiz-adv-x="1512" 
d="M120 652q113 29 228 99t211.5 169t156 215.5t59.5 237.5q0 105 -61 169t-164 64q-57 0 -109.5 -15t-99.5 -48q-106 -78 -160 -219.5t-66 -317.5q-6 -73 -6 -147q0 -103 11 -207zM1427 1771q79 0 145 -44q142 -106 142 -361q0 -126 -20 -256q32 -3 66 -3q154 0 253.5 83
t99.5 211q0 90 -50.5 136.5t-113.5 46.5q-82 0 -123 -46q-36 -41 -40 -115q-1 -24 -20 -24t-19 24q5 83 54 139q54 62 148 62q85 0 144 -62.5t59 -160.5q0 -139 -108.5 -236.5t-283.5 -97.5q-37 0 -72 3q-77 -436 -378 -914q-404 -643 -670 -643q-57 4 -89 39.5t-45.5 90
t-13.5 112.5q0 87 11 172.5t26 171.5q15 91 26 184q10 84 10 171v16q0 51 -13 82t-37 31q-29 0 -76 -56q-75 -101 -124 -230.5t-63 -211.5q-2 -7 -7.5 -11.5t-12.5 -4.5q-4 0 -7 1q-64 26 -129 172t-104 354q-29 153 -29 310q0 56 4 113q14 215 109 381q70 115 188 183
q115 67 262 67h5q69 0 131.5 -23t111.5 -81q60 -71 60 -173q0 -129 -65.5 -252.5t-170.5 -227.5t-229 -177.5t-245 -103.5q33 -270 102 -458q19 73 52.5 160t81 167t107 132t129.5 52q41 0 65 -27.5t34 -77t10 -113.5q0 -87 -13 -189.5t-29 -207.5q-16 -100 -28 -194
t-12 -171q0 -52 13.5 -82.5t42.5 -30.5q199 0 586 590q298 454 368 916q-163 28 -283 135q-166 146 -166 335q0 99 70.5 161t172.5 62zM1639 1117q15 118 16 236q0 207 -70 295q-59 79 -158 83q-86 0 -145 -48.5t-59 -134.5q0 -178 152 -309q110 -96 264 -122z" />
    <glyph glyph-name="uniE032" unicode="&#xe032;" horiz-adv-x="795" 
d="M234 940q0 -53 -29.5 -92.5t-86.5 -39.5q-36 0 -59.5 16t-34.5 41t-11 51q0 53 30 90.5t85 37.5q53 0 79.5 -32.5t26.5 -71.5zM637 1460q79 0 145 -44q142 -106 142 -361q0 -124 -33 -255q39 -4 79 -4q154 0 253.5 83t99.5 211q0 90 -50.5 136.5t-113.5 46.5
q-82 0 -123 -46q-36 -41 -40 -115q-1 -24 -20 -24t-19 24q5 83 54 139q54 62 148 62q85 0 144 -62.5t59 -160.5q0 -139 -108.5 -236.5t-283.5 -97.5q-46 0 -89 5q-64 -226 -224 -470q-268 -408 -450 -408q-65 0 -105.5 49.5t-62.5 129t-31 172t-10 180.5v155q1 32 1 56
t25.5 37t56.5 13q30 0 55.5 -13t25.5 -40q0 -23 -4 -58q-2 -18 -3 -34q-5 -58 -7 -133q-1 -25 -1 -50q0 -50 3 -101q3 -76 14.5 -141.5t34.5 -106t60 -40.5q135 0 371 351q150 223 205 459q-158 30 -275 134q-166 146 -166 335q0 99 70.5 161t172.5 62zM843 807
q23 116 23 235q0 207 -71 295q-59 79 -158 83q-86 0 -145 -48.5t-59 -134.5q0 -178 152 -309q108 -94 258 -121z" />
    <glyph glyph-name="uniE033" unicode="&#xe033;" horiz-adv-x="794" 
d="M-113 980q0 39 26.5 72t79.5 33q55 0 85 -37.5t30 -91.5q0 -26 -11 -50.5t-34 -41t-60 -16.5q-57 0 -86.5 40t-29.5 92zM-472 -676q0 -69 35 -119.5t90 -77.5t116 -27q140 0 235.5 53.5t152.5 146.5t80 213q19 99 19 207q0 23 -1 47q-5 134 -33 270q-43 -29 -86 -59
q-209 -140 -399 -300q-49 -42 -97 -98t-80 -121.5t-32 -134.5zM725 1572q80 0 146 -44q141 -105 142 -361q0 -133 -34 -255q38 -4 79 -4q154 0 253.5 83t99.5 211q0 90 -50.5 136.5t-113.5 46.5q-82 0 -123 -46q-36 -41 -40 -115q-1 -24 -20 -24t-19 24q5 83 54 139
q54 62 148 62q85 0 144 -62.5t59 -160.5q0 -139 -108.5 -236.5t-283.5 -97.5q-47 0 -91 5q-46 -140 -138 -264q-185 -249 -461 -467q36 -154 38 -308v-9q0 -150 -34 -287q-35 -140 -107.5 -250t-185 -174.5t-265.5 -64.5q-61 0 -122 17t-111.5 51.5t-81.5 86t-31 120.5
q0 76 38.5 146.5t94 130.5t110.5 107q191 161 403 302q50 35 99 70q-73 315 -213 531q-3 5 -3 10q0 11 12 23q18 19 47 23q5 1 9 1q24 0 47 -23q173 -191 245 -462q250 201 424 431q92 122 135 268q-153 30 -268 132q-166 146 -166 335q0 99 70.5 161t172.5 62zM926 920
q28 111 28 235q0 206 -70 294q-60 79 -159 84q-86 -1 -145 -49.5t-59 -134.5q0 -178 152 -309q106 -93 253 -120z" />
    <glyph glyph-name="uniE034" unicode="&#xe034;" horiz-adv-x="1476" 
d="M821 1373q0 105 -61 169t-164 64q-107 0 -188.5 -56t-140 -152t-96.5 -219t-57.5 -260.5t-22.5 -274.5q90 22 189.5 72t195.5 121t173.5 158t124.5 183t47 195zM1380 1760q79 0 146 -44q141 -105 142 -361q0 -128 -18 -256q31 -3 63 -3q154 0 253.5 83t99.5 211
q0 90 -50.5 136.5t-113.5 46.5q-82 0 -123 -46q-36 -41 -40 -115q-1 -24 -20 -24t-19 24q5 83 54 139q54 62 148 62q85 0 144 -62.5t59 -160.5q0 -139 -108.5 -236.5t-283.5 -97.5q-35 0 -69 3q-66 -402 -308 -811q-332 -560 -590 -560q-96 0 -167.5 63t-136.5 153.5
t-108 181t-43 145.5q0 32 37 63.5t86 64.5q37 25 71.5 52t57 56t22.5 62q-5 53 -54 53q-36 0 -78 -32q-87 -78 -148 -213t-92 -248q-2 -6 -4 -16q-4 -15 -9 -33.5t-12.5 -32t-17.5 -13.5q-7 0 -13 4q-40 36 -70.5 115t-43.5 131q-58 217 -60 441v26q0 156 33 347
q36 207 135 373q72 111 183 167t233 56q83 0 162.5 -30t128.5 -102q42 -64 42 -149q0 -106 -51 -208.5t-136 -194t-188.5 -167t-211 -127t-203.5 -73.5q0 -314 63 -511q21 77 56 169t84 177t112 140.5t139 55.5q35 0 61.5 -17.5t26.5 -55.5q0 -40 -26.5 -80.5t-64 -76.5
t-74.5 -63.5t-62 -43.5q4 -35 43 -121t96 -183.5t116.5 -169.5t121.5 -72q224 0 526 526q223 391 281 789q-165 29 -286 136q-166 146 -166 335q0 99 70.5 161t172.5 62zM1594 1105q15 119 15 238q0 206 -70 294q-60 79 -159 84q-86 -1 -145 -49.5t-59 -134.5
q0 -178 152 -309q111 -97 266 -123z" />
    <glyph glyph-name="uniE035" unicode="&#xe035;" horiz-adv-x="1277" 
d="M114 647q114 30 234.5 96t224.5 160t170 208t66 238q0 109 -68 183t-180 74q-117 0 -201 -80t-137.5 -215.5t-80 -307t-28.5 -356.5zM1179 1819q79 0 145 -44q142 -106 142 -361q0 -128 -15 -257q30 -2 61 -2q154 0 253.5 83t99.5 211q0 90 -50.5 136.5t-113.5 46.5
q-82 0 -123 -46q-36 -41 -40 -115q-1 -24 -20 -24t-19 24q5 83 54 139q54 62 148 62q85 0 144 -62.5t59 -160.5q0 -139 -108.5 -236.5t-283.5 -97.5q-34 0 -66 3q-66 -495 -354 -993q-375 -648 -662 -648q-108 0 -176.5 56t-124.5 174q-43 91 -77.5 221t-57.5 284t-29 319
q-2 52 -2 104q0 111 10 221q15 160 55 302.5t110 251.5t174.5 172.5t248.5 63.5q128 0 207.5 -85.5t79.5 -211.5q0 -133 -69 -254.5t-179 -221t-237.5 -168.5t-248.5 -99q0 -199 24 -387t67.5 -339.5t103.5 -242t152 -90.5q254 0 601 611q270 476 329 967q-167 28 -289 136
q-166 146 -166 335q0 99 70.5 161t172.5 62zM1396 1164q12 118 12 237q0 207 -71 295q-59 79 -158 83q-86 0 -145 -48.5t-59 -134.5q0 -178 152 -309q112 -98 269 -123z" />
    <glyph glyph-name="uniE036" unicode="&#xe036;" horiz-adv-x="1678" 
d="M1471 1349q79 0 145 -43q141 -106 142 -362q0 -130 -17 -257q31 -2 63 -2q154 0 253.5 83t99.5 211q0 90 -50.5 136.5t-113.5 46.5q-82 0 -123 -46q-36 -41 -40 -115q-1 -24 -20 -24t-19 24q5 83 54 139q54 62 148 62q85 0 144 -62.5t59 -160.5q0 -139 -108.5 -236.5
t-283.5 -97.5q-35 0 -69 3q-58 -374 -264 -714q-288 -473 -526 -473q-79 0 -127 51.5t-63 157.5q-8 66 -10 193q-2 85 -2 250q1 123 3 220q0 37 1 113v51q0 52 -1 107q-3 83 -10 143t-22 60q-19 0 -38 -41t-33 -86t-19 -62v-1q-50 -189 -90 -382q-14 -64 -28 -127
q-19 -80 -53 -80q-44 0 -62.5 20.5t-22.5 51.5q-4 22 -4 45q0 10 1 58q0 59 -2 117q0 26 -6 110t-18.5 163t-32.5 91q-26 0 -51 -77t-45.5 -174t-32.5 -165q-2 -14 -5 -32q-4 -28 -15.5 -52t-44.5 -27q-56 3 -79 47t-27 93q-10 106 -10 213q0 56 3 113q5 47 39 61q15 6 29 6
q19 0 38 -10q32 -16 33 -59v-131q1 -95 7 -178q11 70 29.5 154t44.5 154q24 65 54.5 98.5t76.5 33.5q40 0 74.5 -36t51.5 -109q27 -150 27 -325q37 175 83 345l2 10q11 44 35 108q26 66 59.5 97t83.5 31q38 0 60.5 -21.5t34 -53.5t16 -67t6.5 -63q3 -83 3 -166
q0 -55 -1 -110q-1 -39 -1 -77v-26q-2 -44 -3 -129l-1 -59q0 -61 2 -129q2 -213 26 -313.5t107 -100.5q201 0 443 422q176 309 224 675q-166 28 -288 136q-166 146 -166 335q0 99 70.5 161t172.5 62zM1686 694q13 116 13 238q0 206 -70 295q-59 79 -158 83q-86 -1 -145 -49.5
t-59 -134.5q0 -178 152 -309q111 -97 267 -123z" />
    <glyph glyph-name="uniE037" unicode="&#xe037;" horiz-adv-x="1368" 
d="M1215 1517q79 0 145 -44q142 -106 142 -361q0 -126 -25 -256q35 -3 71 -3q154 0 253.5 83t99.5 211q0 90 -50.5 136.5t-113.5 46.5q-82 0 -123 -46q-36 -41 -40 -115q-1 -24 -20 -24t-19 24q5 83 54 139q54 62 148 62q85 0 144 -62.5t59 -160.5q0 -139 -108.5 -236.5
t-283.5 -97.5q-40 0 -79 4q-67 -314 -276 -654q-310 -505 -558 -505q-96 0 -132.5 62.5t-42.5 199.5q-1 25 -1 49q0 66 6 131q7 89 14 148q12 99 20.5 180.5t12.5 169.5q2 40 2 76q0 42 -3 76q-6 63 -30 63q-22 0 -47.5 -49t-49 -117t-41 -130t-25.5 -92q-13 -47 -23 -85
q-16 -62 -33 -123q-8 -30 -30 -106t-62 -76q-45 0 -71 31.5t-39.5 74t-21.5 84.5q-19 89 -28.5 197t-10.5 199q2 45 36 61q18 9 35 9q16 0 32 -7q33 -14 36 -62q0 -34 7.5 -130.5t21.5 -196.5t34 -143q30 99 56 199q10 38 26 100q13 52 37.5 134.5t58.5 157.5
q35 73 72.5 104.5t83.5 31.5q61 0 89.5 -44.5t28.5 -109.5v-84q-6 -146 -24 -292q-14 -126 -20 -187.5t-9 -132.5q-1 -36 -1 -70t1 -67q4 -66 19 -108.5t76 -42.5q204 0 477 461q187 317 246 622q-161 30 -280 135q-166 146 -166 335q0 99 70.5 161t172.5 62zM1424 863
q20 119 20 236q0 207 -71 295q-59 79 -158 83q-86 0 -145 -48.5t-59 -134.5q0 -178 152 -309q109 -95 261 -122z" />
    <glyph glyph-name="uniE038" unicode="&#xe038;" horiz-adv-x="1056" 
d="M136 614q-5 -30 -9.5 -74t-4.5 -93q0 -59 10 -116t38.5 -94.5t82.5 -37.5q45 0 81 34.5t63 83.5t44 98q-99 17 -183 64.5t-122 134.5zM454 453q5 17 8 31q17 69 17 140q0 39 -8 83t-26.5 83t-50.5 64t-80 25q-74 0 -116 -44.5t-42 -118.5q5 -122 93.5 -183.5t204.5 -79.5
zM1111 1692q79 0 145 -44q142 -106 142 -361q0 -134 -36 -255q40 -4 82 -4q154 0 253.5 83t99.5 211q0 90 -50.5 136.5t-113.5 46.5q-82 0 -123 -46q-36 -41 -40 -115q-1 -24 -20 -24t-19 24q5 83 54 139q54 62 148 62q85 0 144 -62.5t59 -160.5q0 -139 -108.5 -236.5
t-283.5 -97.5q-49 0 -94 6q-63 -180 -208 -329q-257 -263 -554 -263q-51 0 -108 7q-51 -146 -131 -212q-70 -56 -141 -56q-11 0 -22 1q-83 9 -139.5 90.5t-60.5 229.5q0 81 12 163q6 27 29 37q18 8 37 8q7 0 14 -1q28 -3 46 -18q-8 30 -8 65q1 110 59.5 175.5t167.5 65.5
q72 0 112 -36.5t56 -94t16 -122.5q0 -63 -9 -124.5t-19 -105.5q-4 -14 -7 -27q51 -6 96 -6q289 0 521 241q135 141 191 320q-152 31 -266 132q-166 146 -166 335q0 99 70.5 161t172.5 62zM1311 1040q29 110 29 234q0 207 -71 295q-59 79 -158 83q-86 0 -145 -48.5
t-59 -134.5q0 -178 152 -309q106 -93 252 -120z" />
    </font>
</defs>
</svg>
